G04*
G04 #@! TF.GenerationSoftware,Altium Limited,Altium Designer,20.0.11 (256)*
G04*
G04 Layer_Color=65535*
%FSLAX25Y25*%
%MOIN*%
G70*
G01*
G75*
%ADD10C,0.01000*%
%ADD11C,0.00500*%
%ADD12C,0.00600*%
%ADD13C,0.00787*%
%ADD14C,0.00800*%
%ADD15C,0.00591*%
%ADD16C,0.00700*%
G36*
X69948Y136021D02*
X65548D01*
X67748Y133820D01*
X69948Y136021D01*
D02*
G37*
D10*
X96500Y84200D02*
G03*
X94500Y84200I-1000J0D01*
G01*
X148026Y149996D02*
G03*
X148026Y149996I-12598J0D01*
G01*
X181978Y52232D02*
G03*
X181978Y52232I-12598J0D01*
G01*
X80346Y47133D02*
G03*
X80346Y47133I-12598J0D01*
G01*
X60224Y131810D02*
G03*
X60224Y131810I-12598J0D01*
G01*
X96500Y83700D02*
X103500D01*
X96500D02*
Y84200D01*
X94500Y83700D02*
Y84200D01*
X87500Y83700D02*
X94500D01*
X87500D02*
Y118700D01*
X103500D01*
Y83700D02*
Y118700D01*
X91057Y148731D02*
X94400Y148700D01*
X90900Y143997D02*
X91057Y148731D01*
X86233Y140997D02*
X90900Y143997D01*
X135428Y137996D02*
X147428Y149996D01*
X135428Y140997D02*
X147428Y152997D01*
X142428Y150997D02*
X146428Y154997D01*
X135428Y143997D02*
X138928Y147496D01*
X141428Y152997D02*
X145428Y156997D01*
X135428Y146996D02*
X137928Y149496D01*
X135428Y149996D02*
X143928Y158496D01*
X135428Y152997D02*
X142428Y159996D01*
X135428Y155997D02*
X140428Y160996D01*
X135428Y137996D02*
Y161996D01*
X130428Y154997D02*
X132428D01*
X131428Y153997D02*
Y155997D01*
X169380Y40232D02*
X181380Y52232D01*
X169380Y43232D02*
X181380Y55232D01*
X176380Y53232D02*
X180380Y57232D01*
X169380Y46232D02*
X172880Y49732D01*
X175380Y55232D02*
X179380Y59232D01*
X169380Y49232D02*
X171880Y51732D01*
X169380Y52232D02*
X177880Y60732D01*
X169380Y55232D02*
X176380Y62232D01*
X169380Y58232D02*
X174380Y63232D01*
X169380Y40232D02*
Y64232D01*
X164380Y57232D02*
X166380D01*
X165380Y56232D02*
Y58232D01*
X55747Y47133D02*
X67747Y35133D01*
X58748Y47133D02*
X70748Y35133D01*
X68748Y40133D02*
X72747Y36133D01*
X61747Y47133D02*
X65247Y43633D01*
X70748Y41133D02*
X74748Y37133D01*
X64748Y47133D02*
X67247Y44633D01*
X67747Y47133D02*
X76248Y38633D01*
X70748Y47133D02*
X77747Y40133D01*
X73747Y47133D02*
X78747Y42133D01*
X55747Y47133D02*
X79747D01*
X72747Y50133D02*
Y52133D01*
X71747Y51133D02*
X73747D01*
X47626Y143810D02*
X59626Y131810D01*
X44626Y143810D02*
X56626Y131810D01*
X42626Y142810D02*
X46626Y138810D01*
X50126Y135310D02*
X53626Y131810D01*
X40626Y141810D02*
X44626Y137810D01*
X48126Y134310D02*
X50626Y131810D01*
X39126Y140310D02*
X47626Y131810D01*
X37626Y138810D02*
X44626Y131810D01*
X36626Y136810D02*
X41626Y131810D01*
X35626D02*
X59626D01*
X42626Y126810D02*
Y128810D01*
X41626Y127810D02*
X43626D01*
D11*
X34187Y116833D02*
G03*
X32831Y115477I0J-1356D01*
G01*
X38387Y115429D02*
G03*
X36983Y116833I-1404J0D01*
G01*
Y104825D02*
G03*
X38387Y106229I0J1404D01*
G01*
X32831Y106181D02*
G03*
X34187Y104825I1356J0D01*
G01*
X84167Y34800D02*
G03*
X85523Y33444I1356J0D01*
G01*
X85571Y39000D02*
G03*
X84167Y37596I0J-1404D01*
G01*
X96175D02*
G03*
X94771Y39000I-1404J0D01*
G01*
X94819Y33444D02*
G03*
X96175Y34800I0J1356D01*
G01*
X144147Y131992D02*
G03*
X145503Y130636I1356J0D01*
G01*
X145551Y136192D02*
G03*
X144147Y134788I0J-1404D01*
G01*
X156155D02*
G03*
X154751Y136192I-1404J0D01*
G01*
X154799Y130636D02*
G03*
X156155Y131992I0J1356D01*
G01*
X144049Y62832D02*
G03*
X145405Y61476I1356J0D01*
G01*
X145453Y67032D02*
G03*
X144049Y65628I0J-1404D01*
G01*
X156056D02*
G03*
X154653Y67032I-1404J0D01*
G01*
X154701Y61476D02*
G03*
X156056Y62832I0J1356D01*
G01*
X72015Y97482D02*
G03*
X70659Y98838I-1356J0D01*
G01*
X70611Y93282D02*
G03*
X72015Y94686I0J1404D01*
G01*
X60007D02*
G03*
X61411Y93282I1404J0D01*
G01*
X61363Y98838D02*
G03*
X60007Y97482I0J-1356D01*
G01*
X118896Y78817D02*
G03*
X120252Y77461I1356J0D01*
G01*
X120300Y83017D02*
G03*
X118896Y81613I0J-1404D01*
G01*
X130904D02*
G03*
X129500Y83017I-1404J0D01*
G01*
X129548Y77461D02*
G03*
X130904Y78817I0J1356D01*
G01*
X118896Y92702D02*
G03*
X120252Y91347I1356J0D01*
G01*
X120300Y96902D02*
G03*
X118896Y95498I0J-1404D01*
G01*
X130904D02*
G03*
X129500Y96902I-1404J0D01*
G01*
X129548Y91347D02*
G03*
X130904Y92702I0J1356D01*
G01*
X118896Y106198D02*
G03*
X120252Y104842I1356J0D01*
G01*
X120300Y110398D02*
G03*
X118896Y108994I0J-1404D01*
G01*
X130904D02*
G03*
X129500Y110398I-1404J0D01*
G01*
X129548Y104842D02*
G03*
X130904Y106198I0J1356D01*
G01*
X118842Y71875D02*
G03*
X120198Y70519I1356J0D01*
G01*
X120246Y76075D02*
G03*
X118842Y74671I0J-1404D01*
G01*
X130850D02*
G03*
X129446Y76075I-1404J0D01*
G01*
X129494Y70519D02*
G03*
X130850Y71875I0J1356D01*
G01*
X111947Y163646D02*
G03*
X113303Y162290I1356J0D01*
G01*
X113351Y167846D02*
G03*
X111947Y166442I0J-1404D01*
G01*
X123955D02*
G03*
X122551Y167846I-1404J0D01*
G01*
X122599Y162290D02*
G03*
X123955Y163646I0J1356D01*
G01*
X164780Y83707D02*
G03*
X166136Y85063I0J1356D01*
G01*
X160580Y85111D02*
G03*
X161984Y83707I1404J0D01*
G01*
Y95715D02*
G03*
X160580Y94311I0J-1404D01*
G01*
X166136Y94359D02*
G03*
X164780Y95715I-1356J0D01*
G01*
X102333Y129226D02*
G03*
X103689Y127870I1356J0D01*
G01*
X103737Y133426D02*
G03*
X102333Y132022I0J-1404D01*
G01*
X114341D02*
G03*
X112937Y133426I-1404J0D01*
G01*
X112985Y127870D02*
G03*
X114341Y129226I0J1356D01*
G01*
X118842Y64932D02*
G03*
X120198Y63576I1356J0D01*
G01*
X120246Y69132D02*
G03*
X118842Y67728I0J-1404D01*
G01*
X130850D02*
G03*
X129446Y69132I-1404J0D01*
G01*
X129494Y63576D02*
G03*
X130850Y64932I0J1356D01*
G01*
X72015Y116775D02*
G03*
X70659Y118131I-1356J0D01*
G01*
X70611Y112575D02*
G03*
X72015Y113979I0J1404D01*
G01*
X60007D02*
G03*
X61411Y112575I1404J0D01*
G01*
X61363Y118131D02*
G03*
X60007Y116775I0J-1356D01*
G01*
X32831Y111829D02*
Y115477D01*
X34187Y116833D02*
X36983D01*
X38387Y111829D02*
Y115429D01*
Y106229D02*
Y109829D01*
X34187Y104825D02*
X36983D01*
X32831Y106181D02*
Y109829D01*
X33587Y110329D02*
X37587D01*
X33587Y111380D02*
X37587D01*
X85523Y33444D02*
X89171D01*
X84167Y34800D02*
Y37596D01*
X85571Y39000D02*
X89171D01*
X91171D02*
X94771D01*
X96175Y34800D02*
Y37596D01*
X91171Y33444D02*
X94819D01*
X90671Y34200D02*
Y38200D01*
X89620Y34200D02*
Y38200D01*
X145503Y130636D02*
X149151D01*
X144147Y131992D02*
Y134788D01*
X145551Y136192D02*
X149151D01*
X151151D02*
X154751D01*
X156155Y131992D02*
Y134788D01*
X151151Y130636D02*
X154799D01*
X150651Y131392D02*
Y135392D01*
X149600Y131392D02*
Y135392D01*
X145405Y61476D02*
X149053D01*
X144049Y62832D02*
Y65628D01*
X145453Y67032D02*
X149053D01*
X151053D02*
X154653D01*
X156056Y62832D02*
Y65628D01*
X151053Y61476D02*
X154701D01*
X150553Y62232D02*
Y66232D01*
X149501Y62232D02*
Y66232D01*
X67011Y98838D02*
X70659D01*
X72015Y94686D02*
Y97482D01*
X67011Y93282D02*
X70611D01*
X61411D02*
X65011D01*
X60007Y94686D02*
Y97482D01*
X61363Y98838D02*
X65011D01*
X65511Y94082D02*
Y98082D01*
X66562Y94082D02*
Y98082D01*
X120252Y77461D02*
X123900D01*
X118896Y78817D02*
Y81613D01*
X120300Y83017D02*
X123900D01*
X125900D02*
X129500D01*
X130904Y78817D02*
Y81613D01*
X125900Y77461D02*
X129548D01*
X125400Y78217D02*
Y82217D01*
X124348Y78217D02*
Y82217D01*
X120252Y91347D02*
X123900D01*
X118896Y92702D02*
Y95498D01*
X120300Y96902D02*
X123900D01*
X125900D02*
X129500D01*
X130904Y92702D02*
Y95498D01*
X125900Y91347D02*
X129548D01*
X125400Y92102D02*
Y96102D01*
X124348Y92102D02*
Y96102D01*
X120252Y104842D02*
X123900D01*
X118896Y106198D02*
Y108994D01*
X120300Y110398D02*
X123900D01*
X125900D02*
X129500D01*
X130904Y106198D02*
Y108994D01*
X125900Y104842D02*
X129548D01*
X125400Y105598D02*
Y109598D01*
X124348Y105598D02*
Y109598D01*
X120198Y70519D02*
X123846D01*
X118842Y71875D02*
Y74671D01*
X120246Y76075D02*
X123846D01*
X125846D02*
X129446D01*
X130850Y71875D02*
Y74671D01*
X125846Y70519D02*
X129494D01*
X125346Y71275D02*
Y75275D01*
X124295Y71275D02*
Y75275D01*
X113303Y162290D02*
X116951D01*
X111947Y163646D02*
Y166442D01*
X113351Y167846D02*
X116951D01*
X118951D02*
X122551D01*
X123955Y163646D02*
Y166442D01*
X118951Y162290D02*
X122599D01*
X118451Y163046D02*
Y167046D01*
X117400Y163046D02*
Y167046D01*
X166136Y85063D02*
Y88711D01*
X161984Y83707D02*
X164780D01*
X160580Y85111D02*
Y88711D01*
Y90711D02*
Y94311D01*
X161984Y95715D02*
X164780D01*
X166136Y90711D02*
Y94359D01*
X161380Y90211D02*
X165380D01*
X161380Y89160D02*
X165380D01*
X103689Y127870D02*
X107337D01*
X102333Y129226D02*
Y132022D01*
X103737Y133426D02*
X107337D01*
X109337D02*
X112937D01*
X114341Y129226D02*
Y132022D01*
X109337Y127870D02*
X112985D01*
X108837Y128626D02*
Y132626D01*
X107786Y128626D02*
Y132626D01*
X120198Y63576D02*
X123846D01*
X118842Y64932D02*
Y67728D01*
X120246Y69132D02*
X123846D01*
X125846D02*
X129446D01*
X130850Y64932D02*
Y67728D01*
X125846Y63576D02*
X129494D01*
X125346Y64332D02*
Y68332D01*
X124295Y64332D02*
Y68332D01*
X67011Y118131D02*
X70659D01*
X72015Y113979D02*
Y116775D01*
X67011Y112575D02*
X70611D01*
X61411D02*
X65011D01*
X60007Y113979D02*
Y116775D01*
X61363Y118131D02*
X65011D01*
X65511Y113375D02*
Y117375D01*
X66562Y113375D02*
Y117375D01*
D12*
X150643Y79812D02*
G03*
X154580Y85908I-3825J6789D01*
G01*
X154581Y112876D02*
G03*
X150647Y118786I-8013J-1069D01*
G01*
X143557Y118353D02*
G03*
X139620Y111463I3776J-6728D01*
G01*
X139620Y86703D02*
G03*
X143559Y79811I7762J-135D01*
G01*
X150648Y78239D02*
G03*
X156352Y85920I-3616J8644D01*
G01*
X156351Y112695D02*
G03*
X150637Y120169I-9329J-1212D01*
G01*
X143550Y120163D02*
G03*
X137848Y112486I3340J-8437D01*
G01*
X137847Y86511D02*
G03*
X143555Y78238I9961J766D01*
G01*
X67178Y111594D02*
X71965D01*
Y106194D02*
Y111594D01*
X67178Y106194D02*
X71965D01*
X59997D02*
X64784D01*
X59997D02*
Y111594D01*
X64784D01*
X59997Y99763D02*
X64784D01*
X59997D02*
Y105163D01*
X64784D01*
X67178D02*
X71965D01*
Y99763D02*
Y105163D01*
X67178Y99763D02*
X71965D01*
X102323Y135820D02*
X107110D01*
X102323D02*
Y141220D01*
X107110D01*
X109504D02*
X114291D01*
Y135820D02*
Y141220D01*
X109504Y135820D02*
X114291D01*
X80182Y133320D02*
X84970D01*
Y127920D02*
Y133320D01*
X80182Y127920D02*
X84970D01*
X73001D02*
X77789D01*
X73001D02*
Y133320D01*
X77789D01*
X118946Y84454D02*
X123733D01*
X118946D02*
Y89854D01*
X123733D01*
X126127D02*
X130914D01*
Y84454D02*
Y89854D01*
X126127Y84454D02*
X130914D01*
X80182Y141260D02*
X84970D01*
Y135860D02*
Y141260D01*
X80182Y135860D02*
X84970D01*
X73001D02*
X77789D01*
X73001D02*
Y141260D01*
X77789D01*
X88249Y135860D02*
X93036D01*
X88249D02*
Y141260D01*
X93036D01*
X95430D02*
X100217D01*
Y135860D02*
Y141260D01*
X95430Y135860D02*
X100217D01*
X154580Y85914D02*
Y112883D01*
X139620Y86702D02*
Y111463D01*
X156352Y85914D02*
Y112686D01*
X137848Y86505D02*
Y112489D01*
X151431Y76465D02*
X156942D01*
Y122135D01*
X151250D02*
X156942D01*
X137572D02*
X142769D01*
X137572Y76465D02*
Y122135D01*
Y76465D02*
X143065D01*
D13*
X67910Y142961D02*
X70351D01*
X69130Y141741D02*
Y144182D01*
X64948Y129321D02*
X70548D01*
X64948D02*
Y131810D01*
X70548Y129321D02*
Y131810D01*
Y138031D02*
Y140521D01*
X64948Y138031D02*
Y140521D01*
X70548D01*
X33860Y187009D02*
X34921Y188070D01*
X30325Y190545D02*
X33860Y187009D01*
X30325Y190545D02*
X31314Y191534D01*
X6707Y166927D02*
X7697Y167917D01*
X11233Y164382D01*
X10172Y163321D02*
X11233Y164382D01*
X-2202Y175695D02*
X10172Y188070D01*
X-2202Y175695D02*
X16889Y156604D01*
X18445Y167210D02*
X22971Y162685D01*
X16889Y156604D02*
X22971Y162685D01*
X18445Y167210D02*
X19789Y168554D01*
X29688Y178453D02*
X31032Y179797D01*
X35557Y175271D02*
X41638Y181352D01*
X31032Y179797D02*
X35557Y175271D01*
X22546Y200444D02*
X41638Y181352D01*
X10172Y188070D02*
X22546Y200444D01*
X19789Y168554D02*
X24288Y164054D01*
X34187Y173954D01*
X29688Y178453D02*
X34187Y173954D01*
X16819Y194717D02*
X21910Y189625D01*
X16819Y184534D02*
X21910Y189625D01*
X11798Y189555D02*
X16819Y184534D01*
X3447Y181203D02*
X8467Y176182D01*
X13558Y181274D01*
X8467Y186365D02*
X13558Y181274D01*
D14*
X83183Y55802D02*
X91057D01*
X83183Y39802D02*
Y55802D01*
Y39802D02*
X91057D01*
Y55802D01*
X159443Y66495D02*
X167317D01*
Y82495D01*
X159443D02*
X167317D01*
X159443Y66495D02*
Y82495D01*
X110963Y145048D02*
X118837D01*
Y161048D01*
X110963D02*
X118837D01*
X110963Y145048D02*
Y161048D01*
X39626Y109943D02*
Y117817D01*
Y109943D02*
X55626D01*
Y117817D01*
X39626D02*
X55626D01*
X71270Y142463D02*
Y150337D01*
Y142463D02*
X87270D01*
Y150337D01*
X71270D02*
X87270D01*
X86233Y126683D02*
Y134557D01*
Y126683D02*
X102233D01*
Y134557D01*
X86233D02*
X102233D01*
X145132Y99300D02*
X149068D01*
X147100Y97332D02*
Y101268D01*
X71372Y231418D02*
X130428D01*
Y170394D02*
Y231418D01*
X71372Y170394D02*
X130428D01*
X71372D02*
Y231418D01*
X230318Y70972D02*
Y130028D01*
X169294Y70972D02*
X230318D01*
X169294D02*
Y130028D01*
X230318D01*
X71372Y-31418D02*
X130428D01*
X71372D02*
Y29606D01*
X130428D01*
Y-31418D02*
Y29606D01*
X-30418Y70572D02*
Y129628D01*
X30606D01*
Y70572D02*
Y129628D01*
X-30418Y70572D02*
X30606D01*
D15*
X63304Y77035D02*
X80627D01*
X63304Y64830D02*
X80627D01*
D16*
X155090Y67770D02*
X158589D01*
Y69769D01*
X155090Y70152D02*
X158589D01*
X155090D02*
Y71652D01*
X155257Y72152D01*
X155423Y72319D01*
X155757Y72485D01*
X156090D01*
X156423Y72319D01*
X156590Y72152D01*
X156756Y71652D01*
Y70152D02*
Y71652D01*
X156923Y72152D01*
X157090Y72319D01*
X157423Y72485D01*
X157923D01*
X158256Y72319D01*
X158423Y72152D01*
X158589Y71652D01*
Y70152D01*
X155090Y75268D02*
Y73602D01*
X156590Y73435D01*
X156423Y73602D01*
X156256Y74102D01*
Y74601D01*
X156423Y75101D01*
X156756Y75435D01*
X157256Y75601D01*
X157589D01*
X158089Y75435D01*
X158423Y75101D01*
X158589Y74601D01*
Y74102D01*
X158423Y73602D01*
X158256Y73435D01*
X157923Y73268D01*
X61901Y142105D02*
X65400D01*
Y144438D01*
X61901Y147937D02*
Y145604D01*
X65400D01*
Y147937D01*
X63651Y145604D02*
Y146771D01*
X61901Y149103D02*
X65400D01*
Y150853D01*
X64817Y151436D01*
X62484D01*
X61901Y150853D01*
Y149103D01*
X65400Y152602D02*
Y153768D01*
Y153185D01*
X61901D01*
X62484Y152602D01*
X76582Y155575D02*
Y152076D01*
X78582D01*
X78965Y155575D02*
Y152076D01*
Y155575D02*
X80465D01*
X80965Y155408D01*
X81132Y155242D01*
X81298Y154909D01*
Y154575D01*
X81132Y154242D01*
X80965Y154075D01*
X80465Y153909D01*
X78965D02*
X80465D01*
X80965Y153742D01*
X81132Y153575D01*
X81298Y153242D01*
Y152742D01*
X81132Y152409D01*
X80965Y152242D01*
X80465Y152076D01*
X78965D01*
X82081Y154909D02*
X82415Y155075D01*
X82915Y155575D01*
Y152076D01*
X82900Y64199D02*
Y60700D01*
Y64199D02*
X85066D01*
X82900Y62533D02*
X84233D01*
X85466Y63533D02*
X85799Y63699D01*
X86299Y64199D01*
Y60700D01*
X105901Y149700D02*
X109400D01*
Y151700D01*
X105901Y152083D02*
X109400D01*
X105901D02*
Y153583D01*
X106067Y154082D01*
X106234Y154249D01*
X106567Y154416D01*
X106901D01*
X107234Y154249D01*
X107400Y154082D01*
X107567Y153583D01*
Y152083D02*
Y153583D01*
X107734Y154082D01*
X107900Y154249D01*
X108234Y154416D01*
X108733D01*
X109067Y154249D01*
X109233Y154082D01*
X109400Y153583D01*
Y152083D01*
X106401Y157198D02*
X106067Y157032D01*
X105901Y156532D01*
Y156199D01*
X106067Y155699D01*
X106567Y155366D01*
X107400Y155199D01*
X108234D01*
X108900Y155366D01*
X109233Y155699D01*
X109400Y156199D01*
Y156365D01*
X109233Y156865D01*
X108900Y157198D01*
X108400Y157365D01*
X108234D01*
X107734Y157198D01*
X107400Y156865D01*
X107234Y156365D01*
Y156199D01*
X107400Y155699D01*
X107734Y155366D01*
X108234Y155199D01*
X91931Y44952D02*
X95430D01*
Y46952D01*
X91931Y47335D02*
X95430D01*
X91931D02*
Y48835D01*
X92097Y49335D01*
X92264Y49501D01*
X92597Y49668D01*
X92931D01*
X93264Y49501D01*
X93430Y49335D01*
X93597Y48835D01*
Y47335D02*
Y48835D01*
X93764Y49335D01*
X93930Y49501D01*
X94263Y49668D01*
X94763D01*
X95097Y49501D01*
X95263Y49335D01*
X95430Y48835D01*
Y47335D01*
X91931Y52118D02*
X94263Y50451D01*
Y52951D01*
X91931Y52118D02*
X95430D01*
X43295Y107958D02*
Y104459D01*
X45294D01*
X45678Y107958D02*
Y104459D01*
Y107958D02*
X47177D01*
X47677Y107792D01*
X47844Y107625D01*
X48011Y107292D01*
Y106958D01*
X47844Y106625D01*
X47677Y106459D01*
X47177Y106292D01*
X45678D02*
X47177D01*
X47677Y106125D01*
X47844Y105959D01*
X48011Y105625D01*
Y105126D01*
X47844Y104792D01*
X47677Y104626D01*
X47177Y104459D01*
X45678D01*
X49127Y107958D02*
X50960D01*
X49960Y106625D01*
X50460D01*
X50793Y106459D01*
X50960Y106292D01*
X51126Y105792D01*
Y105459D01*
X50960Y104959D01*
X50627Y104626D01*
X50127Y104459D01*
X49627D01*
X49127Y104626D01*
X48960Y104792D01*
X48794Y105126D01*
X65460Y122835D02*
X65293Y123168D01*
X64960Y123502D01*
X64626Y123668D01*
X63960D01*
X63627Y123502D01*
X63293Y123168D01*
X63127Y122835D01*
X62960Y122335D01*
Y121502D01*
X63127Y121002D01*
X63293Y120669D01*
X63627Y120335D01*
X63960Y120169D01*
X64626D01*
X64960Y120335D01*
X65293Y120669D01*
X65460Y121002D01*
X66443Y123002D02*
X66776Y123168D01*
X67276Y123668D01*
Y120169D01*
X69342Y123668D02*
X71175D01*
X70175Y122335D01*
X70675D01*
X71008Y122168D01*
X71175Y122002D01*
X71342Y121502D01*
Y121169D01*
X71175Y120669D01*
X70842Y120335D01*
X70342Y120169D01*
X69842D01*
X69342Y120335D01*
X69175Y120502D01*
X69009Y120835D01*
X103608Y126199D02*
Y122700D01*
X105607D01*
X105991Y126199D02*
Y122700D01*
Y126199D02*
X107490D01*
X107990Y126033D01*
X108157Y125866D01*
X108324Y125533D01*
Y125199D01*
X108157Y124866D01*
X107990Y124700D01*
X107490Y124533D01*
X105991D02*
X107490D01*
X107990Y124366D01*
X108157Y124200D01*
X108324Y123866D01*
Y123366D01*
X108157Y123033D01*
X107990Y122867D01*
X107490Y122700D01*
X105991D01*
X109273Y125366D02*
Y125533D01*
X109440Y125866D01*
X109607Y126033D01*
X109940Y126199D01*
X110606D01*
X110940Y126033D01*
X111106Y125866D01*
X111273Y125533D01*
Y125199D01*
X111106Y124866D01*
X110773Y124366D01*
X109107Y122700D01*
X111440D01*
X41926Y188033D02*
Y185117D01*
X42509Y184534D01*
X43676D01*
X44259Y185117D01*
Y188033D01*
X45425Y184534D02*
Y188033D01*
X47174D01*
X47758Y187450D01*
Y186284D01*
X47174Y185701D01*
X45425D01*
X48924Y184534D02*
X50090D01*
X49507D01*
Y188033D01*
X48924Y187450D01*
X155900Y127299D02*
X158233Y123800D01*
Y127299D02*
X155900Y123800D01*
X159016Y126633D02*
X159349Y126799D01*
X159849Y127299D01*
Y123800D01*
X93222Y78599D02*
Y76100D01*
X93389Y75600D01*
X93722Y75267D01*
X94222Y75100D01*
X94555D01*
X95055Y75267D01*
X95389Y75600D01*
X95555Y76100D01*
Y78599D01*
X96522Y77933D02*
X96855Y78099D01*
X97355Y78599D01*
Y75100D01*
X53326Y108324D02*
Y104825D01*
Y108324D02*
X54826D01*
X55326Y108158D01*
X55492Y107991D01*
X55659Y107658D01*
Y107324D01*
X55492Y106991D01*
X55326Y106825D01*
X54826Y106658D01*
X53326D01*
X54493D02*
X55659Y104825D01*
X58775Y108324D02*
X57109Y104825D01*
X56442Y108324D02*
X58775D01*
X53326Y101582D02*
Y98082D01*
Y101582D02*
X54826D01*
X55326Y101415D01*
X55492Y101248D01*
X55659Y100915D01*
Y100582D01*
X55492Y100249D01*
X55326Y100082D01*
X54826Y99915D01*
X53326D01*
X54493D02*
X55659Y98082D01*
X58442Y101082D02*
X58275Y101415D01*
X57775Y101582D01*
X57442D01*
X56942Y101415D01*
X56609Y100915D01*
X56442Y100082D01*
Y99249D01*
X56609Y98582D01*
X56942Y98249D01*
X57442Y98082D01*
X57609D01*
X58108Y98249D01*
X58442Y98582D01*
X58608Y99082D01*
Y99249D01*
X58442Y99749D01*
X58108Y100082D01*
X57609Y100249D01*
X57442D01*
X56942Y100082D01*
X56609Y99749D01*
X56442Y99249D01*
X117400Y139691D02*
Y136192D01*
Y139691D02*
X118900D01*
X119400Y139524D01*
X119566Y139358D01*
X119733Y139024D01*
Y138691D01*
X119566Y138358D01*
X119400Y138191D01*
X118900Y138024D01*
X117400D01*
X118566D02*
X119733Y136192D01*
X122516Y139691D02*
X120849D01*
X120683Y138191D01*
X120849Y138358D01*
X121349Y138524D01*
X121849D01*
X122349Y138358D01*
X122682Y138024D01*
X122849Y137525D01*
Y137191D01*
X122682Y136691D01*
X122349Y136358D01*
X121849Y136192D01*
X121349D01*
X120849Y136358D01*
X120683Y136525D01*
X120516Y136858D01*
X76582Y125634D02*
Y122135D01*
Y125634D02*
X78082D01*
X78582Y125467D01*
X78749Y125301D01*
X78915Y124967D01*
Y124634D01*
X78749Y124301D01*
X78582Y124134D01*
X78082Y123968D01*
X76582D01*
X77749D02*
X78915Y122135D01*
X81365Y125634D02*
X79698Y123301D01*
X82198D01*
X81365Y125634D02*
Y122135D01*
X132401Y84454D02*
X135900D01*
X132401D02*
Y85954D01*
X132567Y86453D01*
X132734Y86620D01*
X133067Y86787D01*
X133400D01*
X133734Y86620D01*
X133900Y86453D01*
X134067Y85954D01*
Y84454D01*
Y85620D02*
X135900Y86787D01*
X132401Y87903D02*
Y89736D01*
X133734Y88736D01*
Y89236D01*
X133900Y89569D01*
X134067Y89736D01*
X134567Y89903D01*
X134900D01*
X135400Y89736D01*
X135733Y89403D01*
X135900Y88903D01*
Y88403D01*
X135733Y87903D01*
X135567Y87736D01*
X135233Y87570D01*
X95400Y151699D02*
Y148200D01*
Y151699D02*
X96900D01*
X97400Y151533D01*
X97566Y151366D01*
X97733Y151033D01*
Y150699D01*
X97566Y150366D01*
X97400Y150200D01*
X96900Y150033D01*
X95400D01*
X96566D02*
X97733Y148200D01*
X98683Y150866D02*
Y151033D01*
X98849Y151366D01*
X99016Y151533D01*
X99349Y151699D01*
X100016D01*
X100349Y151533D01*
X100516Y151366D01*
X100682Y151033D01*
Y150699D01*
X100516Y150366D01*
X100182Y149866D01*
X98516Y148200D01*
X100849D01*
X95430Y146309D02*
Y142810D01*
Y146309D02*
X96930D01*
X97430Y146143D01*
X97596Y145976D01*
X97763Y145643D01*
Y145310D01*
X97596Y144976D01*
X97430Y144810D01*
X96930Y144643D01*
X95430D01*
X96596D02*
X97763Y142810D01*
X98546Y145643D02*
X98879Y145810D01*
X99379Y146309D01*
Y142810D01*
X152222Y152230D02*
X150055D01*
Y148731D01*
X152222D01*
X150055Y150564D02*
X151388D01*
X155304Y151397D02*
X155138Y151730D01*
X154804Y152064D01*
X154471Y152230D01*
X153805D01*
X153471Y152064D01*
X153138Y151730D01*
X152971Y151397D01*
X152805Y150897D01*
Y150064D01*
X152971Y149564D01*
X153138Y149231D01*
X153471Y148898D01*
X153805Y148731D01*
X154471D01*
X154804Y148898D01*
X155138Y149231D01*
X155304Y149564D01*
X158287Y152230D02*
X156621D01*
X156454Y150731D01*
X156621Y150897D01*
X157120Y151064D01*
X157620D01*
X158120Y150897D01*
X158454Y150564D01*
X158620Y150064D01*
Y149731D01*
X158454Y149231D01*
X158120Y148898D01*
X157620Y148731D01*
X157120D01*
X156621Y148898D01*
X156454Y149064D01*
X156287Y149397D01*
X167766Y36899D02*
X165600D01*
Y33400D01*
X167766D01*
X165600Y35233D02*
X166933D01*
X170849Y36066D02*
X170682Y36399D01*
X170349Y36733D01*
X170016Y36899D01*
X169349D01*
X169016Y36733D01*
X168683Y36399D01*
X168516Y36066D01*
X168349Y35566D01*
Y34733D01*
X168516Y34233D01*
X168683Y33900D01*
X169016Y33567D01*
X169349Y33400D01*
X170016D01*
X170349Y33567D01*
X170682Y33900D01*
X170849Y34233D01*
X173498Y36899D02*
X171832Y34566D01*
X174331D01*
X173498Y36899D02*
Y33400D01*
X45792Y48133D02*
X43626D01*
Y44633D01*
X45792D01*
X43626Y46466D02*
X44959D01*
X48875Y47299D02*
X48708Y47633D01*
X48375Y47966D01*
X48041Y48133D01*
X47375D01*
X47042Y47966D01*
X46709Y47633D01*
X46542Y47299D01*
X46375Y46799D01*
Y45966D01*
X46542Y45467D01*
X46709Y45133D01*
X47042Y44800D01*
X47375Y44633D01*
X48041D01*
X48375Y44800D01*
X48708Y45133D01*
X48875Y45467D01*
X50191Y48133D02*
X52024D01*
X51024Y46799D01*
X51524D01*
X51857Y46633D01*
X52024Y46466D01*
X52191Y45966D01*
Y45633D01*
X52024Y45133D01*
X51691Y44800D01*
X51191Y44633D01*
X50691D01*
X50191Y44800D01*
X50024Y44967D01*
X49858Y45300D01*
X46792Y150496D02*
X44626D01*
Y146996D01*
X46792D01*
X44626Y148829D02*
X45959D01*
X49875Y149663D02*
X49708Y149996D01*
X49375Y150329D01*
X49042Y150496D01*
X48375D01*
X48042Y150329D01*
X47708Y149996D01*
X47542Y149663D01*
X47375Y149163D01*
Y148330D01*
X47542Y147830D01*
X47708Y147496D01*
X48042Y147163D01*
X48375Y146996D01*
X49042D01*
X49375Y147163D01*
X49708Y147496D01*
X49875Y147830D01*
X51025Y149663D02*
Y149829D01*
X51191Y150162D01*
X51358Y150329D01*
X51691Y150496D01*
X52358D01*
X52691Y150329D01*
X52857Y150162D01*
X53024Y149829D01*
Y149496D01*
X52857Y149163D01*
X52524Y148663D01*
X50858Y146996D01*
X53191D01*
X137000Y189299D02*
Y185800D01*
Y189299D02*
X138166D01*
X138666Y189133D01*
X139000Y188799D01*
X139166Y188466D01*
X139333Y187966D01*
Y187133D01*
X139166Y186633D01*
X139000Y186300D01*
X138666Y185967D01*
X138166Y185800D01*
X137000D01*
X141116Y189299D02*
X140782Y189133D01*
X140449Y188799D01*
X140283Y188466D01*
X140116Y187966D01*
Y187133D01*
X140283Y186633D01*
X140449Y186300D01*
X140782Y185967D01*
X141116Y185800D01*
X141782D01*
X142116Y185967D01*
X142449Y186300D01*
X142615Y186633D01*
X142782Y187133D01*
Y187966D01*
X142615Y188466D01*
X142449Y188799D01*
X142116Y189133D01*
X141782Y189299D01*
X141116D01*
X143599D02*
X144432Y185800D01*
X145265Y189299D02*
X144432Y185800D01*
X145265Y189299D02*
X146098Y185800D01*
X146931Y189299D02*
X146098Y185800D01*
X147631Y189299D02*
Y185800D01*
Y189299D02*
X149964Y185800D01*
Y189299D02*
Y185800D01*
X152597Y189299D02*
X150930Y186966D01*
X153430D01*
X152597Y189299D02*
Y185800D01*
X176380Y139691D02*
Y136192D01*
Y139691D02*
X177546D01*
X178046Y139524D01*
X178379Y139191D01*
X178546Y138858D01*
X178713Y138358D01*
Y137525D01*
X178546Y137025D01*
X178379Y136691D01*
X178046Y136358D01*
X177546Y136192D01*
X176380D01*
X180496Y139691D02*
X180162Y139524D01*
X179829Y139191D01*
X179663Y138858D01*
X179496Y138358D01*
Y137525D01*
X179663Y137025D01*
X179829Y136691D01*
X180162Y136358D01*
X180496Y136192D01*
X181162D01*
X181495Y136358D01*
X181829Y136691D01*
X181995Y137025D01*
X182162Y137525D01*
Y138358D01*
X181995Y138858D01*
X181829Y139191D01*
X181495Y139524D01*
X181162Y139691D01*
X180496D01*
X182978D02*
X183812Y136192D01*
X184645Y139691D02*
X183812Y136192D01*
X184645Y139691D02*
X185478Y136192D01*
X186311Y139691D02*
X185478Y136192D01*
X187011Y139691D02*
Y136192D01*
Y139691D02*
X189344Y136192D01*
Y139691D02*
Y136192D01*
X190644Y139691D02*
X192476D01*
X191477Y138358D01*
X191976D01*
X192310Y138191D01*
X192476Y138024D01*
X192643Y137525D01*
Y137191D01*
X192476Y136691D01*
X192143Y136358D01*
X191643Y136192D01*
X191143D01*
X190644Y136358D01*
X190477Y136525D01*
X190310Y136858D01*
X136900Y16899D02*
Y13400D01*
Y16899D02*
X138066D01*
X138566Y16733D01*
X138900Y16399D01*
X139066Y16066D01*
X139233Y15566D01*
Y14733D01*
X139066Y14233D01*
X138900Y13900D01*
X138566Y13567D01*
X138066Y13400D01*
X136900D01*
X141016Y16899D02*
X140682Y16733D01*
X140349Y16399D01*
X140183Y16066D01*
X140016Y15566D01*
Y14733D01*
X140183Y14233D01*
X140349Y13900D01*
X140682Y13567D01*
X141016Y13400D01*
X141682D01*
X142016Y13567D01*
X142349Y13900D01*
X142516Y14233D01*
X142682Y14733D01*
Y15566D01*
X142516Y16066D01*
X142349Y16399D01*
X142016Y16733D01*
X141682Y16899D01*
X141016D01*
X143499D02*
X144332Y13400D01*
X145165Y16899D02*
X144332Y13400D01*
X145165Y16899D02*
X145998Y13400D01*
X146831Y16899D02*
X145998Y13400D01*
X147531Y16899D02*
Y13400D01*
Y16899D02*
X149864Y13400D01*
Y16899D02*
Y13400D01*
X150997Y16066D02*
Y16233D01*
X151164Y16566D01*
X151330Y16733D01*
X151663Y16899D01*
X152330D01*
X152663Y16733D01*
X152830Y16566D01*
X152997Y16233D01*
Y15900D01*
X152830Y15566D01*
X152497Y15066D01*
X150830Y13400D01*
X153163D01*
X6600Y64599D02*
Y61100D01*
Y64599D02*
X7766D01*
X8266Y64433D01*
X8600Y64099D01*
X8766Y63766D01*
X8933Y63266D01*
Y62433D01*
X8766Y61933D01*
X8600Y61600D01*
X8266Y61267D01*
X7766Y61100D01*
X6600D01*
X10716Y64599D02*
X10383Y64433D01*
X10049Y64099D01*
X9883Y63766D01*
X9716Y63266D01*
Y62433D01*
X9883Y61933D01*
X10049Y61600D01*
X10383Y61267D01*
X10716Y61100D01*
X11382D01*
X11716Y61267D01*
X12049Y61600D01*
X12216Y61933D01*
X12382Y62433D01*
Y63266D01*
X12216Y63766D01*
X12049Y64099D01*
X11716Y64433D01*
X11382Y64599D01*
X10716D01*
X13199D02*
X14032Y61100D01*
X14865Y64599D02*
X14032Y61100D01*
X14865Y64599D02*
X15698Y61100D01*
X16531Y64599D02*
X15698Y61100D01*
X17231Y64599D02*
Y61100D01*
Y64599D02*
X19564Y61100D01*
Y64599D02*
Y61100D01*
X20530Y63933D02*
X20864Y64099D01*
X21363Y64599D01*
Y61100D01*
X160300Y134466D02*
X160133Y134799D01*
X159800Y135133D01*
X159466Y135299D01*
X158800D01*
X158466Y135133D01*
X158133Y134799D01*
X157967Y134466D01*
X157800Y133966D01*
Y133133D01*
X157967Y132633D01*
X158133Y132300D01*
X158466Y131967D01*
X158800Y131800D01*
X159466D01*
X159800Y131967D01*
X160133Y132300D01*
X160300Y132633D01*
X163449Y134133D02*
X163282Y133633D01*
X162949Y133300D01*
X162449Y133133D01*
X162282D01*
X161783Y133300D01*
X161449Y133633D01*
X161283Y134133D01*
Y134300D01*
X161449Y134799D01*
X161783Y135133D01*
X162282Y135299D01*
X162449D01*
X162949Y135133D01*
X163282Y134799D01*
X163449Y134133D01*
Y133300D01*
X163282Y132466D01*
X162949Y131967D01*
X162449Y131800D01*
X162116D01*
X161616Y131967D01*
X161449Y132300D01*
X149927Y58898D02*
X149761Y59232D01*
X149428Y59565D01*
X149094Y59732D01*
X148428D01*
X148094Y59565D01*
X147761Y59232D01*
X147595Y58898D01*
X147428Y58398D01*
Y57565D01*
X147595Y57065D01*
X147761Y56732D01*
X148094Y56399D01*
X148428Y56232D01*
X149094D01*
X149428Y56399D01*
X149761Y56732D01*
X149927Y57065D01*
X151744Y59732D02*
X151244Y59565D01*
X151077Y59232D01*
Y58898D01*
X151244Y58565D01*
X151577Y58398D01*
X152244Y58232D01*
X152743Y58065D01*
X153077Y57732D01*
X153243Y57399D01*
Y56899D01*
X153077Y56565D01*
X152910Y56399D01*
X152410Y56232D01*
X151744D01*
X151244Y56399D01*
X151077Y56565D01*
X150911Y56899D01*
Y57399D01*
X151077Y57732D01*
X151410Y58065D01*
X151910Y58232D01*
X152577Y58398D01*
X152910Y58565D01*
X153077Y58898D01*
Y59232D01*
X152910Y59565D01*
X152410Y59732D01*
X151744D01*
X36069Y101504D02*
X35902Y101838D01*
X35569Y102171D01*
X35236Y102338D01*
X34569D01*
X34236Y102171D01*
X33902Y101838D01*
X33736Y101504D01*
X33569Y101004D01*
Y100171D01*
X33736Y99671D01*
X33902Y99338D01*
X34236Y99005D01*
X34569Y98838D01*
X35236D01*
X35569Y99005D01*
X35902Y99338D01*
X36069Y99671D01*
X39385Y102338D02*
X37718Y98838D01*
X37052Y102338D02*
X39385D01*
X55826Y94768D02*
X55659Y95102D01*
X55326Y95435D01*
X54992Y95602D01*
X54326D01*
X53993Y95435D01*
X53659Y95102D01*
X53493Y94768D01*
X53326Y94269D01*
Y93435D01*
X53493Y92936D01*
X53659Y92602D01*
X53993Y92269D01*
X54326Y92102D01*
X54992D01*
X55326Y92269D01*
X55659Y92602D01*
X55826Y92936D01*
X58808Y95102D02*
X58642Y95435D01*
X58142Y95602D01*
X57809D01*
X57309Y95435D01*
X56975Y94935D01*
X56809Y94102D01*
Y93269D01*
X56975Y92602D01*
X57309Y92269D01*
X57809Y92102D01*
X57975D01*
X58475Y92269D01*
X58808Y92602D01*
X58975Y93102D01*
Y93269D01*
X58808Y93769D01*
X58475Y94102D01*
X57975Y94269D01*
X57809D01*
X57309Y94102D01*
X56975Y93769D01*
X56809Y93269D01*
X133234Y78977D02*
X132901Y78810D01*
X132567Y78477D01*
X132401Y78144D01*
Y77477D01*
X132567Y77144D01*
X132901Y76811D01*
X133234Y76644D01*
X133734Y76477D01*
X134567D01*
X135067Y76644D01*
X135400Y76811D01*
X135733Y77144D01*
X135900Y77477D01*
Y78144D01*
X135733Y78477D01*
X135400Y78810D01*
X135067Y78977D01*
X132401Y81959D02*
Y80293D01*
X133900Y80127D01*
X133734Y80293D01*
X133567Y80793D01*
Y81293D01*
X133734Y81793D01*
X134067Y82126D01*
X134567Y82293D01*
X134900D01*
X135400Y82126D01*
X135733Y81793D01*
X135900Y81293D01*
Y80793D01*
X135733Y80293D01*
X135567Y80127D01*
X135233Y79960D01*
X123600Y100748D02*
X123433Y101082D01*
X123100Y101415D01*
X122767Y101582D01*
X122100D01*
X121767Y101415D01*
X121434Y101082D01*
X121267Y100748D01*
X121101Y100249D01*
Y99415D01*
X121267Y98915D01*
X121434Y98582D01*
X121767Y98249D01*
X122100Y98082D01*
X122767D01*
X123100Y98249D01*
X123433Y98582D01*
X123600Y98915D01*
X126250Y101582D02*
X124583Y99249D01*
X127083D01*
X126250Y101582D02*
Y98082D01*
X123600Y114495D02*
X123433Y114828D01*
X123100Y115161D01*
X122767Y115328D01*
X122100D01*
X121767Y115161D01*
X121434Y114828D01*
X121267Y114495D01*
X121101Y113995D01*
Y113162D01*
X121267Y112662D01*
X121434Y112329D01*
X121767Y111995D01*
X122100Y111829D01*
X122767D01*
X123100Y111995D01*
X123433Y112329D01*
X123600Y112662D01*
X124916Y115328D02*
X126749D01*
X125750Y113995D01*
X126250D01*
X126583Y113828D01*
X126749Y113662D01*
X126916Y113162D01*
Y112829D01*
X126749Y112329D01*
X126416Y111995D01*
X125916Y111829D01*
X125416D01*
X124916Y111995D01*
X124750Y112162D01*
X124583Y112495D01*
X134927Y73461D02*
X134761Y73795D01*
X134428Y74128D01*
X134094Y74295D01*
X133428D01*
X133095Y74128D01*
X132761Y73795D01*
X132595Y73461D01*
X132428Y72961D01*
Y72128D01*
X132595Y71628D01*
X132761Y71295D01*
X133095Y70962D01*
X133428Y70795D01*
X134094D01*
X134428Y70962D01*
X134761Y71295D01*
X134927Y71628D01*
X136077Y73461D02*
Y73628D01*
X136244Y73961D01*
X136410Y74128D01*
X136744Y74295D01*
X137410D01*
X137743Y74128D01*
X137910Y73961D01*
X138077Y73628D01*
Y73295D01*
X137910Y72961D01*
X137577Y72462D01*
X135911Y70795D01*
X138243D01*
X105048Y165866D02*
X104882Y166199D01*
X104548Y166533D01*
X104215Y166699D01*
X103548D01*
X103215Y166533D01*
X102882Y166199D01*
X102715Y165866D01*
X102549Y165366D01*
Y164533D01*
X102715Y164033D01*
X102882Y163700D01*
X103215Y163367D01*
X103548Y163200D01*
X104215D01*
X104548Y163367D01*
X104882Y163700D01*
X105048Y164033D01*
X106031Y166033D02*
X106365Y166199D01*
X106864Y166699D01*
Y163200D01*
X110597Y166699D02*
X108931D01*
X108764Y165200D01*
X108931Y165366D01*
X109431Y165533D01*
X109930D01*
X110430Y165366D01*
X110764Y165033D01*
X110930Y164533D01*
Y164200D01*
X110764Y163700D01*
X110430Y163367D01*
X109930Y163200D01*
X109431D01*
X108931Y163367D01*
X108764Y163533D01*
X108597Y163866D01*
X162114Y100582D02*
X161781Y100415D01*
X161447Y100082D01*
X161281Y99749D01*
Y99082D01*
X161447Y98749D01*
X161781Y98416D01*
X162114Y98249D01*
X162614Y98082D01*
X163447D01*
X163947Y98249D01*
X164280Y98416D01*
X164613Y98749D01*
X164780Y99082D01*
Y99749D01*
X164613Y100082D01*
X164280Y100415D01*
X163947Y100582D01*
X161947Y101565D02*
X161781Y101898D01*
X161281Y102398D01*
X164780D01*
X162114Y104298D02*
X161947D01*
X161614Y104464D01*
X161447Y104631D01*
X161281Y104964D01*
Y105631D01*
X161447Y105964D01*
X161614Y106131D01*
X161947Y106297D01*
X162280D01*
X162614Y106131D01*
X163114Y105797D01*
X164780Y104131D01*
Y106464D01*
X101699Y37633D02*
X101533Y37966D01*
X101200Y38299D01*
X100866Y38466D01*
X100200D01*
X99866Y38299D01*
X99533Y37966D01*
X99367Y37633D01*
X99200Y37133D01*
Y36300D01*
X99367Y35800D01*
X99533Y35467D01*
X99866Y35133D01*
X100200Y34967D01*
X100866D01*
X101200Y35133D01*
X101533Y35467D01*
X101699Y35800D01*
X102683Y37799D02*
X103016Y37966D01*
X103516Y38466D01*
Y34967D01*
X105249Y37799D02*
X105582Y37966D01*
X106082Y38466D01*
Y34967D01*
X119899Y131476D02*
X119733Y131810D01*
X119400Y132143D01*
X119066Y132309D01*
X118400D01*
X118067Y132143D01*
X117733Y131810D01*
X117567Y131476D01*
X117400Y130976D01*
Y130143D01*
X117567Y129643D01*
X117733Y129310D01*
X118067Y128977D01*
X118400Y128810D01*
X119066D01*
X119400Y128977D01*
X119733Y129310D01*
X119899Y129643D01*
X120883Y131643D02*
X121216Y131810D01*
X121716Y132309D01*
Y128810D01*
X124449Y132309D02*
X123949Y132143D01*
X123615Y131643D01*
X123449Y130810D01*
Y130310D01*
X123615Y129477D01*
X123949Y128977D01*
X124449Y128810D01*
X124782D01*
X125282Y128977D01*
X125615Y129477D01*
X125782Y130310D01*
Y130810D01*
X125615Y131643D01*
X125282Y132143D01*
X124782Y132309D01*
X124449D01*
X134927Y66998D02*
X134761Y67332D01*
X134428Y67665D01*
X134094Y67831D01*
X133428D01*
X133095Y67665D01*
X132761Y67332D01*
X132595Y66998D01*
X132428Y66498D01*
Y65665D01*
X132595Y65165D01*
X132761Y64832D01*
X133095Y64499D01*
X133428Y64332D01*
X134094D01*
X134428Y64499D01*
X134761Y64832D01*
X134927Y65165D01*
X135911Y67165D02*
X136244Y67332D01*
X136744Y67831D01*
Y64332D01*
M02*
