G04*
G04 #@! TF.GenerationSoftware,Altium Limited,Altium Designer,20.0.11 (256)*
G04*
G04 Layer_Physical_Order=1*
G04 Layer_Color=255*
%FSLAX25Y25*%
%MOIN*%
G70*
G01*
G75*
%ADD10C,0.01000*%
%ADD12C,0.00600*%
%ADD17R,0.03780X0.03150*%
%ADD18O,0.07000X0.01300*%
%ADD19R,0.05500X0.05300*%
%ADD20R,0.05300X0.05500*%
%ADD21R,0.05906X0.09843*%
%ADD22R,0.03000X0.03740*%
%ADD23R,0.03740X0.03000*%
%ADD24R,0.03937X0.03000*%
%ADD25R,0.07874X0.20472*%
G04:AMPARAMS|DCode=26|XSize=15.75mil|YSize=78.74mil|CornerRadius=0mil|HoleSize=0mil|Usage=FLASHONLY|Rotation=45.000|XOffset=0mil|YOffset=0mil|HoleType=Round|Shape=Rectangle|*
%AMROTATEDRECTD26*
4,1,4,0.02227,-0.03341,-0.03341,0.02227,-0.02227,0.03341,0.03341,-0.02227,0.02227,-0.03341,0.0*
%
%ADD26ROTATEDRECTD26*%

G04:AMPARAMS|DCode=27|XSize=43.31mil|YSize=39.37mil|CornerRadius=0mil|HoleSize=0mil|Usage=FLASHONLY|Rotation=45.000|XOffset=0mil|YOffset=0mil|HoleType=Round|Shape=Rectangle|*
%AMROTATEDRECTD27*
4,1,4,-0.00139,-0.02923,-0.02923,-0.00139,0.00139,0.02923,0.02923,0.00139,-0.00139,-0.02923,0.0*
%
%ADD27ROTATEDRECTD27*%

%ADD53C,0.02500*%
%ADD54C,0.01500*%
%ADD55C,0.03000*%
%ADD56C,0.02000*%
%ADD57C,0.04000*%
%ADD58C,0.02800*%
%ADD59C,0.06000*%
%ADD60C,0.01200*%
%ADD61R,0.05948X0.07468*%
%ADD62C,0.19685*%
%ADD63O,0.09843X0.06693*%
G04:AMPARAMS|DCode=64|XSize=47.24mil|YSize=70.87mil|CornerRadius=0mil|HoleSize=0mil|Usage=FLASHONLY|Rotation=45.000|XOffset=0mil|YOffset=0mil|HoleType=Round|Shape=Round|*
%AMOVALD64*
21,1,0.02362,0.04724,0.00000,0.00000,135.0*
1,1,0.04724,0.00835,-0.00835*
1,1,0.04724,-0.00835,0.00835*
%
%ADD64OVALD64*%

%ADD65C,0.02362*%
%ADD66C,0.06000*%
%ADD67R,0.06000X0.06000*%
%ADD68R,0.06000X0.06000*%
%ADD69O,0.12598X0.18000*%
%ADD70O,0.07087X0.09843*%
%ADD71O,0.06693X0.09843*%
%ADD72R,0.06700X0.09800*%
%ADD73O,0.18000X0.12598*%
%ADD74O,0.09843X0.07087*%
%ADD75R,0.09800X0.06700*%
%ADD76C,0.02000*%
%ADD77C,0.02400*%
G36*
X31429Y174507D02*
X39750Y174510D01*
X41570Y172690D01*
Y169230D01*
X36707Y169230D01*
X31429Y174507D01*
D02*
G37*
D10*
X191743Y180200D02*
G03*
X191316Y183349I-11842J0D01*
G01*
X183049Y191616D02*
G03*
X191743Y180200I-3149J-11416D01*
G01*
X162730Y144710D02*
G03*
X160750Y145530I-1980J-1980D01*
G01*
X162730Y144710D02*
G03*
X160750Y145530I-1980J-1980D01*
G01*
X145428Y149996D02*
G03*
X135928Y152176I-5000J0D01*
G01*
X142675Y145530D02*
G03*
X145428Y149996I-2247J4467D01*
G01*
X195725Y130570D02*
G03*
X188570Y134665I-7155J-4204D01*
G01*
X183168D02*
G03*
X178584Y119448I0J-8299D01*
G01*
X188570Y118067D02*
G03*
X195725Y122162I0J8299D01*
G01*
X178584Y119448D02*
G03*
X176578Y119824I-2006J-5168D01*
G01*
X179835Y118766D02*
G03*
X183168Y118067I3333J7600D01*
G01*
X182122Y114280D02*
G03*
X179835Y118766I-5544J0D01*
G01*
X179849Y109804D02*
G03*
X182122Y114280I-3271J4476D01*
G01*
X182622Y104831D02*
G03*
X179849Y109804I-5847J0D01*
G01*
X173822Y119824D02*
G03*
X170551Y109804I0J-5544D01*
G01*
D02*
G03*
X167799Y104341I3074J-4973D01*
G01*
X167180Y139100D02*
G03*
X166360Y141080I-2800J0D01*
G01*
X167180Y139100D02*
G03*
X166360Y141080I-2800J0D01*
G01*
X135065Y189670D02*
G03*
X132601Y195571I-8299J0D01*
G01*
X120931D02*
G03*
X118467Y189670I5835J-5901D01*
G01*
X120530Y178792D02*
G03*
X135065Y184268I6236J5476D01*
G01*
X118467D02*
G03*
X118486Y183700I8299J0D01*
G01*
X135928Y147817D02*
G03*
X138964Y145216I4500J2180D01*
G01*
D02*
G03*
X138274Y144710I1289J-2486D01*
G01*
X138964Y145216D02*
G03*
X138274Y144710I1289J-2486D01*
G01*
X104400Y168938D02*
G03*
X108830Y170117I831J5787D01*
G01*
Y182483D02*
G03*
X100900Y181802I-3599J-4608D01*
G01*
X97400Y152417D02*
G03*
X98220Y150437I2800J0D01*
G01*
X97400Y152417D02*
G03*
X98220Y150437I2800J0D01*
G01*
X96000Y150500D02*
G03*
X95121Y152621I-3000J0D01*
G01*
X96000Y150500D02*
G03*
X95120Y152622I-3000J0D01*
G01*
X132048Y138484D02*
G03*
X131228Y136504I1980J-1980D01*
G01*
X132048Y138484D02*
G03*
X131228Y136504I1980J-1980D01*
G01*
X124260Y139621D02*
G03*
X123440Y141601I-2800J0D01*
G01*
X124260Y139621D02*
G03*
X123440Y141601I-2800J0D01*
G01*
X137408Y106472D02*
G03*
X138228Y108452I-1980J1980D01*
G01*
X137408Y106472D02*
G03*
X138228Y108452I-1980J1980D01*
G01*
X123440Y113710D02*
G03*
X124260Y115690I-1980J1980D01*
G01*
X123440Y113710D02*
G03*
X124260Y115690I-1980J1980D01*
G01*
X95156Y142560D02*
G03*
X96000Y144647I-2156J2087D01*
G01*
X95156Y142560D02*
G03*
X96000Y144647I-2156J2087D01*
G01*
X115500Y117840D02*
G03*
X112350Y120990I-3150J0D01*
G01*
X115228Y116560D02*
G03*
X115500Y117840I-2878J1280D01*
G01*
X115478Y115648D02*
G03*
X115228Y116560I-3128J-368D01*
G01*
X107407Y124414D02*
G03*
X108286Y126535I-2121J2121D01*
G01*
X107406Y124413D02*
G03*
X108286Y126535I-2120J2122D01*
G01*
X95120Y110600D02*
G03*
X95382Y110314I3444J2896D01*
G01*
X95120Y110600D02*
G03*
X95384Y110312I3444J2896D01*
G01*
X183168Y82933D02*
G03*
X182600Y82914I0J-8299D01*
G01*
X180702Y100500D02*
G03*
X182622Y104831I-3927J4331D01*
G01*
Y96169D02*
G03*
X180702Y100500I-5847J0D01*
G01*
X181383Y92570D02*
G03*
X182622Y96169I-4608J3599D01*
G01*
X195725Y78838D02*
G03*
X188570Y82933I-7155J-4204D01*
G01*
Y66335D02*
G03*
X195725Y70430I0J8299D01*
G01*
X177692Y80870D02*
G03*
X183168Y66335I5476J-6236D01*
G01*
X164420Y97820D02*
G03*
X166400Y97000I1980J1980D01*
G01*
X164420Y97820D02*
G03*
X166400Y97000I1980J1980D01*
G01*
X167838D02*
G03*
X167900Y94983I5787J-831D01*
G01*
X160180Y103220D02*
G03*
X161000Y101240I2800J0D01*
G01*
X160180Y103220D02*
G03*
X161000Y101240I2800J0D01*
G01*
X179380Y52232D02*
G03*
X169880Y54412I-5000J0D01*
G01*
Y50053D02*
G03*
X179380Y52232I4500J2179D01*
G01*
X191615Y19700D02*
G03*
X182748Y8237I-11842J0D01*
G01*
X191235Y16724D02*
G03*
X191615Y19700I-11463J2976D01*
G01*
X96962Y90067D02*
G03*
X96990Y89573I4500J0D01*
G01*
X125822Y83414D02*
G03*
X125753Y84154I-4000J0D01*
G01*
X96990Y87705D02*
G03*
X103610Y83736I4500J0D01*
G01*
X96962Y90067D02*
G03*
X96990Y89573I4500J0D01*
G01*
X113532Y81316D02*
G03*
X113979Y81172I1299J3250D01*
G01*
X109301Y81410D02*
G03*
X110076Y81316I775J3156D01*
G01*
X103610Y83736D02*
G03*
X106650Y81410I3040J824D01*
G01*
X116779Y71000D02*
G03*
X114656Y70120I0J-3000D01*
G01*
X116779Y71000D02*
G03*
X114657Y70121I0J-3000D01*
G01*
X127400Y62332D02*
G03*
X127228Y63332I-3000J0D01*
G01*
X126520Y59078D02*
G03*
X127400Y61200I-2120J2122D01*
G01*
X126521Y59079D02*
G03*
X127400Y61200I-2121J2121D01*
G01*
X123900Y57700D02*
G03*
X126023Y58580I0J3000D01*
G01*
X123900Y57700D02*
G03*
X126021Y58579I0J3000D01*
G01*
X135065Y15732D02*
G03*
X119848Y20316I-8299J0D01*
G01*
X132499Y4329D02*
G03*
X135065Y10330I-5733J6001D01*
G01*
X119848Y20316D02*
G03*
X120223Y22322I-5168J2006D01*
G01*
X119166Y19065D02*
G03*
X118467Y15732I7600J-3333D01*
G01*
Y10330D02*
G03*
X121033Y4329I8299J0D01*
G01*
X113779Y69243D02*
G03*
X112900Y67121I2121J-2121D01*
G01*
X113780Y69244D02*
G03*
X112900Y67121I2120J-2122D01*
G01*
Y62700D02*
G03*
X113779Y60579I3000J0D01*
G01*
X112900Y62700D02*
G03*
X113780Y60577I3000J0D01*
G01*
X115778Y58580D02*
G03*
X117900Y57700I2122J2120D01*
G01*
X115779Y58579D02*
G03*
X117900Y57700I2121J2121D01*
G01*
X98220Y63872D02*
G03*
X97400Y61892I1980J-1980D01*
G01*
X98220Y63872D02*
G03*
X97400Y61892I1980J-1980D01*
G01*
X120223Y25078D02*
G03*
X110204Y28349I-5544J0D01*
G01*
D02*
G03*
X104400Y31062I-4973J-3074D01*
G01*
X110204Y19051D02*
G03*
X119166Y19065I4476J3271D01*
G01*
X100900Y18198D02*
G03*
X110204Y19051I4331J3927D01*
G01*
X100900Y181802D02*
G03*
X91596Y180949I-4331J-3927D01*
G01*
D02*
G03*
X82634Y180935I-4476J-3271D01*
G01*
X83333Y189670D02*
G03*
X80870Y195571I-8299J0D01*
G01*
X82634Y180935D02*
G03*
X83333Y184268I-7600J3333D01*
G01*
X81952Y179684D02*
G03*
X81577Y177678I5168J-2006D01*
G01*
X91596Y171651D02*
G03*
X97400Y168938I4973J3074D01*
G01*
X81577Y174922D02*
G03*
X91596Y171651I5544J0D01*
G01*
X69199Y195571D02*
G03*
X66735Y189670I5835J-5901D01*
G01*
Y184268D02*
G03*
X81952Y179684I8299J0D01*
G01*
X60821Y175575D02*
G03*
X56932Y177186I-3889J-3889D01*
G01*
X60821Y175575D02*
G03*
X56932Y177186I-3889J-3889D01*
G01*
X82321Y155997D02*
G03*
X80237Y155155I0J-3000D01*
G01*
X82321Y155997D02*
G03*
X80237Y155155I0J-3000D01*
G01*
X80237D02*
G03*
X78828Y157569I-5299J-1475D01*
G01*
X80237Y155155D02*
G03*
X78828Y157569I-5299J-1475D01*
G01*
X92626Y155117D02*
G03*
X90504Y155997I-2122J-2120D01*
G01*
X92625Y155118D02*
G03*
X90504Y155997I-2121J-2121D01*
G01*
X71367Y127590D02*
G03*
X71836Y127525I653J3030D01*
G01*
X69439Y147573D02*
G03*
X69789Y145643I5500J0D01*
G01*
X71367Y127590D02*
G03*
X71836Y127525I653J3030D01*
G01*
X70885Y127735D02*
G03*
X71367Y127590I1135J2885D01*
G01*
X70885Y127735D02*
G03*
X71367Y127590I1135J2885D01*
G01*
X71836Y125967D02*
G03*
X79836Y125967I4000J0D01*
G01*
X85902Y119328D02*
G03*
X84350Y119990I-1552J-1488D01*
G01*
X78650D02*
G03*
X76856Y119024I0J-2150D01*
G01*
X59800Y144041D02*
G03*
X58980Y146021I-2800J0D01*
G01*
X59800Y144041D02*
G03*
X58980Y146021I-2800J0D01*
G01*
X52626Y136810D02*
G03*
X45446Y132310I-5000J0D01*
G01*
X49805D02*
G03*
X52626Y136810I-2179J4500D01*
G01*
X31307Y191202D02*
G03*
X30029Y194286I-4362J0D01*
G01*
X38089Y186366D02*
G03*
X30678Y183844I-3085J-3085D01*
G01*
X23860Y188117D02*
G03*
X31307Y191202I3085J3085D01*
G01*
X30678Y183844D02*
G03*
X25107Y184270I-2968J-2177D01*
G01*
X30678Y183844D02*
G03*
X25107Y184270I-2968J-2177D01*
G01*
X21847Y195571D02*
G03*
X22190Y189787I3427J-2699D01*
G01*
X41037Y181611D02*
G03*
X39759Y184696I-4362J0D01*
G01*
X31320Y180946D02*
G03*
X31920Y180197I3684J2336D01*
G01*
X33590Y178527D02*
G03*
X41037Y181611I3085J3085D01*
G01*
X35587Y177186D02*
G03*
X34403Y177057I0J-5500D01*
G01*
X30662Y179467D02*
G03*
X31320Y180946I-2952J2200D01*
G01*
X25107Y184270D02*
G03*
X24331Y180208I2603J-2603D01*
G01*
X30662Y179467D02*
G03*
X31320Y180946I-2952J2200D01*
G01*
X25107Y184270D02*
G03*
X24331Y180208I2603J-2603D01*
G01*
X19178Y167928D02*
G03*
X19488Y168281I-2603J2603D01*
G01*
X19178Y167928D02*
G03*
X19488Y168281I-2603J2603D01*
G01*
X8454Y176052D02*
G03*
X4475Y177237I-3085J-3085D01*
G01*
X18034Y173911D02*
G03*
X13972Y173134I-1459J-3380D01*
G01*
X18034Y173911D02*
G03*
X13972Y173134I-1459J-3380D01*
G01*
D02*
G03*
X14397Y167563I2603J-2603D01*
G01*
X17296Y166921D02*
G03*
X19178Y167928I-721J3610D01*
G01*
X17296Y166921D02*
G03*
X19178Y167928I-721J3610D01*
G01*
X18045Y166322D02*
G03*
X17296Y166921I-3085J-3085D01*
G01*
X13972Y173134D02*
G03*
X14397Y167563I2603J-2603D01*
G01*
Y167563D02*
G03*
X11876Y160153I563J-4326D01*
G01*
X11402Y171297D02*
G03*
X10125Y174381I-4362J0D01*
G01*
X4475Y167769D02*
G03*
X11402Y171297I2565J3528D01*
G01*
X20993Y161567D02*
G03*
X19715Y164652I-4362J0D01*
G01*
X13546Y158483D02*
G03*
X20993Y161567I3085J3085D01*
G01*
X31461Y144598D02*
G03*
X13832Y134265I-11842J0D01*
G01*
X21324Y132879D02*
G03*
X31461Y144598I-1706J11719D01*
G01*
X25031Y125966D02*
G03*
X21324Y132879I-8299J0D01*
G01*
X22208Y119730D02*
G03*
X25031Y125966I-5476J6236D01*
G01*
X11330Y134265D02*
G03*
X4475Y130644I0J-8299D01*
G01*
X92730Y94756D02*
G03*
X93902Y97584I-2828J2828D01*
G01*
X92730Y94756D02*
G03*
X93902Y97584I-2828J2828D01*
G01*
X89751Y92837D02*
G03*
X91930Y93956I-649J3947D01*
G01*
X87427Y91567D02*
G03*
X89418Y92504I-307J3235D01*
G01*
X87427Y91567D02*
G03*
X89418Y92504I-307J3235D01*
G01*
X87500Y89680D02*
G03*
X87228Y90960I-3150J0D01*
G01*
D02*
G03*
X87427Y91567I-2878J1280D01*
G01*
X87500Y87120D02*
G03*
X87228Y88400I-3150J0D01*
G01*
D02*
G03*
X87500Y89680I-2878J1280D01*
G01*
X87228Y85840D02*
G03*
X87500Y87120I-2878J1280D01*
G01*
Y84560D02*
G03*
X87228Y85840I-3150J0D01*
G01*
X84350Y81410D02*
G03*
X87500Y84560I0J3150D01*
G01*
X85960Y77513D02*
G03*
X83837Y78393I-2122J-2120D01*
G01*
X85958Y77515D02*
G03*
X83837Y78393I-2121J-2121D01*
G01*
X88530Y73700D02*
G03*
X87651Y75823I-3000J0D01*
G01*
X87652Y66079D02*
G03*
X88530Y68200I-2121J2121D01*
G01*
Y73700D02*
G03*
X87652Y75821I-3000J0D01*
G01*
X87651Y66078D02*
G03*
X88530Y68200I-2120J2122D01*
G01*
X84363Y64032D02*
G03*
X86484Y64911I0J3000D01*
G01*
X84363Y64032D02*
G03*
X86485Y64912I0J3000D01*
G01*
X76410Y82346D02*
G03*
X78650Y81410I2240J2214D01*
G01*
X81930Y78393D02*
G03*
X81443Y78354I0J-3000D01*
G01*
X81930Y78393D02*
G03*
X81443Y78354I0J-3000D01*
G01*
X67410Y79260D02*
G03*
X69390Y80080I0J2800D01*
G01*
X67410Y79260D02*
G03*
X69390Y80080I0J2800D01*
G01*
X62488Y78354D02*
G03*
X62001Y78393I-487J-2960D01*
G01*
X62488Y78354D02*
G03*
X62001Y78393I-487J-2960D01*
G01*
X97400Y31062D02*
G03*
X92970Y29882I-831J-5787D01*
G01*
Y17517D02*
G03*
X100900Y18198I3599J4608D01*
G01*
X83333Y15732D02*
G03*
X83314Y16300I-8299J0D01*
G01*
X80767Y4329D02*
G03*
X83333Y10330I-5733J6001D01*
G01*
X72747Y42133D02*
G03*
X69927Y46633I-5000J0D01*
G01*
X65568D02*
G03*
X72747Y42133I2179J-4500D01*
G01*
X81270Y21208D02*
G03*
X66735Y15732I-6236J-5476D01*
G01*
Y10330D02*
G03*
X69301Y4329I8299J0D01*
G01*
X40134Y102780D02*
G03*
X38154Y103600I-1980J-1980D01*
G01*
X40134Y102780D02*
G03*
X38154Y103600I-1980J-1980D01*
G01*
X52800Y92810D02*
G03*
X53620Y90830I2800J0D01*
G01*
X52800Y92810D02*
G03*
X53620Y90830I2800J0D01*
G01*
X32062Y103600D02*
G03*
X32122Y104431I-5787J831D01*
G01*
D02*
G03*
X30882Y108030I-5847J0D01*
G01*
X18518D02*
G03*
X19198Y100100I4608J-3599D01*
G01*
X32122Y95769D02*
G03*
X32062Y96600I-5847J0D01*
G01*
X16732Y117667D02*
G03*
X17300Y117686I0J8299D01*
G01*
X4475Y121288D02*
G03*
X11330Y117667I6855J4678D01*
G01*
X29349Y90796D02*
G03*
X32122Y95769I-3074J4973D01*
G01*
X19198Y100100D02*
G03*
X20051Y90796I3927J-4331D01*
G01*
X31622Y86320D02*
G03*
X29349Y90796I-5544J0D01*
G01*
X20051D02*
G03*
X20065Y81834I3271J-4476D01*
G01*
X60093Y78393D02*
G03*
X57972Y77515I0J-3000D01*
G01*
X57680Y86770D02*
G03*
X58380Y86260I1980J1980D01*
G01*
X57680Y86770D02*
G03*
X58380Y86260I1980J1980D01*
G01*
X60093Y78393D02*
G03*
X57971Y77513I0J-3000D01*
G01*
X55400Y68200D02*
G03*
X56280Y66078I3000J0D01*
G01*
Y75823D02*
G03*
X55400Y73700I2120J-2122D01*
G01*
X56279Y75821D02*
G03*
X55400Y73700I2121J-2121D01*
G01*
Y68200D02*
G03*
X56279Y66079I3000J0D01*
G01*
X26078Y80777D02*
G03*
X31622Y86320I0J5544D01*
G01*
X52934Y80080D02*
G03*
X54914Y79260I1980J1980D01*
G01*
X52934Y80080D02*
G03*
X54914Y79260I1980J1980D01*
G01*
X57446Y64911D02*
G03*
X59568Y64032I2121J2121D01*
G01*
X57445Y64912D02*
G03*
X59568Y64032I2122J2120D01*
G01*
X21316Y81152D02*
G03*
X23322Y80777I2006J5168D01*
G01*
X25031Y74234D02*
G03*
X21316Y81152I-8299J0D01*
G01*
X20065Y81834D02*
G03*
X16732Y82533I-3333J-7600D01*
G01*
Y65935D02*
G03*
X25031Y74234I0J8299D01*
G01*
X11330Y82533D02*
G03*
X4475Y78912I0J-8299D01*
G01*
Y69556D02*
G03*
X11330Y65935I6855J4678D01*
G01*
X31461Y19700D02*
G03*
X8018Y17316I-11842J0D01*
G01*
X17235Y8100D02*
G03*
X31461Y19700I2384J11600D01*
G01*
X191700Y181200D02*
X193465D01*
X191647Y181700D02*
X192965D01*
X191732Y180700D02*
X193965D01*
X191476Y182700D02*
X191965D01*
X191572Y182200D02*
X192465D01*
X191700Y179200D02*
X195465D01*
X191647Y178700D02*
X195725D01*
X191572Y178200D02*
X195725D01*
X191743Y180200D02*
X194465D01*
X191732Y179700D02*
X194965D01*
X179095Y195571D02*
X183049Y191616D01*
X181900Y191872D02*
Y192765D01*
X182400Y191776D02*
Y192265D01*
X191316Y183349D02*
X195725Y178940D01*
X191476Y177700D02*
X195725D01*
X191356Y177200D02*
X195725D01*
X190854Y175700D02*
X195725D01*
X190635Y175200D02*
X195725D01*
X190388Y174700D02*
X195725D01*
X191214Y176700D02*
X195725D01*
X191047Y176200D02*
X195725D01*
X189452Y173200D02*
X195725D01*
X189065Y172700D02*
X195725D01*
X188632Y172200D02*
X195725D01*
X190110Y174200D02*
X195725D01*
X189799Y173700D02*
X195725D01*
X186971Y170700D02*
X195725D01*
X186244Y170200D02*
X195725D01*
X185377Y169700D02*
X195725D01*
X188146Y171700D02*
X195725D01*
X187597Y171200D02*
X195725D01*
X162069Y145200D02*
X195725D01*
X162740Y144700D02*
X195725D01*
X184287Y169200D02*
X195725D01*
X182728Y168700D02*
X195725D01*
X178400Y191947D02*
Y195571D01*
X177900Y191872D02*
Y195571D01*
X178900Y192000D02*
Y195571D01*
X176900Y191656D02*
Y195571D01*
X177400Y191776D02*
Y195571D01*
X175900Y191347D02*
Y195571D01*
X175400Y191154D02*
Y195571D01*
X176400Y191514D02*
Y195571D01*
X174400Y190688D02*
Y195571D01*
X174900Y190935D02*
Y195571D01*
X173400Y190099D02*
Y195571D01*
X172900Y189752D02*
Y195571D01*
X173900Y190410D02*
Y195571D01*
X171900Y188932D02*
Y195571D01*
X172400Y189365D02*
Y195571D01*
X162400Y144992D02*
Y195571D01*
X168400Y183028D02*
Y195571D01*
X160400Y145530D02*
Y195571D01*
X161900Y145283D02*
Y195571D01*
X180900Y192000D02*
Y193765D01*
X180400Y192032D02*
Y194265D01*
X181400Y191947D02*
Y193265D01*
X179400Y192032D02*
Y195265D01*
X179900Y192043D02*
Y194765D01*
X170900Y187897D02*
Y195571D01*
X171400Y188446D02*
Y195571D01*
X170400Y187271D02*
Y195571D01*
X169900Y186544D02*
Y195571D01*
X168900Y184587D02*
Y195571D01*
X169400Y185677D02*
Y195571D01*
X160900Y145526D02*
Y195571D01*
X161400Y145454D02*
Y195571D01*
X192900Y133446D02*
Y181765D01*
X192400Y133728D02*
Y182265D01*
X193400Y133115D02*
Y181265D01*
X191900Y133968D02*
Y182765D01*
X191400Y134168D02*
Y177372D01*
X195400Y131080D02*
Y179265D01*
X194900Y131733D02*
Y179765D01*
X195725Y130570D02*
Y178940D01*
X193900Y132727D02*
Y180765D01*
X194400Y132272D02*
Y180265D01*
X188900Y134658D02*
Y172503D01*
X188400Y134665D02*
Y171954D01*
X187900Y134665D02*
Y171468D01*
X187400Y134665D02*
Y171035D01*
X186900Y134665D02*
Y170648D01*
X190900Y134331D02*
Y175813D01*
X190400Y134461D02*
Y174723D01*
X189900Y134558D02*
Y173856D01*
X189400Y134623D02*
Y173129D01*
X186400Y134665D02*
Y170301D01*
X185900Y134665D02*
Y169990D01*
X185400Y134665D02*
Y169712D01*
X184900Y134665D02*
Y169465D01*
X184400Y134665D02*
Y169246D01*
X183900Y134665D02*
Y169053D01*
X183400Y134665D02*
Y168886D01*
X182900Y134661D02*
Y168744D01*
X182400Y134629D02*
Y168624D01*
X181900Y134568D02*
Y168528D01*
X164740Y142700D02*
X195725D01*
X164240Y143200D02*
X195725D01*
X165240Y142200D02*
X195725D01*
X163240Y144200D02*
X195725D01*
X163740Y143700D02*
X195725D01*
X165740Y141700D02*
X195725D01*
X166240Y141200D02*
X195725D01*
X181400Y134475D02*
Y168453D01*
X180900Y134349D02*
Y168400D01*
X171400Y119266D02*
Y171954D01*
X170900Y118991D02*
Y172503D01*
X171900Y119480D02*
Y171468D01*
X169900Y118198D02*
Y173856D01*
X170400Y118641D02*
Y173129D01*
X168900Y116830D02*
Y175813D01*
X168400Y115434D02*
Y177372D01*
X169400Y117623D02*
Y174723D01*
X167400Y104740D02*
Y195571D01*
X167900Y106017D02*
Y195571D01*
X164400Y143040D02*
Y195571D01*
X163900Y143540D02*
Y195571D01*
X164900Y142540D02*
Y195571D01*
X162900Y144540D02*
Y195571D01*
X163400Y144040D02*
Y195571D01*
X166400Y141039D02*
Y195571D01*
X166900Y140320D02*
Y195571D01*
X165400Y142040D02*
Y195571D01*
X165900Y141540D02*
Y195571D01*
X180400Y134190D02*
Y168368D01*
X179400Y133760D02*
Y168368D01*
X179900Y133994D02*
Y168358D01*
X178400Y133159D02*
Y168453D01*
X178900Y133483D02*
Y168400D01*
X177400Y132333D02*
Y168624D01*
X177900Y132779D02*
Y168528D01*
X176400Y131169D02*
Y168886D01*
X176900Y131805D02*
Y168744D01*
X175400Y129287D02*
Y169246D01*
X174900Y127083D02*
Y169465D01*
X175900Y130372D02*
Y169053D01*
X174400Y119824D02*
Y169712D01*
X162730Y144710D02*
X166360Y141080D01*
X173400Y119807D02*
Y170301D01*
X173900Y119824D02*
Y169990D01*
X172400Y119638D02*
Y171035D01*
X172900Y119746D02*
Y170648D01*
X134492Y192700D02*
X181965D01*
X134277Y193200D02*
X181465D01*
X134670Y192200D02*
X182465D01*
X133720Y194200D02*
X180465D01*
X134021Y193700D02*
X180965D01*
X134923Y191200D02*
X175513D01*
X134813Y191700D02*
X177072D01*
X135001Y190700D02*
X174423D01*
X135048Y190200D02*
X173556D01*
X135065Y189700D02*
X172829D01*
X132954Y195200D02*
X179465D01*
X132601Y195571D02*
X179095D01*
X133367Y194700D02*
X179965D01*
X120530Y170700D02*
X172829D01*
X120530Y170200D02*
X173556D01*
X119270Y168700D02*
X177072D01*
X119270Y168200D02*
X195725D01*
X120530Y169700D02*
X174423D01*
X120530Y169200D02*
X175513D01*
X124372Y166200D02*
X195725D01*
X124372Y166700D02*
X195725D01*
X124372Y165700D02*
X195725D01*
X124372Y167700D02*
X195725D01*
X124372Y167200D02*
X195725D01*
X124372Y163700D02*
X195725D01*
X124372Y164200D02*
X195725D01*
X124372Y163200D02*
X195725D01*
X124372Y165200D02*
X195725D01*
X124372Y164700D02*
X195725D01*
X120150Y161200D02*
X195725D01*
X120150Y161700D02*
X195725D01*
X120150Y160700D02*
X195725D01*
X124372Y162700D02*
X195725D01*
X124372Y162200D02*
X195725D01*
X120150Y159200D02*
X195725D01*
X120150Y158700D02*
X195725D01*
X120150Y160200D02*
X195725D01*
X120150Y159700D02*
X195725D01*
X135065Y188700D02*
X171654D01*
X135065Y189200D02*
X172203D01*
X135065Y188200D02*
X171168D01*
X135065Y187700D02*
X170735D01*
X135065Y187200D02*
X170348D01*
X135065Y186200D02*
X169690D01*
X135065Y186700D02*
X170001D01*
X135065Y185700D02*
X169412D01*
X135065Y185200D02*
X169165D01*
X135065Y184700D02*
X168946D01*
X135065Y184200D02*
X168754D01*
X135046Y183700D02*
X168587D01*
X134996Y183200D02*
X168444D01*
X134915Y182700D02*
X168324D01*
X134803Y182200D02*
X168228D01*
X134658Y181700D02*
X168153D01*
X134477Y181200D02*
X168100D01*
X134259Y180700D02*
X168068D01*
X134000Y180200D02*
X168058D01*
X132920Y178700D02*
X168153D01*
X132428Y178200D02*
X168228D01*
X131839Y177700D02*
X168324D01*
X133695Y179700D02*
X168068D01*
X133338Y179200D02*
X168100D01*
X128710Y176200D02*
X168754D01*
X120530Y175700D02*
X168946D01*
X131115Y177200D02*
X168444D01*
X130172Y176700D02*
X168587D01*
X120530Y173700D02*
X170001D01*
X120530Y174200D02*
X169690D01*
X120530Y173200D02*
X170348D01*
X120530Y175200D02*
X169165D01*
X120530Y174700D02*
X169412D01*
X120530Y171700D02*
X171654D01*
X120530Y171200D02*
X172203D01*
X120530Y172700D02*
X170735D01*
X120530Y172200D02*
X171168D01*
X156900Y145530D02*
Y195571D01*
X156400Y145530D02*
Y195571D01*
X157400Y145530D02*
Y195571D01*
X155400Y145530D02*
Y195571D01*
X155900Y145530D02*
Y195571D01*
X159400Y145530D02*
Y195571D01*
X158900Y145530D02*
Y195571D01*
X159900Y145530D02*
Y195571D01*
X157900Y145530D02*
Y195571D01*
X158400Y145530D02*
Y195571D01*
X120150Y156700D02*
X195725D01*
X120150Y157200D02*
X195725D01*
X120150Y156200D02*
X195725D01*
X120150Y158200D02*
X195725D01*
X120150Y157700D02*
X195725D01*
X120150Y155700D02*
X195725D01*
X135928Y155200D02*
X195725D01*
X154900Y145530D02*
Y195571D01*
X142124Y154700D02*
X195725D01*
X145378Y150700D02*
X195725D01*
X145281Y151200D02*
X195725D01*
X145424Y150200D02*
X195725D01*
X144916Y152200D02*
X195725D01*
X145129Y151700D02*
X195725D01*
X145257Y148700D02*
X195725D01*
X145094Y148200D02*
X195725D01*
X144869Y147700D02*
X195725D01*
X145419Y149700D02*
X195725D01*
X145364Y149200D02*
X195725D01*
X144634Y152700D02*
X195725D01*
X144267Y153200D02*
X195725D01*
X144573Y147200D02*
X195725D01*
X143136Y154200D02*
X195725D01*
X143787Y153700D02*
X195725D01*
X144187Y146700D02*
X195725D01*
X143682Y146200D02*
X195725D01*
X142985Y145700D02*
X195725D01*
X142675Y145530D02*
X160750D01*
X149900D02*
Y195571D01*
X149400Y145530D02*
Y195571D01*
X150400Y145530D02*
Y195571D01*
X148400Y145530D02*
Y195571D01*
X148900Y145530D02*
Y195571D01*
X152400Y145530D02*
Y195571D01*
X151900Y145530D02*
Y195571D01*
X154400Y145530D02*
Y195571D01*
X150900Y145530D02*
Y195571D01*
X151400Y145530D02*
Y195571D01*
X145400Y150525D02*
Y195571D01*
X143400Y154017D02*
Y195571D01*
X145900Y145530D02*
Y195571D01*
X142400Y154591D02*
Y195571D01*
X142900Y154343D02*
Y195571D01*
X147400Y145530D02*
Y195571D01*
X147900Y145530D02*
Y195571D01*
X146400Y145530D02*
Y195571D01*
X146900Y145530D02*
Y195571D01*
X152900Y145530D02*
Y195571D01*
X144900Y152233D02*
Y195571D01*
X153400Y145530D02*
Y195571D01*
X143900Y153595D02*
Y195571D01*
X144400Y153033D02*
Y195571D01*
X153900Y145530D02*
Y195571D01*
X145400Y145530D02*
Y149468D01*
X144900Y145530D02*
Y147760D01*
X144400Y145530D02*
Y146960D01*
X141900Y154775D02*
Y195571D01*
X141400Y154901D02*
Y195571D01*
X140900Y154974D02*
Y195571D01*
X143900Y145530D02*
Y146399D01*
X143400Y145530D02*
Y145976D01*
X167180Y136700D02*
X195725D01*
X167180Y137700D02*
X195725D01*
X167180Y136200D02*
X195725D01*
X183168Y134665D02*
X188570D01*
X191309Y134200D02*
X195725D01*
X192454Y133700D02*
X195725D01*
X193279Y133200D02*
X195725D01*
X167180Y135700D02*
X195725D01*
X167180Y137200D02*
X195725D01*
X167180Y135200D02*
X195725D01*
X167180Y138700D02*
X195725D01*
X167180Y138200D02*
X195725D01*
X167180Y134700D02*
X195725D01*
X167180Y134200D02*
X180429D01*
X167180Y133700D02*
X179284D01*
X167180Y133200D02*
X178460D01*
X195316Y131200D02*
X195725D01*
X194928Y131700D02*
X195725D01*
X195065Y121200D02*
X195725D01*
X193932Y132700D02*
X195725D01*
X194472Y132200D02*
X195725D01*
X193514Y119700D02*
X195725D01*
X192756Y119200D02*
X195725D01*
X191749Y118700D02*
X195725D01*
X194634Y120700D02*
X195725D01*
X194125Y120200D02*
X195725D01*
X190050Y118200D02*
X195725D01*
X180498D02*
X181688D01*
X183168Y118067D02*
X188570D01*
X180900Y117751D02*
Y118383D01*
X167180Y132200D02*
X177266D01*
X167180Y132700D02*
X177806D01*
X167180Y131700D02*
X176810D01*
X167180Y131200D02*
X176422D01*
X167180Y130700D02*
X176091D01*
X167180Y129700D02*
X175568D01*
X167180Y130200D02*
X175808D01*
X167180Y129200D02*
X175368D01*
X167180Y128700D02*
X175204D01*
X174900Y119824D02*
Y125649D01*
X167180Y127700D02*
X174977D01*
X167180Y128200D02*
X175074D01*
X167180Y127200D02*
X174911D01*
X167180Y126700D02*
X174876D01*
X167180Y126200D02*
X174871D01*
X167180Y124700D02*
X175038D01*
X167180Y124200D02*
X175157D01*
X167180Y125700D02*
X174896D01*
X167180Y125200D02*
X174951D01*
X175900Y119824D02*
Y122360D01*
X167180Y122200D02*
X175990D01*
X173822Y119824D02*
X176578D01*
X167180Y123700D02*
X175309D01*
X175400Y119824D02*
Y123445D01*
X177400Y119762D02*
Y120399D01*
X177742Y119700D02*
X178225D01*
X176400Y119824D02*
Y121563D01*
X176900Y119814D02*
Y120927D01*
X167180Y121200D02*
X176673D01*
X167180Y121700D02*
X176305D01*
X167180Y120700D02*
X177104D01*
X167180Y123200D02*
X175497D01*
X167180Y122700D02*
X175723D01*
X167180Y120200D02*
X177613D01*
X167180Y119700D02*
X172658D01*
X167180Y119200D02*
X171268D01*
X167180Y117700D02*
X169459D01*
X182106Y114700D02*
X195725D01*
X182045Y115200D02*
X195725D01*
X182121Y114200D02*
X195725D01*
X181900Y115831D02*
Y118164D01*
X181937Y115700D02*
X195725D01*
X182091Y113700D02*
X195725D01*
X182015Y113200D02*
X195725D01*
X181892Y112700D02*
X195725D01*
X182400Y106425D02*
Y118103D01*
X181900Y107644D02*
Y112729D01*
X181290Y117200D02*
X195725D01*
X180941Y117700D02*
X195725D01*
X181778Y116200D02*
X195725D01*
X181400Y117015D02*
Y118257D01*
X181565Y116700D02*
X195725D01*
X181717Y112200D02*
X195725D01*
X182120Y107200D02*
X195725D01*
X181869Y107700D02*
X195725D01*
X182315Y106700D02*
X195725D01*
X181484Y111700D02*
X195725D01*
X181553Y108200D02*
X195725D01*
X182620Y104700D02*
X195725D01*
X182610Y105200D02*
X195725D01*
X182587Y104200D02*
X195725D01*
X182459Y106200D02*
X195725D01*
X182557Y105700D02*
X195725D01*
X180331Y110200D02*
X195725D01*
X180011Y109700D02*
X195725D01*
X180660Y109200D02*
X195725D01*
X181187Y111200D02*
X195725D01*
X180810Y110700D02*
X195725D01*
X181158Y108700D02*
X195725D01*
X181400Y108407D02*
Y111545D01*
X180900Y108974D02*
Y110809D01*
X167180Y117200D02*
X169110D01*
X167180Y116200D02*
X168622D01*
X167180Y115700D02*
X168464D01*
X167180Y115200D02*
X168355D01*
X168900Y108274D02*
Y111730D01*
X167180Y104960D02*
Y139100D01*
X168400Y107454D02*
Y113126D01*
X167180Y113700D02*
X168309D01*
X167180Y116700D02*
X168835D01*
X167180Y113200D02*
X168385D01*
X167180Y114700D02*
X168294D01*
X167180Y114200D02*
X168279D01*
X167180Y111700D02*
X168915D01*
X167180Y111200D02*
X169213D01*
X167180Y112700D02*
X168508D01*
X167180Y112200D02*
X168684D01*
X180400Y109418D02*
Y110265D01*
X167180Y110200D02*
X170069D01*
X167180Y109700D02*
X170389D01*
X167180Y110700D02*
X169589D01*
X169900Y109337D02*
Y110362D01*
X167180Y109200D02*
X169740D01*
X169400Y108872D02*
Y110937D01*
X167440Y104700D02*
X167780D01*
X167180Y108200D02*
X168847D01*
X167180Y108700D02*
X169242D01*
X167180Y107700D02*
X168531D01*
X167180Y107200D02*
X168280D01*
X167180Y106700D02*
X168085D01*
X167180Y106200D02*
X167941D01*
X167180Y105700D02*
X167843D01*
X167180Y105200D02*
X167790D01*
X167180Y104960D02*
X167799Y104341D01*
X166955Y140200D02*
X195725D01*
X166678Y140700D02*
X195725D01*
X167115Y139700D02*
X195725D01*
X167178Y139200D02*
X195725D01*
X159010Y138530D02*
X160180Y137360D01*
X156400Y136392D02*
Y138530D01*
X155400Y136392D02*
Y138530D01*
X155900Y136392D02*
Y138530D01*
X154900Y136392D02*
Y138530D01*
X141993D02*
X159010D01*
X141663Y138200D02*
X159340D01*
X153900Y136392D02*
Y138530D01*
X154400Y136392D02*
Y138530D01*
X152900Y136392D02*
Y138530D01*
X153400Y136392D02*
Y138530D01*
X151900Y136392D02*
Y138530D01*
X152400Y136392D02*
Y138530D01*
X156572Y134700D02*
X160180D01*
X156572Y135200D02*
X160180D01*
X156572Y134200D02*
X160180D01*
X156572Y136200D02*
X160180D01*
X156572Y135700D02*
X160180D01*
X156572Y131200D02*
X160180D01*
X156572Y131700D02*
X160180D01*
X156572Y130700D02*
X160180D01*
X156572Y133700D02*
X160180D01*
X156572Y132200D02*
X160180D01*
X151470Y137200D02*
X160180D01*
X141163Y137700D02*
X159840D01*
X151470Y136700D02*
X160180D01*
X151470Y136392D02*
Y137392D01*
Y136392D02*
X156572D01*
Y133200D02*
X160180D01*
X156572Y132700D02*
X160180D01*
X148400Y137392D02*
Y138530D01*
X147900Y137392D02*
Y138530D01*
X148900Y137392D02*
Y138530D01*
X146900Y137392D02*
Y138530D01*
X147400Y137392D02*
Y138530D01*
X150900Y137392D02*
Y138530D01*
X150400Y137392D02*
Y138530D01*
X151400Y137392D02*
Y138530D01*
X149400Y137392D02*
Y138530D01*
X149900Y137392D02*
Y138530D01*
X145900Y137392D02*
Y138530D01*
X145400Y137392D02*
Y138530D01*
X146400Y137392D02*
Y138530D01*
X144400Y137392D02*
Y138530D01*
X144900Y137392D02*
Y138530D01*
X143400Y137392D02*
Y138530D01*
X143900Y137392D02*
Y138530D01*
X138228Y134765D02*
X141993Y138530D01*
X142900Y137392D02*
Y138530D01*
X142730Y137392D02*
X151470D01*
X140663Y137200D02*
X142730D01*
X140163Y136700D02*
X142730D01*
X139663Y136200D02*
X142730D01*
X139163Y135700D02*
X142730D01*
Y130540D02*
Y137392D01*
X138663Y135200D02*
X142730D01*
X142400Y130540D02*
Y138530D01*
X141400Y130540D02*
Y137937D01*
X138228Y133200D02*
X142730D01*
X138228Y133700D02*
X142730D01*
X138228Y132700D02*
X142730D01*
X138228Y134700D02*
X142730D01*
X138228Y134200D02*
X142730D01*
X138228Y131200D02*
X142730D01*
X138228Y130700D02*
X142730D01*
X138228Y132200D02*
X142730D01*
X138228Y131700D02*
X142730D01*
X153537Y124200D02*
X160180D01*
X153537Y124700D02*
X160180D01*
X153537Y123700D02*
X160180D01*
X153537Y125700D02*
X160180D01*
X153537Y125200D02*
X160180D01*
X153537Y121700D02*
X160180D01*
X153537Y122200D02*
X160180D01*
X153537Y121200D02*
X160180D01*
X153537Y123200D02*
X160180D01*
X153537Y122700D02*
X160180D01*
X153537Y128700D02*
X160180D01*
X153537Y129200D02*
X160180D01*
X153537Y128200D02*
X160180D01*
X153537Y130200D02*
X160180D01*
X153537Y129700D02*
X160180D01*
X153537Y126700D02*
X160180D01*
X153537Y126200D02*
X160180D01*
X153537Y127700D02*
X160180D01*
X153537Y127200D02*
X160180D01*
X153537Y119200D02*
X160180D01*
X153537Y119700D02*
X160180D01*
X167180Y118700D02*
X170476D01*
X153537Y120700D02*
X160180D01*
X153537Y120200D02*
X160180D01*
X153537Y118700D02*
X160180D01*
X167180Y118200D02*
X169902D01*
X153537D02*
X160180D01*
X153537Y117700D02*
X160180D01*
X153537Y111200D02*
X160180D01*
X153537Y116200D02*
X160180D01*
X153537Y109700D02*
X160180D01*
X153537Y117200D02*
X160180D01*
X153537Y116700D02*
X160180D01*
X153537Y108200D02*
X160180D01*
X153400Y104200D02*
X160180D01*
X153537Y109200D02*
X160180D01*
X153537Y108700D02*
X160180D01*
X156572Y130392D02*
Y136392D01*
X153537Y130392D02*
X156572D01*
X153537Y115700D02*
X160180D01*
X141900Y130540D02*
Y138437D01*
X141697Y130540D02*
X142730D01*
X153537Y114700D02*
X160180D01*
X153537Y115200D02*
X160180D01*
X153537Y114200D02*
X160180D01*
X153537Y105068D02*
Y130392D01*
Y113700D02*
X160180D01*
X140900Y130540D02*
Y137437D01*
X140663Y130540D02*
X141697D01*
X142730D01*
X138228Y126200D02*
X140663D01*
X138228Y123200D02*
X140663D01*
X138228Y113700D02*
X140663D01*
X138228Y113200D02*
X140663D01*
X138228Y122700D02*
X140663D01*
X138228Y120700D02*
X140663D01*
X153537Y111700D02*
X160180D01*
X153537Y112200D02*
X160180D01*
X153537Y110700D02*
X160180D01*
X153537Y113200D02*
X160180D01*
X153537Y112700D02*
X160180D01*
X153537Y107200D02*
X160180D01*
X153537Y105700D02*
X160180D01*
X153537Y110200D02*
X160180D01*
X153537Y107700D02*
X160180D01*
X153537Y106700D02*
X160180D01*
X138228Y111700D02*
X140663D01*
X153537Y106200D02*
X160180D01*
X138228Y112700D02*
X140663D01*
X138228Y112200D02*
X140663D01*
X153537Y105200D02*
X160180D01*
X153400Y104700D02*
X160180D01*
X135636D02*
X140900D01*
X135136Y104200D02*
X140900D01*
X134400Y192925D02*
Y195571D01*
X133900Y193910D02*
Y195571D01*
X134900Y191317D02*
Y195571D01*
X132900Y195260D02*
Y195571D01*
X133400Y194656D02*
Y195571D01*
X135065Y184268D02*
Y189670D01*
X121900Y168046D02*
Y177545D01*
X120530Y178200D02*
X121105D01*
X120530Y177700D02*
X121693D01*
X120400Y194994D02*
Y195571D01*
X121400Y168046D02*
Y177937D01*
X120530Y168900D02*
Y178792D01*
X120900Y168046D02*
Y178397D01*
X123900Y168046D02*
Y176480D01*
X123400Y168046D02*
Y176682D01*
X122400Y168046D02*
Y177210D01*
X122900Y168046D02*
Y176925D01*
X128900Y155497D02*
Y176248D01*
X128400Y155497D02*
Y176131D01*
X127900Y155497D02*
Y176047D01*
X127400Y155497D02*
Y175993D01*
X124372Y162046D02*
Y168046D01*
X120530Y176700D02*
X123360D01*
X120530Y177200D02*
X122417D01*
X120530Y176200D02*
X124822D01*
X120400Y168046D02*
Y168900D01*
X119270D02*
X120530D01*
X119270Y168046D02*
X124372D01*
X120150Y162046D02*
X124372D01*
X119400Y193493D02*
Y195571D01*
X118900Y192316D02*
Y195571D01*
X119900Y194332D02*
Y195571D01*
X117900Y183700D02*
Y195571D01*
X118400Y183700D02*
Y195571D01*
X116900Y183700D02*
Y195571D01*
X116400Y183700D02*
Y195571D01*
X117400Y183700D02*
Y195571D01*
X115400Y183700D02*
Y195571D01*
X115900Y183700D02*
Y195571D01*
X111400Y183700D02*
Y195571D01*
X110900Y183700D02*
Y195571D01*
X111900Y183700D02*
Y195571D01*
X109900Y183700D02*
Y195571D01*
X110400Y183700D02*
Y195571D01*
X114400Y183700D02*
Y195571D01*
X114900Y183700D02*
Y195571D01*
X113400Y183700D02*
Y195571D01*
X113900Y183700D02*
Y195571D01*
X119400Y168046D02*
Y168900D01*
X119270Y168046D02*
Y168900D01*
X118900Y168200D02*
X119270D01*
X118900Y169046D02*
X119270D01*
X118900Y168900D02*
X119270D01*
X119900Y168046D02*
Y168900D01*
X119270Y162046D02*
X120150D01*
X118900Y168046D02*
Y168900D01*
Y168046D02*
X119270D01*
X118467Y184268D02*
Y189670D01*
X112900Y183700D02*
Y195571D01*
X112400Y183700D02*
Y195571D01*
X110530Y168900D02*
X110900D01*
X118900Y168046D02*
Y168900D01*
Y168700D02*
X119270D01*
X110400Y162529D02*
Y168900D01*
X110530Y162529D02*
Y168900D01*
X139900Y154969D02*
Y195571D01*
X139400Y154890D02*
Y195571D01*
X140400Y154997D02*
Y195571D01*
X138400Y154567D02*
Y195571D01*
X138900Y154757D02*
Y195571D01*
X137400Y153975D02*
Y195571D01*
X136900Y153540D02*
Y195571D01*
X137900Y154310D02*
Y195571D01*
X136400Y152959D02*
Y195571D01*
X135928Y152176D02*
Y155497D01*
X133900D02*
Y180028D01*
X133400Y155497D02*
Y179282D01*
X132900Y155497D02*
Y178678D01*
X132400Y155497D02*
Y178174D01*
X131900Y155497D02*
Y177748D01*
X135400Y155497D02*
Y195571D01*
X135900Y155497D02*
Y195571D01*
X134900Y155497D02*
Y182621D01*
X134400Y155497D02*
Y181013D01*
X135928Y154700D02*
X138732D01*
X135928Y153200D02*
X136589D01*
X138400Y144829D02*
Y145426D01*
X137900Y144336D02*
Y145683D01*
X137400Y143836D02*
Y146018D01*
X136400Y142836D02*
Y147034D01*
X136900Y143336D02*
Y146453D01*
X135928Y153700D02*
X137069D01*
X135928Y154200D02*
X137720D01*
X135928Y146700D02*
X136669D01*
X124928Y155497D02*
X135928D01*
Y147200D02*
X136283D01*
X135928Y145700D02*
X137871D01*
X135928Y145200D02*
X138935D01*
X135928Y144497D02*
Y147817D01*
Y146200D02*
X137174D01*
X131400Y155497D02*
Y177383D01*
X130900Y155497D02*
Y177072D01*
X130400Y155497D02*
Y176807D01*
X129900Y155497D02*
Y176584D01*
X129400Y155497D02*
Y176398D01*
X126400Y155497D02*
Y175977D01*
X125900Y155497D02*
Y176014D01*
X126900Y155497D02*
Y175970D01*
X124900Y152717D02*
Y176181D01*
X125400Y155497D02*
Y176082D01*
X121400Y152717D02*
Y162046D01*
X120900Y152717D02*
Y162046D01*
X122400Y152717D02*
Y162046D01*
X120150Y153867D02*
Y162046D01*
X120400Y152717D02*
Y162046D01*
X124400Y152717D02*
Y176313D01*
X123900Y152717D02*
Y162046D01*
X122900Y152717D02*
Y162046D01*
X123400Y152717D02*
Y162046D01*
X124928Y152717D02*
Y155497D01*
X121900Y152717D02*
Y162046D01*
Y143141D02*
Y144717D01*
X120900Y144141D02*
Y144717D01*
X121400Y143641D02*
Y144717D01*
X123900Y140995D02*
Y144717D01*
X124900Y111598D02*
Y144717D01*
X122400Y142641D02*
Y144717D01*
X122900Y142141D02*
Y144717D01*
X120150Y153700D02*
X124928D01*
X120150Y154200D02*
X124928D01*
X120150Y153200D02*
X124928D01*
X120150Y155200D02*
X124928D01*
X120150Y154700D02*
X124928D01*
X120150Y152717D02*
X124928D01*
X120324Y144717D02*
X124928D01*
X120150Y152717D02*
Y153867D01*
Y152717D02*
Y153867D01*
X109400Y183700D02*
Y195571D01*
X108830Y183700D02*
X118486D01*
X108830D02*
X118486D01*
X108900D02*
Y195571D01*
X105732Y183700D02*
X108830D01*
X109900Y162529D02*
Y168900D01*
X107645Y183200D02*
X108830D01*
Y168900D02*
X110530D01*
X108830Y182483D02*
Y183700D01*
X107143Y169200D02*
X108830D01*
X104400Y167200D02*
X110530D01*
X104400Y167700D02*
X110530D01*
X104400Y166700D02*
X110530D01*
X104400Y168700D02*
X110530D01*
X104400Y168200D02*
X110530D01*
X104400Y165200D02*
X110530D01*
X104400Y164700D02*
X110530D01*
X104400Y166200D02*
X110530D01*
X104400Y165700D02*
X110530D01*
X104400Y162700D02*
X110530D01*
X104400Y163200D02*
X110530D01*
X109650Y162529D02*
X110530D01*
X104400Y164200D02*
X110530D01*
X104400Y163700D02*
X110530D01*
X104400Y160700D02*
X109650D01*
X104400Y161200D02*
X109650D01*
X104400Y160200D02*
X109650D01*
X104400Y162200D02*
X109650D01*
X104400Y161700D02*
X109650D01*
X104400Y158200D02*
X109650D01*
X104400Y158700D02*
X109650D01*
X104400Y157700D02*
X109650D01*
X104400Y159700D02*
X109650D01*
X104400Y159200D02*
X109650D01*
X104400Y156200D02*
X109650D01*
X104400Y155700D02*
X109650D01*
X104400Y157200D02*
X109650D01*
X104400Y156700D02*
X109650D01*
X105900Y183683D02*
Y195571D01*
X105400Y183719D02*
Y195571D01*
X106400Y183603D02*
Y195571D01*
X104400Y183662D02*
Y195571D01*
X104900Y183712D02*
Y195571D01*
X107900Y183077D02*
Y195571D01*
X107400Y183304D02*
Y195571D01*
X108400Y182788D02*
Y195571D01*
X103900Y183568D02*
Y195571D01*
X106900Y183478D02*
Y195571D01*
X97900Y183568D02*
Y195571D01*
X97400Y183662D02*
Y195571D01*
X103400Y183427D02*
Y195571D01*
X96400Y183719D02*
Y195571D01*
X96900Y183712D02*
Y195571D01*
X102400Y182990D02*
Y195571D01*
X102900Y183237D02*
Y195571D01*
X101400Y182291D02*
Y195571D01*
X101900Y182680D02*
Y195571D01*
X100900Y181802D02*
Y195571D01*
X99871Y182700D02*
X101929D01*
X100503Y182200D02*
X101297D01*
X99900Y182680D02*
Y195571D01*
X100400Y182291D02*
Y195571D01*
X108830Y168900D02*
Y170117D01*
X108220Y169700D02*
X108830D01*
X98400Y183427D02*
Y195571D01*
X95900Y183683D02*
Y195571D01*
X97070Y183700D02*
X104730D01*
X94900Y183478D02*
Y195571D01*
X95400Y183603D02*
Y195571D01*
X99400Y182990D02*
Y195571D01*
X98983Y183200D02*
X102817D01*
X94400Y183304D02*
Y195571D01*
X98900Y183237D02*
Y195571D01*
X109650Y152229D02*
Y153867D01*
Y162529D01*
Y152229D02*
Y153867D01*
X106900Y151656D02*
Y169122D01*
X106400Y152156D02*
Y168997D01*
X108900Y149656D02*
Y168900D01*
X108400Y150156D02*
Y169812D01*
X109400Y149156D02*
Y168900D01*
X107900Y150656D02*
Y169523D01*
X107400Y151156D02*
Y169296D01*
X104400Y154700D02*
X109650D01*
X104400Y155200D02*
X109650D01*
X104400Y154200D02*
X109650D01*
X104400Y154156D02*
Y168938D01*
Y154156D02*
Y168938D01*
X105900Y152656D02*
Y168917D01*
X104400Y154156D02*
X109650Y148906D01*
X104900Y153656D02*
Y168888D01*
X105400Y153156D02*
Y168881D01*
X106356Y152200D02*
X109650D01*
X105856Y152700D02*
X109650D01*
X106856Y151700D02*
X109650D01*
X104856Y153700D02*
X109650D01*
X105356Y153200D02*
X109650D01*
Y148906D02*
Y152229D01*
X108356Y150200D02*
X109650D01*
X108856Y149700D02*
X109650D01*
X107356Y151200D02*
X109650D01*
X107856Y150700D02*
X109650D01*
X103400Y142520D02*
Y145257D01*
X96000Y145700D02*
X102957D01*
X96000Y145200D02*
X103457D01*
X96000Y146700D02*
X101957D01*
X96000Y146200D02*
X102457D01*
X98220Y150437D02*
X106137Y142520D01*
X103900D02*
Y144757D01*
X102400Y142520D02*
Y146257D01*
X102900Y142520D02*
Y145757D01*
X97400Y152417D02*
Y168938D01*
X95749Y151700D02*
X97493D01*
X95917Y151200D02*
X97678D01*
X97400Y152417D02*
Y168938D01*
X95900Y151268D02*
Y168917D01*
X97400Y142560D02*
Y152417D01*
X96900Y142560D02*
Y168888D01*
X96400Y142560D02*
Y168881D01*
X94543Y153200D02*
X97400D01*
X94043Y153700D02*
X97400D01*
X95043Y152700D02*
X97400D01*
X94400Y153343D02*
Y169296D01*
X94900Y152843D02*
Y169122D01*
X95472Y152200D02*
X97408D01*
X95400Y152300D02*
Y168997D01*
X99400Y142560D02*
Y149257D01*
X98900Y142560D02*
Y149757D01*
X99900Y142560D02*
Y148757D01*
X97900Y142560D02*
Y150820D01*
X98400Y142560D02*
Y150257D01*
X101400Y142560D02*
Y147257D01*
X101900Y142520D02*
Y146757D01*
X100400Y142560D02*
Y148257D01*
X100900Y142560D02*
Y147757D01*
X96000Y149200D02*
X99457D01*
X96000Y149700D02*
X98957D01*
X96000Y148700D02*
X99957D01*
X95993Y150700D02*
X97988D01*
X96000Y150200D02*
X98457D01*
X96000Y147700D02*
X100957D01*
X96000Y147200D02*
X101457D01*
X96000Y144647D02*
Y150500D01*
Y148200D02*
X100457D01*
X135928Y144700D02*
X138264D01*
X135900Y142336D02*
Y144497D01*
X135400Y141836D02*
Y144497D01*
X134400Y140836D02*
Y144497D01*
X134900Y141336D02*
Y144497D01*
X133900Y140336D02*
Y144497D01*
X132048Y138484D02*
X138274Y144710D01*
X133400Y139836D02*
Y144497D01*
X132400Y138836D02*
Y144497D01*
X132900Y139336D02*
Y144497D01*
X124928D02*
X135928D01*
X122841Y142200D02*
X135764D01*
X123341Y141700D02*
X135264D01*
X123772Y141200D02*
X134764D01*
X124044Y140700D02*
X134264D01*
X124199Y140200D02*
X133764D01*
X124259Y139700D02*
X133264D01*
X131900Y138324D02*
Y144497D01*
X124260Y139200D02*
X132764D01*
X138228Y128700D02*
X140663D01*
X138228Y129200D02*
X140663D01*
X138228Y128200D02*
X140663D01*
X138228Y130200D02*
X140663D01*
X138228Y129700D02*
X140663D01*
X138228Y123700D02*
X140663D01*
X138228Y126700D02*
X140663D01*
X138228Y122200D02*
X140663D01*
X138228Y127700D02*
X140663D01*
X138228Y127200D02*
X140663D01*
X124260Y138700D02*
X132264D01*
X138228Y125700D02*
X140663D01*
X124260Y138200D02*
X131800D01*
X138228Y124200D02*
X140663D01*
X138228Y121700D02*
X140663D01*
X138228Y125200D02*
X140663D01*
X138228Y124700D02*
X140663D01*
X131400Y137471D02*
Y144497D01*
X124260Y137700D02*
X131496D01*
X124260Y137200D02*
X131316D01*
X124260Y136700D02*
X131235D01*
X124260Y136200D02*
X131228D01*
X124260Y132200D02*
X131228D01*
X124260Y134700D02*
X131228D01*
X124260Y131700D02*
X131228D01*
X124260Y135700D02*
X131228D01*
X124260Y135200D02*
X131228D01*
X124260Y134200D02*
X131228D01*
X124260Y133700D02*
X131228D01*
X123400Y141641D02*
Y144717D01*
X124260Y131200D02*
X131228D01*
X124260Y130700D02*
X131228D01*
X124260Y133200D02*
X131228D01*
X124260Y132700D02*
X131228D01*
X124260Y124200D02*
X131228D01*
X124260Y124700D02*
X131228D01*
X124260Y123700D02*
X131228D01*
X124260Y125700D02*
X131228D01*
X124260Y125200D02*
X131228D01*
X124260Y122200D02*
X131228D01*
X124260Y121700D02*
X131228D01*
X124260Y123200D02*
X131228D01*
X124260Y122700D02*
X131228D01*
X124260Y128700D02*
X131228D01*
X124260Y129200D02*
X131228D01*
X124260Y128200D02*
X131228D01*
X124260Y130200D02*
X131228D01*
X124260Y129700D02*
X131228D01*
X124260Y126700D02*
X131228D01*
X124260Y126200D02*
X131228D01*
X124260Y127700D02*
X131228D01*
X124260Y127200D02*
X131228D01*
X138228Y119200D02*
X140663D01*
X138228Y119700D02*
X140663D01*
X138228Y118700D02*
X140663D01*
X138228Y121200D02*
X140663D01*
X138228Y120200D02*
X140663D01*
X138228Y116700D02*
X140663D01*
X138228Y118200D02*
X140663D01*
X138228Y116200D02*
X140663D01*
X138228Y108452D02*
Y134765D01*
X140663Y105068D02*
Y130540D01*
X138228Y117700D02*
X140663D01*
X124260Y118200D02*
X131228D01*
X138228Y117200D02*
X140663D01*
X124260Y119200D02*
X131228D01*
X124260Y118700D02*
X131228D01*
X138228Y115700D02*
X140663D01*
X138228Y115200D02*
X140663D01*
X124260Y116700D02*
X131228D01*
X124260Y116200D02*
X131228D01*
X138228Y110700D02*
X140663D01*
X138228Y111200D02*
X140663D01*
X138228Y110200D02*
X140663D01*
X138228Y114700D02*
X140663D01*
X138228Y114200D02*
X140663D01*
X138228Y108700D02*
X140663D01*
X138217Y108200D02*
X140663D01*
X138125Y107700D02*
X140663D01*
X138228Y109700D02*
X140663D01*
X138228Y109200D02*
X140663D01*
X137933Y107200D02*
X140663D01*
X137612Y106700D02*
X140663D01*
X124079Y114700D02*
X131228D01*
X123831Y114200D02*
X131228D01*
X136636Y105700D02*
X140663D01*
X136136Y105200D02*
X140663D01*
X137136Y106200D02*
X140663D01*
X128400Y110598D02*
Y144497D01*
X127900Y110598D02*
Y144497D01*
X128900Y110598D02*
Y144497D01*
X126900Y110598D02*
Y144497D01*
X127400Y110598D02*
Y144497D01*
X130900Y110598D02*
Y144497D01*
X130400Y110598D02*
Y144497D01*
X131228Y110598D02*
Y136504D01*
X129400Y110598D02*
Y144497D01*
X129900Y110598D02*
Y144497D01*
X124260Y120700D02*
X131228D01*
X124260Y121200D02*
X131228D01*
X124260Y120200D02*
X131228D01*
X124260Y115690D02*
Y139621D01*
Y119700D02*
X131228D01*
X125900Y111598D02*
Y144497D01*
X126400Y110598D02*
Y144497D01*
X124400Y111598D02*
Y144717D01*
X125400Y111598D02*
Y144497D01*
X126218Y111200D02*
X131228D01*
X124260Y115700D02*
X131228D01*
X126218Y110700D02*
X131228D01*
X124260Y117700D02*
X131228D01*
X124260Y117200D02*
X131228D01*
Y110192D02*
Y110598D01*
X126218D02*
X131228D01*
X126218D02*
Y111598D01*
X124217Y115200D02*
X131228D01*
X123430Y113700D02*
X131228D01*
X122930Y113200D02*
X131228D01*
X123900Y111598D02*
Y114316D01*
X122430Y112700D02*
X131228D01*
X123400Y111598D02*
Y113670D01*
X122900Y111598D02*
Y113170D01*
X121341Y143700D02*
X137264D01*
X120841Y144200D02*
X137764D01*
X121841Y143200D02*
X136764D01*
X120341Y144700D02*
X124928D01*
X122341Y142700D02*
X136264D01*
X120324Y144717D02*
X123440Y141601D01*
X114925Y140217D02*
X117260Y137882D01*
X114925Y139200D02*
X115942D01*
X114925Y135520D02*
Y140217D01*
Y139700D02*
X115442D01*
X114925Y137200D02*
X117260D01*
X114925Y137700D02*
X117260D01*
X114925Y136700D02*
X117260D01*
X114925Y138700D02*
X116442D01*
X114925Y138200D02*
X116941D01*
X114925Y136200D02*
X117260D01*
X114925Y135700D02*
X117260D01*
X109626Y135520D02*
X114925D01*
X109626Y135200D02*
X117260D01*
X114758Y131700D02*
X117260D01*
X114758Y132200D02*
X117260D01*
X114758Y131200D02*
X117260D01*
X114758Y133200D02*
X117260D01*
X114758Y132700D02*
X117260D01*
X114758Y130200D02*
X117260D01*
X114758Y130700D02*
X117260D01*
X114758Y128200D02*
X117260D01*
X114758Y127626D02*
Y133626D01*
Y127700D02*
X117260D01*
X109656Y134200D02*
X117260D01*
X109626Y134700D02*
X117260D01*
X109656Y133700D02*
X117260D01*
X109656Y133626D02*
X114758D01*
Y129700D02*
X117260D01*
X114758Y129200D02*
X117260D01*
X114758Y128700D02*
X117260D01*
X109656Y127626D02*
X114758D01*
X109656Y127200D02*
X117260D01*
X104900Y142520D02*
Y143757D01*
X95967Y144200D02*
X104457D01*
X105400Y142520D02*
Y143257D01*
X96000Y144700D02*
X103957D01*
X104400Y142520D02*
Y144257D01*
X113400Y133626D02*
Y135520D01*
X100689Y142520D02*
X101851D01*
X106137D01*
X95847Y143700D02*
X104957D01*
X95628Y143200D02*
X105457D01*
X95283Y142700D02*
X105957D01*
X95156Y142560D02*
X95552D01*
X101851D01*
X95900D02*
Y143878D01*
X95156Y142560D02*
X95552D01*
X113900Y133626D02*
Y135520D01*
X112900Y133626D02*
Y135520D01*
X114400Y133626D02*
Y135520D01*
X111900Y133626D02*
Y135520D01*
X112400Y133626D02*
Y135520D01*
X111400Y133626D02*
Y135520D01*
X109900Y133626D02*
Y135520D01*
X109626Y134626D02*
Y135520D01*
X110900Y133626D02*
Y135520D01*
X109400Y134626D02*
Y135520D01*
Y134626D02*
Y135520D01*
X110400Y133626D02*
Y135520D01*
X109656Y133626D02*
Y134626D01*
X109400Y133626D02*
Y134520D01*
Y133626D02*
Y134520D01*
X109656Y126700D02*
X117260D01*
X108267Y126200D02*
X117260D01*
X108167Y125700D02*
X117260D01*
X115400Y118627D02*
Y139742D01*
X113670Y120700D02*
X117260D01*
X116900Y117070D02*
Y138242D01*
X116400Y116570D02*
Y138742D01*
X117260Y117430D02*
Y137882D01*
X115900Y116070D02*
Y139242D01*
X107193Y124200D02*
X117260D01*
X106693Y123700D02*
X117260D01*
X106457Y123200D02*
X117260D01*
X107973Y125200D02*
X117260D01*
X107659Y124700D02*
X117260D01*
X106457Y121700D02*
X117260D01*
X106457Y121200D02*
X117260D01*
X106457Y122700D02*
X117260D01*
X106457Y122200D02*
X117260D01*
X121930Y112200D02*
X131228D01*
X115478Y115648D02*
X117260Y117430D01*
X121430Y111700D02*
X131228D01*
X115479Y118200D02*
X117260D01*
X115497Y117700D02*
X117260D01*
X121327Y111598D02*
X123440Y113710D01*
X121327Y111598D02*
X126218D01*
X122400D02*
Y112670D01*
X121900Y111598D02*
Y112170D01*
X114892Y119700D02*
X117260D01*
X114436Y120200D02*
X117260D01*
X115191Y119200D02*
X117260D01*
X115380Y118700D02*
X117260D01*
X115434Y117200D02*
X117030D01*
X115287Y116700D02*
X116530D01*
X115363Y116200D02*
X116030D01*
X111900Y120990D02*
Y127626D01*
X111400Y120990D02*
Y127626D01*
X112400Y120990D02*
Y127626D01*
X110400Y120990D02*
Y127626D01*
X110900Y120990D02*
Y127626D01*
X114900Y119689D02*
Y135520D01*
X114400Y120232D02*
Y127626D01*
X113900Y120582D02*
Y127626D01*
X112900Y120942D02*
Y127626D01*
X113400Y120810D02*
Y127626D01*
X109656Y126626D02*
Y127626D01*
X108286Y126626D02*
X109656D01*
X109400Y120990D02*
Y126626D01*
X109900Y120990D02*
Y127626D01*
X108900Y120990D02*
Y126626D01*
X108400Y120990D02*
Y126626D01*
X107900Y120990D02*
Y125063D01*
X107400Y120990D02*
Y124407D01*
X106457Y123463D02*
X107406Y124413D01*
X106650Y120990D02*
X112350D01*
X106900D02*
Y123907D01*
X106457Y120984D02*
Y123463D01*
X115400Y116067D02*
Y117053D01*
X95384Y110312D02*
X96962Y108734D01*
X93902Y108200D02*
X96962D01*
X93902Y109700D02*
X95996D01*
X93902Y107700D02*
X96962D01*
X93902Y110600D02*
X95120D01*
X93902Y110200D02*
X95496D01*
X93902Y104700D02*
X96962D01*
X93902Y104200D02*
X96962D01*
X93902Y107200D02*
X96962D01*
X93902Y106200D02*
X96962D01*
X182418Y97700D02*
X195725D01*
X182257Y98200D02*
X195725D01*
X182530Y97200D02*
X195725D01*
X182511Y103700D02*
X195725D01*
X182389Y103200D02*
X195725D01*
X182603Y95700D02*
X195725D01*
X182541Y95200D02*
X195725D01*
X182434Y94700D02*
X195725D01*
X182597Y96700D02*
X195725D01*
X182621Y96200D02*
X195725D01*
X181712Y101700D02*
X195725D01*
X181357Y101200D02*
X195725D01*
X180912Y100700D02*
X195725D01*
X182219Y102700D02*
X195725D01*
X181996Y102200D02*
X195725D01*
X181774Y99200D02*
X195725D01*
X182045Y98700D02*
X195725D01*
X181010Y100200D02*
X195725D01*
X181435Y99700D02*
X195725D01*
X182600Y90700D02*
X195725D01*
X182600Y91200D02*
X195725D01*
X182600Y90200D02*
X195725D01*
X182600Y92200D02*
X195725D01*
X182600Y91700D02*
X195725D01*
X182600Y83700D02*
X195725D01*
X182600Y84200D02*
X195725D01*
X190523Y82700D02*
X195725D01*
X182600Y89700D02*
X195725D01*
X182600Y89200D02*
X195725D01*
X181811Y93200D02*
X195725D01*
X181481Y92700D02*
X195725D01*
X182600Y88700D02*
X195725D01*
X182280Y94200D02*
X195725D01*
X182075Y93700D02*
X195725D01*
X182600Y84700D02*
X195725D01*
X182600Y83200D02*
X195725D01*
X182600Y88200D02*
X195725D01*
X182600Y87700D02*
X195725D01*
X189400Y82891D02*
Y118109D01*
X188900Y82926D02*
Y118074D01*
X188400Y82933D02*
Y118067D01*
X187400Y82933D02*
Y118067D01*
X187900Y82933D02*
Y118067D01*
X191900Y82236D02*
Y118764D01*
X191400Y82436D02*
Y118564D01*
X190900Y82599D02*
Y118401D01*
X190400Y82729D02*
Y118271D01*
X189900Y82826D02*
Y118174D01*
X186400Y82933D02*
Y118067D01*
X185900Y82933D02*
Y118067D01*
X186900Y82933D02*
Y118067D01*
X184900Y82933D02*
Y118067D01*
X185400Y82933D02*
Y118067D01*
X183900Y82933D02*
Y118067D01*
X184400Y82933D02*
Y118067D01*
X182900Y82929D02*
Y118071D01*
X183400Y82933D02*
Y118067D01*
X182600Y86200D02*
X195725D01*
X182600Y86700D02*
X195725D01*
X182600Y85700D02*
X195725D01*
X182400Y92570D02*
Y94575D01*
X182600Y87200D02*
X195725D01*
X182600Y85200D02*
X195725D01*
X183168Y82933D02*
X188570D01*
X182600Y82914D02*
Y92570D01*
X182400Y97763D02*
Y103237D01*
X181900Y98983D02*
Y102017D01*
X181400Y99745D02*
Y101255D01*
X180900Y100312D02*
Y100688D01*
X181900Y92570D02*
Y93356D01*
X181383Y92570D02*
X182600D01*
X194726Y80200D02*
X195725D01*
X194234Y80700D02*
X195725D01*
X195143Y79700D02*
X195725D01*
X194900Y80001D02*
Y120999D01*
X194400Y80540D02*
Y120460D01*
X195725Y21214D02*
Y70430D01*
Y78838D02*
Y122162D01*
X195243Y69700D02*
X195725D01*
X195400Y79348D02*
Y121652D01*
Y20889D02*
Y69920D01*
X193400Y81383D02*
Y119617D01*
X191980Y82200D02*
X195725D01*
X192923Y81700D02*
X195725D01*
X192900Y81714D02*
Y119286D01*
X192400Y81996D02*
Y119004D01*
X193646Y81200D02*
X195725D01*
X193900Y80995D02*
Y120005D01*
X194843Y69200D02*
X195725D01*
X194372Y68700D02*
X195725D01*
X193812Y68200D02*
X195725D01*
X194900Y20389D02*
Y69267D01*
X193130Y67700D02*
X195725D01*
X194400Y19889D02*
Y68728D01*
X193900Y19389D02*
Y68273D01*
X193400Y18889D02*
Y67885D01*
X192900Y18389D02*
Y67554D01*
X192400Y17889D02*
Y67272D01*
X192259Y67200D02*
X195725D01*
X191004Y66700D02*
X195725D01*
X189900Y25839D02*
Y66442D01*
X189400Y26597D02*
Y66377D01*
X188900Y27246D02*
Y66342D01*
X191900Y17389D02*
Y67032D01*
X191400Y21948D02*
Y66832D01*
X190900Y23754D02*
Y66669D01*
X190400Y24926D02*
Y66539D01*
X176900Y80073D02*
Y80870D01*
X176400Y79437D02*
Y80870D01*
X176900Y56551D02*
Y69195D01*
X178900Y54370D02*
Y67517D01*
X178400Y55205D02*
Y67841D01*
X179400Y31537D02*
Y67240D01*
X177400Y56217D02*
Y68667D01*
X177900Y55783D02*
Y68221D01*
X175900Y78640D02*
Y80870D01*
X174900Y75351D02*
Y80870D01*
X175400Y77555D02*
Y80870D01*
X175900Y56995D02*
Y70628D01*
X176400Y56806D02*
Y69831D01*
X174900Y57205D02*
Y73917D01*
X175400Y57127D02*
Y71713D01*
X185900Y29834D02*
Y66335D01*
X185400Y30120D02*
Y66335D01*
X186400Y29515D02*
Y66335D01*
X184400Y30601D02*
Y66335D01*
X184900Y30375D02*
Y66335D01*
X187900Y28314D02*
Y66335D01*
X188400Y27813D02*
Y66335D01*
X186900Y29158D02*
Y66335D01*
X187400Y28759D02*
Y66335D01*
X181400Y31430D02*
Y66526D01*
X180900Y31489D02*
Y66651D01*
X183168Y66335D02*
X188570D01*
X179900Y31542D02*
Y67005D01*
X180400Y31526D02*
Y66810D01*
X182900Y31122D02*
Y66339D01*
X183400Y30973D02*
Y66335D01*
X181900Y31350D02*
Y66432D01*
X182400Y31247D02*
Y66371D01*
X166400Y97000D02*
X167838D01*
X164900Y96132D02*
Y97436D01*
X165900Y96132D02*
Y97045D01*
X166900Y91030D02*
Y97000D01*
X166400Y91030D02*
Y97000D01*
X165400Y96132D02*
Y97185D01*
X166380Y91030D02*
Y96132D01*
X153400Y97200D02*
X165361D01*
X153400Y97700D02*
X164548D01*
X153400Y96700D02*
X167803D01*
X161000Y101240D02*
X164420Y97820D01*
X153400Y98200D02*
X164040D01*
X153400Y96200D02*
X167779D01*
X160380Y96132D02*
X166380D01*
X163900D02*
Y98340D01*
X164400Y96132D02*
Y97840D01*
X166380Y93700D02*
X167900D01*
X166380Y94200D02*
X167900D01*
X166380Y93200D02*
X167900D01*
X166380Y95200D02*
X167859D01*
X166380Y94700D02*
X167900D01*
Y92570D02*
Y94983D01*
Y92570D02*
Y94983D01*
X167380Y90700D02*
X167800D01*
X166900Y90620D02*
Y91030D01*
X167380Y90620D02*
X167800D01*
X166380Y92700D02*
X167900D01*
X166380Y95700D02*
X167797D01*
X166380Y92200D02*
X167800D01*
X166380Y91700D02*
X167800D01*
X166380Y91200D02*
X167800D01*
X166380Y91030D02*
X167380D01*
X166380Y90700D02*
X167380D01*
X161400Y96132D02*
Y100840D01*
X162400Y96132D02*
Y99840D01*
X160180Y103220D02*
Y137360D01*
X160900Y96132D02*
Y101346D01*
X160400Y96132D02*
Y102132D01*
X161900Y96132D02*
Y100340D01*
X159400Y91030D02*
Y138140D01*
X159900Y91030D02*
Y137640D01*
X153400Y102200D02*
X160372D01*
X153400Y102700D02*
X160229D01*
X153400Y101700D02*
X160628D01*
X153400Y103700D02*
X160180D01*
X153400Y103200D02*
X160180D01*
X153400Y100200D02*
X162040D01*
X153400Y99700D02*
X162540D01*
X153400Y101200D02*
X161040D01*
X153400Y100700D02*
X161540D01*
X163400Y96132D02*
Y98840D01*
X162900Y96132D02*
Y99340D01*
X153537Y92700D02*
X160380D01*
X153537Y92200D02*
X160380D01*
X153537Y91700D02*
X160380D01*
X159380Y91030D02*
X160380D01*
Y96132D01*
X153537Y90700D02*
X159380D01*
X153400Y98700D02*
X163540D01*
X153400Y99200D02*
X163040D01*
X153400Y95700D02*
X160380D01*
X153400Y95200D02*
X160380D01*
X153400Y94700D02*
X160380D01*
X153537Y93200D02*
X160380D01*
X153537Y91200D02*
X160380D01*
X153400Y94200D02*
X160380D01*
X153400Y93700D02*
X160380D01*
X174400Y57232D02*
Y80870D01*
X168630D02*
X177692D01*
X168630Y80700D02*
X177504D01*
X173400Y57135D02*
Y80870D01*
X173900Y57209D02*
Y80870D01*
X172400Y56824D02*
Y80870D01*
X171900Y56574D02*
Y80870D01*
X172900Y57008D02*
Y80870D01*
X170900Y55823D02*
Y80870D01*
X171400Y56247D02*
Y80870D01*
X168630Y79700D02*
X176595D01*
X168630Y80200D02*
X177012D01*
X168630Y79200D02*
X176238D01*
X168630Y78700D02*
X175933D01*
X168630Y78200D02*
X175674D01*
X168630Y77700D02*
X175456D01*
X168630Y77200D02*
X175276D01*
X168630Y76700D02*
X175130D01*
X168630Y76200D02*
X175018D01*
X168630Y69700D02*
X176495D01*
X168630Y70200D02*
X176153D01*
X168630Y69200D02*
X176895D01*
X168630Y71200D02*
X175613D01*
X168630Y70700D02*
X175861D01*
X168630Y67200D02*
X179479D01*
X168630Y67700D02*
X178608D01*
X168630Y66700D02*
X180734D01*
X168630Y68700D02*
X177366D01*
X168630Y68200D02*
X177926D01*
X168630Y75200D02*
X174888D01*
X168630Y75700D02*
X174938D01*
X168630Y73700D02*
X174922D01*
X168630Y74700D02*
X174869D01*
X168630Y74200D02*
X174880D01*
X168630Y72200D02*
X175234D01*
X168630Y71700D02*
X175405D01*
X168630Y73200D02*
X174994D01*
X168630Y72700D02*
X175098D01*
X167800Y90620D02*
Y92570D01*
X167400Y90620D02*
Y97000D01*
X167380Y90620D02*
Y91030D01*
X166380Y90620D02*
Y91030D01*
X166400Y90620D02*
Y91030D01*
X166380Y90620D02*
X167380D01*
X159380Y83976D02*
Y91030D01*
X153537Y90200D02*
X159380D01*
X158400Y83976D02*
Y138530D01*
X158900Y83976D02*
Y138530D01*
X153537Y88200D02*
X159380D01*
X153537Y88700D02*
X159380D01*
X153537Y87700D02*
X159380D01*
X153537Y89700D02*
X159380D01*
X153537Y89200D02*
X159380D01*
X153537Y86200D02*
X159380D01*
X153537Y85700D02*
X159380D01*
X153537Y87200D02*
X159380D01*
X153537Y86700D02*
X159380D01*
X168630Y73676D02*
Y75314D01*
Y73676D02*
Y75314D01*
Y65014D02*
Y73676D01*
X158130Y83976D02*
X159380D01*
X168630Y75314D02*
Y80870D01*
X169900Y54453D02*
Y80870D01*
X170400Y55259D02*
Y80870D01*
X168900Y57732D02*
Y80870D01*
X169400Y57732D02*
Y80870D01*
X153537Y84700D02*
X159380D01*
X153537Y85200D02*
X159380D01*
X153537Y84200D02*
X159380D01*
X153537Y70200D02*
X158130D01*
X153537Y69700D02*
X158130D01*
X156474Y67200D02*
X158130D01*
X156474Y66700D02*
X158130D01*
X153537Y69200D02*
X158130D01*
X153400Y67700D02*
X158130D01*
X168630Y65200D02*
X195725D01*
X167380Y64700D02*
X195725D01*
X167380Y63200D02*
X195725D01*
X168630Y66200D02*
X195725D01*
X168630Y65700D02*
X195725D01*
X174947Y57200D02*
X195725D01*
X169880Y57700D02*
X195725D01*
X176625Y56700D02*
X195725D01*
X167380Y62700D02*
X195725D01*
X167380Y62200D02*
X195725D01*
X167380Y60700D02*
X195725D01*
X167380Y61200D02*
X195725D01*
X167380Y60200D02*
X195725D01*
X167380Y64200D02*
X195725D01*
X167380Y61700D02*
X195725D01*
X167380Y58700D02*
X195725D01*
X167380Y58200D02*
X195725D01*
X167380Y59700D02*
X195725D01*
X167380Y59200D02*
X195725D01*
X179380Y52200D02*
X195725D01*
X179358Y52700D02*
X195725D01*
X179351Y51700D02*
X195725D01*
X179159Y53700D02*
X195725D01*
X179285Y53200D02*
X195725D01*
X184160Y30700D02*
X195725D01*
X182600Y31200D02*
X195725D01*
X186117Y29700D02*
X195725D01*
X179272Y51200D02*
X195725D01*
X179139Y50700D02*
X195725D01*
X178728Y54700D02*
X195725D01*
X178404Y55200D02*
X195725D01*
X178976Y54200D02*
X195725D01*
X177422Y56200D02*
X195725D01*
X177982Y55700D02*
X195725D01*
X176491Y47700D02*
X195725D01*
X169880Y47200D02*
X195725D01*
X177919Y48700D02*
X195725D01*
X177336Y48200D02*
X195725D01*
X169880Y57200D02*
X173813D01*
X169880Y54412D02*
Y57732D01*
Y55200D02*
X170356D01*
X183900Y30800D02*
Y66335D01*
X178948Y50200D02*
X195725D01*
X178900Y31510D02*
Y50095D01*
X168400Y57732D02*
Y65014D01*
X167380D02*
X168630D01*
X167380Y57732D02*
X169880D01*
X167400D02*
Y65014D01*
X167900Y57732D02*
Y65014D01*
X169880Y56700D02*
X172135D01*
X169880Y56200D02*
X171337D01*
X169880Y55700D02*
X170778D01*
X178691Y49700D02*
X195725D01*
X178400Y31463D02*
Y49259D01*
X178356Y49200D02*
X195725D01*
X177900Y31394D02*
Y48681D01*
X177400Y31302D02*
Y48247D01*
X176900Y31189D02*
Y47914D01*
X185250Y30200D02*
X195725D01*
X176400Y31052D02*
Y47659D01*
X175900Y30891D02*
Y47469D01*
X169880Y48200D02*
X171423D01*
X169880Y48700D02*
X170841D01*
X169880Y47700D02*
X172268D01*
X169880Y46732D02*
Y50053D01*
Y49200D02*
X170404D01*
X175400Y30706D02*
Y47337D01*
X174900Y30494D02*
Y47259D01*
X173900Y29984D02*
Y47255D01*
X174400Y30254D02*
Y47232D01*
X190727Y24200D02*
X195725D01*
X190508Y24700D02*
X195725D01*
X190919Y23700D02*
X195725D01*
X189983Y25700D02*
X195725D01*
X190261Y25200D02*
X195725D01*
X191445Y21700D02*
X195725D01*
X191349Y22200D02*
X195725D01*
X191235Y16724D02*
X195725Y21214D01*
X191086Y23200D02*
X195725D01*
X191229Y22700D02*
X195725D01*
X188505Y27700D02*
X195725D01*
X188019Y28200D02*
X195725D01*
X188938Y27200D02*
X195725D01*
X186844Y29200D02*
X195725D01*
X187470Y28700D02*
X195725D01*
X189325Y26700D02*
X195725D01*
X189672Y26200D02*
X195725D01*
X191573Y20700D02*
X195211D01*
X191520Y21200D02*
X195711D01*
X191605Y20200D02*
X194711D01*
X191615Y19700D02*
X194211D01*
X191605Y19200D02*
X193711D01*
X191573Y18700D02*
X193211D01*
X191520Y18200D02*
X192711D01*
X191445Y17700D02*
X192211D01*
X191400Y16889D02*
Y17452D01*
X191349Y17200D02*
X191711D01*
X181900Y7389D02*
Y8050D01*
X178840Y4329D02*
X182748Y8237D01*
X181400Y6889D02*
Y7970D01*
X180900Y6389D02*
Y7911D01*
X180400Y5889D02*
Y7874D01*
X172900Y29344D02*
Y47456D01*
X172400Y28967D02*
Y47641D01*
X173400Y29682D02*
Y47329D01*
X171400Y28075D02*
Y48217D01*
X171900Y28547D02*
Y47890D01*
X170900Y27543D02*
Y48642D01*
X170400Y26939D02*
Y49205D01*
X170900Y4329D02*
Y11857D01*
X169900Y4329D02*
Y13160D01*
X170400Y4329D02*
Y12461D01*
X169900Y26240D02*
Y50012D01*
X169400Y25414D02*
Y46732D01*
Y4329D02*
Y13986D01*
X168400Y23002D02*
Y46732D01*
X168900Y24393D02*
Y46732D01*
X168400Y4329D02*
Y16398D01*
X168900Y4329D02*
Y15007D01*
X167400Y4329D02*
Y46732D01*
X167900Y4329D02*
Y46732D01*
X179400Y4889D02*
Y7863D01*
X178900Y4389D02*
Y7890D01*
X179900Y5389D02*
Y7858D01*
X177900Y4329D02*
Y8006D01*
X178400Y4329D02*
Y7937D01*
X176900Y4329D02*
Y8211D01*
X177400Y4329D02*
Y8098D01*
X175900Y4329D02*
Y8509D01*
X176400Y4329D02*
Y8348D01*
X172900Y4329D02*
Y10056D01*
X172400Y4329D02*
Y10432D01*
X173400Y4329D02*
Y9718D01*
X171400Y4329D02*
Y11325D01*
X171900Y4329D02*
Y10853D01*
X174900Y4329D02*
Y8906D01*
X175400Y4329D02*
Y8694D01*
X173900Y4329D02*
Y9416D01*
X174400Y4329D02*
Y9146D01*
X167380Y63700D02*
X195725D01*
X151372Y60700D02*
X159380D01*
X127228Y60200D02*
X159380D01*
X126998Y59700D02*
X159380D01*
X126636Y59200D02*
X159380D01*
X158880Y46732D02*
X169880D01*
X104400Y46700D02*
X195725D01*
X104400Y46200D02*
X195725D01*
X159380Y57732D02*
Y65014D01*
X167380Y57732D02*
Y65014D01*
X104400Y44200D02*
X195725D01*
X104400Y44700D02*
X195725D01*
X104400Y43700D02*
X195725D01*
X104400Y45700D02*
X195725D01*
X104400Y45200D02*
X195725D01*
X104400Y42200D02*
X195725D01*
X104400Y41700D02*
X195725D01*
X104400Y43200D02*
X195725D01*
X104400Y42700D02*
X195725D01*
X104400Y35200D02*
X195725D01*
X104400Y35700D02*
X195725D01*
X104400Y34700D02*
X195725D01*
X104400Y36700D02*
X195725D01*
X104400Y36200D02*
X195725D01*
X104400Y32700D02*
X195725D01*
X104400Y33200D02*
X195725D01*
X104400Y32200D02*
X195725D01*
X104400Y34200D02*
X195725D01*
X104400Y33700D02*
X195725D01*
X104400Y39700D02*
X195725D01*
X104400Y40200D02*
X195725D01*
X104400Y39200D02*
X195725D01*
X104400Y41200D02*
X195725D01*
X104400Y40700D02*
X195725D01*
X104400Y37700D02*
X195725D01*
X104400Y37200D02*
X195725D01*
X104400Y38700D02*
X195725D01*
X104400Y38200D02*
X195725D01*
X156474Y64200D02*
X159380D01*
X156474Y64700D02*
X159380D01*
X156474Y63700D02*
X159380D01*
X156474Y65200D02*
X158130D01*
Y65014D02*
X159380D01*
X156474Y62700D02*
X159380D01*
X156474Y63200D02*
X159380D01*
X158880Y57732D02*
X159380D01*
X158900D02*
Y65014D01*
X158880Y46732D02*
Y57732D01*
X153400Y61200D02*
X159380D01*
X126143Y58700D02*
X159380D01*
X125558Y58200D02*
X159380D01*
X156474Y62200D02*
X159380D01*
X156474Y61700D02*
X159380D01*
X104400Y56700D02*
X158880D01*
X104400Y56200D02*
X158880D01*
X123900Y57700D02*
X158880D01*
X104400Y57200D02*
X158880D01*
X104400Y49700D02*
X158880D01*
X104400Y50200D02*
X158880D01*
X104400Y49200D02*
X158880D01*
X104400Y51200D02*
X158880D01*
X104400Y50700D02*
X158880D01*
X104400Y47700D02*
X158880D01*
X104400Y47200D02*
X158880D01*
X104400Y48700D02*
X158880D01*
X104400Y48200D02*
X158880D01*
X104400Y54200D02*
X158880D01*
X104400Y54700D02*
X158880D01*
X104400Y53700D02*
X158880D01*
X104400Y55700D02*
X158880D01*
X104400Y55200D02*
X158880D01*
X104400Y52200D02*
X158880D01*
X104400Y51700D02*
X158880D01*
X104400Y53200D02*
X158880D01*
X104400Y52700D02*
X158880D01*
X119981Y26700D02*
X170221D01*
X119801Y27200D02*
X170608D01*
X120109Y26200D02*
X169874D01*
X120188Y25700D02*
X169563D01*
X120222Y25200D02*
X169285D01*
X135065Y13700D02*
X169563D01*
X135065Y14200D02*
X169285D01*
X135065Y13200D02*
X169874D01*
X120223Y24700D02*
X169038D01*
X135065Y14700D02*
X169038D01*
X104400Y31200D02*
X176945D01*
X104400Y31700D02*
X195725D01*
X107411Y30700D02*
X175386D01*
X116800Y30200D02*
X174296D01*
X117741Y29700D02*
X173429D01*
X118387Y29200D02*
X172702D01*
X118877Y28700D02*
X172076D01*
X119261Y28200D02*
X171527D01*
X119564Y27700D02*
X171041D01*
X135065Y11200D02*
X171527D01*
X135065Y11700D02*
X171041D01*
X135065Y10700D02*
X172076D01*
X135065Y12700D02*
X170221D01*
X135065Y12200D02*
X170608D01*
X134988Y9200D02*
X174296D01*
X134903Y8700D02*
X175386D01*
X135064Y10200D02*
X172702D01*
X135041Y9700D02*
X173429D01*
X134637Y7700D02*
X182211D01*
X134452Y7200D02*
X181711D01*
X134229Y6700D02*
X181211D01*
X134787Y8200D02*
X176945D01*
X133964Y6200D02*
X180711D01*
X133653Y5700D02*
X180211D01*
X133290Y5200D02*
X179711D01*
X132863Y4700D02*
X179211D01*
X132499Y4329D02*
X178840D01*
X163900D02*
Y46732D01*
X163400Y4329D02*
Y46732D01*
X164400Y4329D02*
Y46732D01*
X162400Y4329D02*
Y46732D01*
X162900Y4329D02*
Y46732D01*
X166400Y4329D02*
Y46732D01*
X165900Y4329D02*
Y46732D01*
X166900Y4329D02*
Y46732D01*
X164900Y4329D02*
Y46732D01*
X165400Y4329D02*
Y46732D01*
X159900Y4329D02*
Y46732D01*
X159400Y4329D02*
Y46732D01*
X120223Y24200D02*
X168819D01*
X158400Y4329D02*
Y65014D01*
X158900Y4329D02*
Y46732D01*
X161400Y4329D02*
Y46732D01*
X161900Y4329D02*
Y46732D01*
X160400Y4329D02*
Y46732D01*
X160900Y4329D02*
Y46732D01*
X134828Y17700D02*
X168100D01*
X134689Y18200D02*
X168026D01*
X134934Y17200D02*
X168197D01*
X134306Y19200D02*
X167941D01*
X134516Y18700D02*
X167973D01*
X135065Y15700D02*
X168626D01*
X135065Y15200D02*
X168819D01*
X135008Y16700D02*
X168317D01*
X135052Y16200D02*
X168459D01*
X130386Y23200D02*
X168459D01*
X129086Y23700D02*
X168626D01*
X131274Y22700D02*
X168317D01*
X131966Y22200D02*
X168197D01*
X132533Y21700D02*
X168100D01*
X133009Y21200D02*
X168026D01*
X133414Y20700D02*
X167973D01*
X133760Y20200D02*
X167941D01*
X134055Y19700D02*
X167930D01*
X140900Y103021D02*
X140900Y105068D01*
X134636Y103700D02*
X140900D01*
X134136Y103200D02*
X140900D01*
X140900Y103021D02*
Y105068D01*
X133956Y103021D02*
X140900D01*
X153400Y93532D02*
Y105068D01*
Y93532D02*
Y105068D01*
X140900Y93532D02*
Y94261D01*
X140900Y92200D02*
X140900Y93532D01*
X131548Y89700D02*
X140663D01*
X131321Y94200D02*
X140900D01*
X131321Y94261D02*
X140900D01*
X131321Y93700D02*
X140900D01*
X131321Y93200D02*
X140663D01*
X131321Y92700D02*
X140663D01*
X131321Y91200D02*
X140663D01*
X131548Y89200D02*
X140663D01*
X131321Y92200D02*
X140663D01*
X131321Y91700D02*
X140663D01*
X153537Y82200D02*
X158130D01*
X153537Y82700D02*
X158130D01*
X153537Y81700D02*
X158130D01*
X153537Y83700D02*
X158130D01*
X153537Y83200D02*
X158130D01*
X153537Y79200D02*
X158130D01*
X153537Y79700D02*
X158130D01*
X153537Y78700D02*
X158130D01*
X153537Y81200D02*
X158130D01*
X153537Y80200D02*
X158130D01*
X131548Y84200D02*
X140663D01*
X131548Y87700D02*
X140663D01*
X131321Y83200D02*
X140663D01*
X131548Y88700D02*
X140663D01*
X131548Y88200D02*
X140663D01*
X131321Y81700D02*
X140663D01*
X153537Y80700D02*
X158130D01*
X131321Y82700D02*
X140663D01*
X131321Y82200D02*
X140663D01*
X137900Y103021D02*
Y107137D01*
X137400Y103021D02*
Y106464D01*
X136900Y103021D02*
Y105964D01*
X136400Y103021D02*
Y105464D01*
X135900Y103021D02*
Y104964D01*
X140400Y103021D02*
Y136937D01*
X139900Y103021D02*
Y136437D01*
X139400Y103021D02*
Y135937D01*
X138900Y103021D02*
Y135437D01*
X138400Y103021D02*
Y134937D01*
X135400Y103021D02*
Y104464D01*
X133956Y103021D02*
X137408Y106472D01*
X134900Y103021D02*
Y103964D01*
X134400Y103021D02*
Y103464D01*
X131321Y91102D02*
Y94261D01*
X131400Y90154D02*
Y94261D01*
X130400Y90154D02*
Y91102D01*
X129400Y90154D02*
Y91102D01*
X129900Y90154D02*
Y91102D01*
X131548Y85700D02*
X140663D01*
X131548Y86200D02*
X140663D01*
X131548Y85200D02*
X140663D01*
X131548Y87200D02*
X140663D01*
X131548Y86700D02*
X140663D01*
X131548Y84700D02*
X140663D01*
X131321Y80200D02*
X140663D01*
X131548Y84154D02*
Y90154D01*
X131321Y79700D02*
X140663D01*
X130900Y83217D02*
Y84154D01*
Y90154D02*
Y91102D01*
X130400Y83217D02*
Y84154D01*
X129400Y83217D02*
Y84154D01*
X129900Y83217D02*
Y84154D01*
X131321Y79200D02*
X140663D01*
X131321Y78700D02*
X140663D01*
X131321Y81200D02*
X140663D01*
X131321Y80700D02*
X140663D01*
X156400Y67232D02*
Y130392D01*
X155900Y67232D02*
Y130392D01*
X158130Y75314D02*
Y83976D01*
X153900Y67232D02*
Y130392D01*
X155400Y67232D02*
Y130392D01*
X157400Y4329D02*
Y138530D01*
X156900Y4329D02*
Y138530D01*
X157900Y4329D02*
Y138530D01*
X154400Y67232D02*
Y130392D01*
X154900Y67232D02*
Y130392D01*
X153537Y77700D02*
X158130D01*
X153537Y78200D02*
X158130D01*
X153537Y77200D02*
X158130D01*
X131321Y78200D02*
X140663D01*
X131321Y77700D02*
X140663D01*
X153537Y76700D02*
X158130D01*
X153537Y76200D02*
X158130D01*
X153537Y68060D02*
Y93532D01*
X131268Y76200D02*
X140663D01*
X153537Y74200D02*
X158130D01*
X153537Y74700D02*
X158130D01*
X153537Y73700D02*
X158130D01*
X153537Y75700D02*
X158130D01*
X153537Y75200D02*
X158130D01*
Y65014D02*
Y73676D01*
X153537Y71200D02*
X158130D01*
X153537Y70700D02*
X158130D01*
Y73676D02*
Y75314D01*
Y73676D02*
Y75314D01*
X153537Y73200D02*
X158130D01*
X131268Y75700D02*
X140663D01*
X153537Y72700D02*
X158130D01*
X131268Y75200D02*
X140663D01*
X131268Y73200D02*
X140663D01*
X153537Y72200D02*
X158130D01*
X153537Y71700D02*
X158130D01*
X131268Y72700D02*
X140663D01*
X131268Y72200D02*
X140663D01*
X140400Y4329D02*
Y94261D01*
X139900Y4329D02*
Y94261D01*
X140663Y68060D02*
Y93532D01*
X138900Y4329D02*
Y94261D01*
X139400Y4329D02*
Y94261D01*
X137900Y4329D02*
Y94261D01*
X137400Y4329D02*
Y94261D01*
X138400Y4329D02*
Y94261D01*
X136400Y4329D02*
Y94261D01*
X136900Y4329D02*
Y94261D01*
X133400Y20718D02*
Y94261D01*
X132900Y21322D02*
Y94261D01*
X133900Y19972D02*
Y94261D01*
X131900Y22252D02*
Y94261D01*
X132400Y21826D02*
Y94261D01*
X135400Y4329D02*
Y94261D01*
X135900Y4329D02*
Y94261D01*
X134400Y18987D02*
Y94261D01*
X134900Y17379D02*
Y94261D01*
X131268Y73700D02*
X140663D01*
X131268Y74200D02*
X140663D01*
X131268Y71700D02*
X140663D01*
X131321Y77217D02*
Y83217D01*
X131268Y74700D02*
X140663D01*
X131268Y71200D02*
X140663D01*
X131268Y70700D02*
X140663D01*
X131400Y22617D02*
Y84154D01*
X131268Y70275D02*
Y76275D01*
X130400D02*
Y77217D01*
X129900Y76275D02*
Y77217D01*
X130900Y76275D02*
Y77217D01*
X128900Y76275D02*
Y77217D01*
X129400Y76275D02*
Y77217D01*
X130400Y69332D02*
Y70275D01*
X130900Y69332D02*
Y70275D01*
X129400Y69332D02*
Y70275D01*
X129900Y69332D02*
Y70275D01*
X128400Y90154D02*
Y91102D01*
X127900Y90154D02*
Y91102D01*
X128900Y90154D02*
Y91102D01*
X126900Y90154D02*
Y91102D01*
X127400Y90154D02*
Y91102D01*
X128900Y83217D02*
Y84154D01*
X128400Y83217D02*
Y84154D01*
X126249Y90200D02*
X140663D01*
X126249Y90700D02*
X140663D01*
X126249Y90154D02*
X131548D01*
X126249D02*
Y91102D01*
X131321D01*
X126400Y90154D02*
Y91102D01*
X126249Y84154D02*
X131548D01*
X126218Y90154D02*
Y91102D01*
X126249Y83217D02*
Y84154D01*
X127900Y83217D02*
Y84154D01*
X127400Y83217D02*
Y84154D01*
X126400Y83217D02*
Y84154D01*
X126900Y83217D02*
Y84154D01*
X127400Y76275D02*
Y77217D01*
X126400Y76275D02*
Y77217D01*
X126900Y76275D02*
Y77217D01*
X126249Y83700D02*
X140663D01*
X125753Y84154D02*
X126218D01*
X126249Y83217D02*
X131321D01*
X126218D02*
Y84154D01*
X125812Y83700D02*
X126218D01*
Y77200D02*
X140663D01*
X126218Y76700D02*
X140663D01*
X125822Y83217D02*
X126218D01*
Y77217D02*
X131321D01*
X96962Y90067D02*
Y108734D01*
X93902Y102200D02*
X96962D01*
X93902Y103200D02*
X96962D01*
X93902Y102700D02*
X96962D01*
X125900Y83217D02*
Y84154D01*
X96990Y87705D02*
Y89573D01*
X93902Y100700D02*
X96962D01*
X93902Y101200D02*
X96962D01*
X93902Y99200D02*
X96962D01*
X93902Y103700D02*
X96962D01*
X93902Y101700D02*
X96962D01*
X93902Y98700D02*
X96962D01*
X93902Y98200D02*
X96962D01*
X93902Y97584D02*
Y110600D01*
Y97700D02*
X96962D01*
X113979Y79630D02*
Y81172D01*
X125795Y77217D02*
X126165D01*
X113400Y79051D02*
Y81316D01*
X113900Y79551D02*
Y81192D01*
X125795Y77200D02*
X126165D01*
X125795Y76700D02*
X126165D01*
X125795Y76719D02*
Y77217D01*
X125900Y76275D02*
Y77217D01*
X112900Y78551D02*
Y81316D01*
X110076D02*
X113532D01*
X106650Y81410D02*
X109301D01*
X111900Y77551D02*
Y81316D01*
X112400Y78051D02*
Y81316D01*
X110900Y76551D02*
Y81316D01*
X111400Y77051D02*
Y81316D01*
X128400Y76275D02*
Y77217D01*
X127900Y76275D02*
Y77217D01*
X126218Y76275D02*
X131268D01*
X126218D02*
Y77217D01*
X125795Y76275D02*
Y76719D01*
X126165Y76275D02*
Y77217D01*
X125795Y76275D02*
X126165D01*
X116948Y72700D02*
X117425D01*
X116448Y72200D02*
X117425D01*
X115948Y71700D02*
X117425D01*
Y71000D02*
Y73177D01*
X117400Y71000D02*
Y73152D01*
X104400Y60152D02*
X117425Y73177D01*
X116900Y71000D02*
Y72652D01*
X116400Y70976D02*
Y72152D01*
X115900Y70868D02*
Y71652D01*
X128400Y69332D02*
Y70275D01*
X126165D02*
X131268D01*
X126165Y70200D02*
X140663D01*
X127400Y69332D02*
Y70275D01*
X127900Y69332D02*
Y70275D01*
X126900Y69332D02*
Y70275D01*
X126400Y69332D02*
Y70275D01*
X128900Y69332D02*
Y70275D01*
X126165Y69332D02*
Y70275D01*
Y69332D02*
Y70275D01*
X125795D02*
X126165D01*
X116779Y71000D02*
X117425D01*
X125795Y70200D02*
X126165D01*
X115448Y71200D02*
X117425D01*
X114948Y70700D02*
X115471D01*
X125795Y69332D02*
Y70275D01*
X125900Y69332D02*
Y70275D01*
X103400Y69051D02*
Y83630D01*
X102900Y68551D02*
Y83432D01*
X102400Y68051D02*
Y83298D01*
X101900Y67551D02*
Y83223D01*
X101400Y67051D02*
Y83206D01*
X100400Y66051D02*
Y83339D01*
X99900Y65551D02*
Y83495D01*
X100900Y66551D02*
Y83244D01*
X98900Y64551D02*
Y84025D01*
X99400Y65051D02*
Y83719D01*
X97900Y63488D02*
Y84991D01*
X97400Y61892D02*
Y85827D01*
X98400Y64051D02*
Y84433D01*
X94900Y39200D02*
Y110600D01*
X96400Y39200D02*
Y109296D01*
X95900Y39200D02*
Y109796D01*
X96900Y31112D02*
Y108796D01*
X94400Y39200D02*
Y110600D01*
X95400Y39200D02*
Y110296D01*
X109900Y75551D02*
Y81321D01*
X109400Y75051D02*
Y81387D01*
X110400Y76051D02*
Y81316D01*
X108400Y74051D02*
Y81410D01*
X108900Y74551D02*
Y81410D01*
X115400Y70665D02*
Y71152D01*
X114900Y70339D02*
Y70652D01*
X107900Y73551D02*
Y81410D01*
X113780Y69244D02*
X114656Y70120D01*
X106900Y72551D02*
Y81410D01*
X106400Y72051D02*
Y81420D01*
X107400Y73051D02*
Y81410D01*
X105400Y71051D02*
Y81669D01*
X105900Y71551D02*
Y81501D01*
X104900Y70551D02*
Y81941D01*
X98220Y63872D02*
X113979Y79630D01*
X103900Y69551D02*
Y83024D01*
X104400Y70051D02*
Y82355D01*
X153537Y68200D02*
X158130D01*
X153537Y68700D02*
X158130D01*
X153400Y67232D02*
X156474D01*
X153400D02*
Y68060D01*
Y67232D02*
Y68060D01*
X156474Y66200D02*
X158130D01*
X156474Y61232D02*
Y67232D01*
Y65700D02*
X158130D01*
X141400Y61200D02*
Y68060D01*
Y61200D02*
X141429Y68060D01*
X131268Y68200D02*
X140663D01*
X131268Y68700D02*
X140663D01*
Y68060D02*
X141429D01*
X126165Y69700D02*
X140663D01*
X131268Y69200D02*
X140663D01*
X131268Y67700D02*
X141428D01*
X131268Y67200D02*
X141426D01*
X131268Y66700D02*
X141423D01*
X131268Y66200D02*
X141421D01*
X153400Y61232D02*
X156474D01*
X151372Y61200D02*
X153400D01*
X151372D02*
X153400D01*
X131268Y64700D02*
X141415D01*
X131268Y64200D02*
X141413D01*
X151372Y60232D02*
Y61200D01*
X141400D02*
X142631D01*
Y60232D02*
X151372D01*
X142631D02*
Y61200D01*
X141400D02*
X142631D01*
X131268Y65200D02*
X141417D01*
X131268Y65700D02*
X141419D01*
X131268Y63700D02*
X141411D01*
X127272Y63200D02*
X141409D01*
X127377Y62700D02*
X141406D01*
X127400Y62200D02*
X141404D01*
X127358Y60700D02*
X142631D01*
X127400Y61700D02*
X141402D01*
X127400Y61200D02*
X141400D01*
X131268Y63332D02*
Y69332D01*
X127400Y62354D02*
Y63332D01*
X128400Y23868D02*
Y63332D01*
X127900Y23953D02*
Y63332D01*
X128900Y23752D02*
Y63332D01*
X127400Y62328D02*
X127400Y61200D01*
X127400Y24007D02*
Y61176D01*
X127228Y63332D02*
X131268D01*
X126165Y69332D02*
X131268D01*
X125795Y69700D02*
X126165D01*
X125795Y69332D02*
X126165D01*
X127400Y61176D02*
Y62354D01*
X126900Y24030D02*
Y59541D01*
X126400Y24023D02*
Y58957D01*
X126023Y58580D02*
X126520Y59078D01*
X125900Y23986D02*
Y58464D01*
X125400Y23918D02*
Y58102D01*
X124900Y23819D02*
Y57872D01*
X124400Y23687D02*
Y57742D01*
X120223Y23700D02*
X124446D01*
X117900Y57700D02*
X123900D01*
X117900Y29590D02*
Y57700D01*
X123900D01*
X116900Y30158D02*
Y57872D01*
X117400Y29908D02*
Y57742D01*
X119400Y27985D02*
Y57700D01*
X119900Y26944D02*
Y57700D01*
X118400Y29188D02*
Y57700D01*
X118900Y28673D02*
Y57700D01*
X153900Y4329D02*
Y61232D01*
X153400Y4329D02*
Y61200D01*
X152900Y4329D02*
Y61200D01*
X151900Y4329D02*
Y61200D01*
X152400Y4329D02*
Y61200D01*
X155900Y4329D02*
Y61232D01*
X155400Y4329D02*
Y61232D01*
X156400Y4329D02*
Y61232D01*
X154400Y4329D02*
Y61232D01*
X154900Y4329D02*
Y61232D01*
X142400Y4329D02*
Y61200D01*
X141900Y4329D02*
Y61200D01*
X148400Y4329D02*
Y60232D01*
X140900Y4329D02*
Y68060D01*
X141400Y4329D02*
Y61200D01*
X151400Y4329D02*
Y61200D01*
X150900Y4329D02*
Y60232D01*
X148900Y4329D02*
Y60232D01*
X149400Y4329D02*
Y60232D01*
X145900Y4329D02*
Y60232D01*
X145400Y4329D02*
Y60232D01*
X146400Y4329D02*
Y60232D01*
X144400Y4329D02*
Y60232D01*
X144900Y4329D02*
Y60232D01*
X149900Y4329D02*
Y60232D01*
X147900Y4329D02*
Y60232D01*
X150400Y4329D02*
Y60232D01*
X146900Y4329D02*
Y60232D01*
X147400Y4329D02*
Y60232D01*
X143900Y4329D02*
Y60232D01*
X142900Y4329D02*
Y60232D01*
X135065Y10330D02*
Y15732D01*
X143400Y4329D02*
Y60232D01*
X134900Y4329D02*
Y8683D01*
X134400Y4329D02*
Y7075D01*
X129900Y23416D02*
Y63332D01*
X129400Y23602D02*
Y63332D01*
X130400Y23193D02*
Y63332D01*
X123400Y23318D02*
Y57700D01*
X123900Y23520D02*
Y57700D01*
X130900Y22928D02*
Y63332D01*
X122900Y23076D02*
Y57700D01*
X121900Y22455D02*
Y57700D01*
X122400Y22790D02*
Y57700D01*
X120223Y22700D02*
X122258D01*
X120223Y23200D02*
X123146D01*
X120222Y22200D02*
X121566D01*
X121400Y22063D02*
Y57700D01*
X120223Y22322D02*
Y25078D01*
X120900Y21603D02*
Y57700D01*
X120188Y21700D02*
X120999D01*
X120400Y21056D02*
Y57700D01*
X133900Y4329D02*
Y6090D01*
X133400Y4329D02*
Y5344D01*
X132900Y4329D02*
Y4740D01*
X120109Y21200D02*
X120523D01*
X118900Y18378D02*
Y18727D01*
X119900Y4329D02*
Y5668D01*
X120400Y4329D02*
Y5006D01*
X118900Y4329D02*
Y7684D01*
X119400Y4329D02*
Y6507D01*
X118387Y18200D02*
X118842D01*
X117741Y17700D02*
X118704D01*
X118467Y10330D02*
Y15732D01*
X118400Y4329D02*
Y18212D01*
X117900Y4329D02*
Y17810D01*
X117400Y4329D02*
Y17492D01*
X113400Y68780D02*
Y69152D01*
X112948Y68700D02*
X113349D01*
X112900Y67121D02*
Y68652D01*
Y62700D02*
Y67121D01*
Y62700D02*
Y67121D01*
Y30328D02*
Y62700D01*
X112448Y68200D02*
X113101D01*
X111948Y67700D02*
X112956D01*
X111448Y67200D02*
X112901D01*
X110948Y66700D02*
X112900D01*
X110448Y66200D02*
X112900D01*
X106948Y62700D02*
X112900D01*
X106448Y62200D02*
X112942D01*
X109948Y65700D02*
X112900D01*
X107448Y63200D02*
X112900D01*
X113780Y60577D02*
X115778Y58580D01*
X114400Y30614D02*
Y59957D01*
X114900Y30617D02*
Y59457D01*
X115900Y30486D02*
Y58464D01*
X115400Y30575D02*
Y58957D01*
X116400Y30348D02*
Y58102D01*
X113400Y30472D02*
Y61042D01*
X113900Y30566D02*
Y60457D01*
X104948Y60700D02*
X113664D01*
X104448Y60200D02*
X114157D01*
X104400Y59700D02*
X114657D01*
X105948Y61700D02*
X113072D01*
X105448Y61200D02*
X113302D01*
X104400Y58200D02*
X116242D01*
X104400Y57700D02*
X117900D01*
X104400Y59200D02*
X115157D01*
X104400Y58700D02*
X115657D01*
X109448Y65200D02*
X112900D01*
X108948Y64700D02*
X112900D01*
X108448Y64200D02*
X112900D01*
X107948Y63700D02*
X112900D01*
X105400Y31119D02*
Y61152D01*
X107900Y30477D02*
Y63652D01*
X107400Y30704D02*
Y63152D01*
X106900Y30878D02*
Y62652D01*
X106400Y31003D02*
Y62152D01*
X105900Y31083D02*
Y61652D01*
X104900Y31112D02*
Y60652D01*
X96592Y33200D02*
Y39200D01*
X97400D01*
X104400Y31062D02*
Y60152D01*
Y31062D02*
Y60152D01*
X97400Y31062D02*
Y61892D01*
Y31062D02*
Y61892D01*
X96592Y37200D02*
X97400D01*
X96592Y37700D02*
X97400D01*
X96592Y36700D02*
X97400D01*
X96592Y38700D02*
X97400D01*
X96592Y38200D02*
X97400D01*
X96592Y35200D02*
X97400D01*
X108381Y30200D02*
X112560D01*
X96592Y36200D02*
X97400D01*
X96592Y35700D02*
X97400D01*
X96592Y34200D02*
X97400D01*
X96592Y34700D02*
X97400D01*
X96592Y33700D02*
X97400D01*
X96400Y31119D02*
Y33200D01*
X96592D02*
X97400D01*
X95400Y31003D02*
Y33200D01*
X95900Y31083D02*
Y33200D01*
X94400Y30704D02*
Y33200D01*
X94900Y30878D02*
Y33200D01*
X112400Y30131D02*
Y68152D01*
X111900Y29874D02*
Y67652D01*
X111400Y29547D02*
Y67152D01*
X110900Y29133D02*
Y66652D01*
X110400Y28601D02*
Y66152D01*
Y4329D02*
Y18799D01*
X109564Y29200D02*
X110973D01*
X109052Y29700D02*
X111619D01*
X109969Y28700D02*
X110483D01*
X109900Y28794D02*
Y65652D01*
X109969Y18700D02*
X110483D01*
X109900Y4329D02*
Y18606D01*
X116900Y4329D02*
Y17242D01*
X116800Y17200D02*
X118598D01*
X116400Y4329D02*
Y17052D01*
X115900Y4329D02*
Y16914D01*
X115400Y4329D02*
Y16826D01*
X114400Y4329D02*
Y16786D01*
X114900Y4329D02*
Y16783D01*
X113400Y4329D02*
Y16928D01*
X113900Y4329D02*
Y16834D01*
X112400Y4329D02*
Y17269D01*
X108381Y17200D02*
X112560D01*
X107411Y16700D02*
X118524D01*
X109564Y18200D02*
X110973D01*
X109052Y17700D02*
X111619D01*
X111900Y4329D02*
Y17526D01*
X112900Y4329D02*
Y17072D01*
X110900Y4329D02*
Y18267D01*
X111400Y4329D02*
Y17853D01*
X109400Y29374D02*
Y65152D01*
X108900Y29827D02*
Y64652D01*
X109400Y4329D02*
Y18026D01*
X108400Y30188D02*
Y64152D01*
X108900Y4329D02*
Y17573D01*
X108400Y4329D02*
Y17212D01*
X107900Y4329D02*
Y16923D01*
X102900Y4329D02*
Y16763D01*
X101900Y4329D02*
Y17320D01*
X102400Y4329D02*
Y17010D01*
X100390Y17700D02*
X101410D01*
X99720Y17200D02*
X102080D01*
X98749Y16700D02*
X103051D01*
X100400Y4329D02*
Y17708D01*
X101400Y4329D02*
Y17708D01*
X100900Y4329D02*
Y18198D01*
X99900Y4329D02*
Y17320D01*
X99400Y4329D02*
Y17010D01*
X98900Y4329D02*
Y16763D01*
X104900Y4329D02*
Y16288D01*
X104400Y4329D02*
Y16338D01*
X105400Y4329D02*
Y16281D01*
X103400Y4329D02*
Y16573D01*
X103900Y4329D02*
Y16432D01*
X107400Y4329D02*
Y16696D01*
X106900Y4329D02*
Y16522D01*
X106400Y4329D02*
Y16397D01*
X105900Y4329D02*
Y16317D01*
X95900Y4329D02*
Y16317D01*
X95400Y4329D02*
Y16397D01*
X96400Y4329D02*
Y16281D01*
X94400Y4329D02*
Y16696D01*
X94900Y4329D02*
Y16522D01*
X98400Y4329D02*
Y16573D01*
X97900Y4329D02*
Y16432D01*
X97400Y4329D02*
Y16338D01*
X96900Y4329D02*
Y16288D01*
X83269Y190700D02*
X118531D01*
X83191Y191200D02*
X118609D01*
X83316Y190200D02*
X118484D01*
X93900Y183077D02*
Y195571D01*
X83333Y189700D02*
X118467D01*
X92900Y182427D02*
Y195571D01*
X92400Y181974D02*
Y195571D01*
X93400Y182788D02*
Y195571D01*
X91400Y181201D02*
Y195571D01*
X91900Y181394D02*
Y195571D01*
X81222Y195200D02*
X120578D01*
X80870Y195571D02*
X120931D01*
X81635Y194700D02*
X120165D01*
X81988Y194200D02*
X119812D01*
X82289Y193700D02*
X119511D01*
X82545Y193200D02*
X119255D01*
X82760Y192700D02*
X119040D01*
X82938Y192200D02*
X118862D01*
X83081Y191700D02*
X118719D01*
X83333Y187700D02*
X118467D01*
X83333Y189200D02*
X118467D01*
X83333Y187200D02*
X118467D01*
X83333Y186700D02*
X118467D01*
X87608Y183200D02*
X94155D01*
X89467Y182700D02*
X93267D01*
X90326Y182200D02*
X92635D01*
X90935Y181700D02*
X92147D01*
X91401Y181200D02*
X91760D01*
X83333Y185700D02*
X118467D01*
X83333Y186200D02*
X118467D01*
X83333Y185200D02*
X118467D01*
X83333Y188700D02*
X118467D01*
X83333Y188200D02*
X118467D01*
X83333Y184700D02*
X118467D01*
X83333Y184200D02*
X118467D01*
X83314Y183700D02*
X96068D01*
X87400Y183214D02*
Y195571D01*
X86900Y183217D02*
Y195571D01*
X87900Y183166D02*
Y195571D01*
X85900Y183086D02*
Y195571D01*
X86400Y183175D02*
Y195571D01*
X90400Y182147D02*
Y195571D01*
X89900Y182474D02*
Y195571D01*
X90900Y181733D02*
Y195571D01*
X84900Y182758D02*
Y195571D01*
X85400Y182948D02*
Y195571D01*
X82400Y193493D02*
Y195571D01*
X81400Y194994D02*
Y195571D01*
X82900Y192316D02*
Y195571D01*
X68400Y194656D02*
Y195571D01*
X68900Y195260D02*
Y195571D01*
X83900Y182190D02*
Y195571D01*
X84400Y182508D02*
Y195571D01*
X83400Y181788D02*
Y195571D01*
X88900Y182928D02*
Y195571D01*
X88400Y183072D02*
Y195571D01*
X89400Y182731D02*
Y195571D01*
X83333Y184268D02*
Y189670D01*
X83264Y183200D02*
X86632D01*
X83183Y182700D02*
X84773D01*
X83071Y182200D02*
X83913D01*
X82926Y181700D02*
X83305D01*
X82900Y181273D02*
Y181622D01*
X81900Y194332D02*
Y195571D01*
X81188Y178700D02*
X81672D01*
X80695Y178200D02*
X81601D01*
X80107Y177700D02*
X81577D01*
X79383Y177200D02*
X81577D01*
X78440Y176700D02*
X81577D01*
X91228Y171200D02*
X91905D01*
X90712Y170700D02*
X92329D01*
X90900Y155970D02*
Y170867D01*
X90400Y155997D02*
Y170453D01*
X92900Y154843D02*
Y170173D01*
X92400Y155321D02*
Y170626D01*
X93400Y154343D02*
Y169812D01*
X91400Y155859D02*
Y171399D01*
X91900Y155652D02*
Y171206D01*
X90024Y170200D02*
X92867D01*
X88980Y169700D02*
X93581D01*
X89900Y155997D02*
Y170126D01*
X89400Y155997D02*
Y169869D01*
X84900Y155997D02*
Y169842D01*
X86900Y155997D02*
Y169383D01*
X86400Y155997D02*
Y169425D01*
X72696Y163700D02*
X97400D01*
X85400Y155997D02*
Y169652D01*
X85900Y155997D02*
Y169514D01*
X88900Y155997D02*
Y169672D01*
X88400Y155997D02*
Y169528D01*
X93900Y153843D02*
Y169523D01*
X87900Y155997D02*
Y169434D01*
X87400Y155997D02*
Y169386D01*
X69696Y166700D02*
X97400D01*
X69196Y167200D02*
X97400D01*
X70196Y166200D02*
X97400D01*
X68196Y168200D02*
X97400D01*
X68696Y167700D02*
X97400D01*
X71696Y164700D02*
X97400D01*
X72196Y164200D02*
X97400D01*
X70696Y165700D02*
X97400D01*
X71196Y165200D02*
X97400D01*
X81577Y174922D02*
Y177678D01*
X78900Y157495D02*
Y176925D01*
X78400Y157996D02*
Y176682D01*
X77900Y158496D02*
Y176480D01*
X81400Y155852D02*
Y178944D01*
X80900Y155639D02*
Y178397D01*
X80400Y155301D02*
Y177937D01*
X79900Y156053D02*
Y177545D01*
X79400Y156896D02*
Y177210D01*
X69400Y166996D02*
Y178174D01*
X68900Y167496D02*
Y178678D01*
X69900Y166496D02*
Y177748D01*
X67900Y168496D02*
Y180028D01*
X68400Y167996D02*
Y179282D01*
X71400Y164996D02*
Y176807D01*
X71900Y164496D02*
Y176584D01*
X70400Y165996D02*
Y177383D01*
X70900Y165496D02*
Y177072D01*
X83400Y155997D02*
Y170812D01*
X76978Y176200D02*
X81577D01*
X83900Y155997D02*
Y170410D01*
X77400Y158996D02*
Y176313D01*
X76900Y159496D02*
Y176181D01*
X82900Y155997D02*
Y171327D01*
X84400Y155997D02*
Y170092D01*
X81900Y155967D02*
Y173056D01*
X82400Y155997D02*
Y172015D01*
X73900Y162496D02*
Y176047D01*
X73400Y162996D02*
Y176131D01*
X74400Y161996D02*
Y175993D01*
X72400Y163996D02*
Y176398D01*
X72900Y163496D02*
Y176248D01*
X76400Y159996D02*
Y176082D01*
X75900Y160496D02*
Y176014D01*
X75400Y160996D02*
Y175977D01*
X74900Y161496D02*
Y175970D01*
X67900Y193910D02*
Y195571D01*
X67400Y192925D02*
Y195571D01*
X31191Y192200D02*
X67130D01*
X66900Y191317D02*
Y195571D01*
X31278Y191700D02*
X66987D01*
X31307Y191200D02*
X66877D01*
X31278Y190700D02*
X66799D01*
X66735Y184268D02*
Y189670D01*
X29116Y195200D02*
X68846D01*
X28745Y195571D02*
X69199D01*
X29616Y194700D02*
X68433D01*
X30113Y194200D02*
X68080D01*
X30521Y193700D02*
X67779D01*
X30822Y193200D02*
X67523D01*
X31042Y192700D02*
X67308D01*
X31190Y190200D02*
X66752D01*
X31040Y189700D02*
X66735D01*
X40997Y182200D02*
X66997D01*
X40899Y182700D02*
X66884D01*
X41036Y181700D02*
X67142D01*
X40504Y183700D02*
X66755D01*
X40737Y183200D02*
X66804D01*
X40802Y180200D02*
X67800D01*
X40596Y179700D02*
X68105D01*
X40310Y179200D02*
X68462D01*
X41017Y181200D02*
X67323D01*
X40940Y180700D02*
X67541D01*
X39755Y184700D02*
X66735D01*
X39255Y185200D02*
X66735D01*
X40185Y184200D02*
X66735D01*
X38255Y186200D02*
X66735D01*
X38755Y185700D02*
X66735D01*
X38606Y177700D02*
X69961D01*
X32929Y177200D02*
X70685D01*
X39923Y178700D02*
X68880D01*
X39394Y178200D02*
X69372D01*
X55900Y177186D02*
Y195571D01*
X55400Y177186D02*
Y195571D01*
X56400Y177186D02*
Y195571D01*
X54400Y177186D02*
Y195571D01*
X54900Y177186D02*
Y195571D01*
X58400Y176987D02*
Y195571D01*
X57900Y177101D02*
Y195571D01*
X58900Y176822D02*
Y195571D01*
X56900Y177186D02*
Y195571D01*
X57400Y177166D02*
Y195571D01*
X47400Y177186D02*
Y195571D01*
X46900Y177186D02*
Y195571D01*
X51900Y177186D02*
Y195571D01*
X45900Y177186D02*
Y195571D01*
X46400Y177186D02*
Y195571D01*
X53400Y177186D02*
Y195571D01*
X53900Y177186D02*
Y195571D01*
X52400Y177186D02*
Y195571D01*
X52900Y177186D02*
Y195571D01*
X48900Y177186D02*
Y195571D01*
X48400Y177186D02*
Y195571D01*
X49400Y177186D02*
Y195571D01*
X45400Y177186D02*
Y195571D01*
X47900Y177186D02*
Y195571D01*
X50900Y177186D02*
Y195571D01*
X51400Y177186D02*
Y195571D01*
X49900Y177186D02*
Y195571D01*
X50400Y177186D02*
Y195571D01*
X30110Y188200D02*
X66735D01*
X29546Y187700D02*
X66735D01*
X36921Y187200D02*
X66735D01*
X30821Y189200D02*
X66735D01*
X30518Y188700D02*
X66735D01*
X37714Y186700D02*
X66735D01*
X35587Y177186D02*
X56932D01*
X44400D02*
Y195571D01*
X44900Y177186D02*
Y195571D01*
X64900Y171496D02*
Y195571D01*
X64400Y171996D02*
Y195571D01*
X63400Y172996D02*
Y195571D01*
X63900Y172496D02*
Y195571D01*
X66900Y169496D02*
Y182621D01*
X66400Y169996D02*
Y195571D01*
X67400Y168996D02*
Y181013D01*
X65400Y170996D02*
Y195571D01*
X65900Y170496D02*
Y195571D01*
X60900Y175496D02*
Y195571D01*
X59900Y176317D02*
Y195571D01*
X60400Y175955D02*
Y195571D01*
X62400Y173996D02*
Y195571D01*
X62900Y173496D02*
Y195571D01*
X61400Y174996D02*
Y195571D01*
X61900Y174496D02*
Y195571D01*
X64696Y171700D02*
X82609D01*
X64196Y172200D02*
X82291D01*
X65196Y171200D02*
X83012D01*
X63196Y173200D02*
X81851D01*
X63696Y172700D02*
X82041D01*
X67196Y169200D02*
X94657D01*
X66696Y169700D02*
X85260D01*
X67696Y168700D02*
X97400D01*
X65696Y170700D02*
X83528D01*
X66196Y170200D02*
X84216D01*
X61196Y175200D02*
X81577D01*
X60692Y175700D02*
X81577D01*
X61696Y174700D02*
X81581D01*
X59193Y176700D02*
X71628D01*
X60075Y176200D02*
X73090D01*
X62196Y174200D02*
X81624D01*
X62696Y173700D02*
X81713D01*
X60821Y175575D02*
X78828Y157569D01*
X54654Y166186D02*
X69439Y151401D01*
X59400Y176602D02*
Y195571D01*
X51900Y153101D02*
Y166186D01*
X51400Y153601D02*
Y166186D01*
X50400Y154601D02*
Y166186D01*
X50900Y154101D02*
Y166186D01*
X53900Y151101D02*
Y166186D01*
X53400Y151601D02*
Y166186D01*
X54400Y150601D02*
Y166186D01*
X52400Y152601D02*
Y166186D01*
X52900Y152101D02*
Y166186D01*
X46400Y158601D02*
Y166186D01*
X45900Y159101D02*
Y166186D01*
X38815D02*
X54654D01*
X44900Y160101D02*
Y166186D01*
X45400Y159601D02*
Y166186D01*
X48900Y156101D02*
Y166186D01*
X38815D02*
X58980Y146021D01*
X46900Y158101D02*
Y166186D01*
X47400Y157601D02*
Y166186D01*
X54900Y150101D02*
Y165940D01*
X49900Y155101D02*
Y166186D01*
X55400Y149601D02*
Y165440D01*
X48400Y156601D02*
Y166186D01*
X49400Y155601D02*
Y166186D01*
X56900Y148101D02*
Y163940D01*
X57400Y147601D02*
Y163440D01*
X55900Y149101D02*
Y164940D01*
X56400Y148601D02*
Y164440D01*
X40801Y164200D02*
X56640D01*
X40301Y164700D02*
X56140D01*
X41301Y163700D02*
X57140D01*
X39301Y165700D02*
X55140D01*
X39801Y165200D02*
X55640D01*
X30818Y164283D02*
X52800Y142301D01*
X41801Y163200D02*
X57640D01*
X44400Y160601D02*
Y166186D01*
X47900Y157101D02*
Y166186D01*
X79164Y157200D02*
X97400D01*
X78696Y157700D02*
X97400D01*
X79535Y156700D02*
X97400D01*
X77696Y158700D02*
X97400D01*
X78196Y158200D02*
X97400D01*
X79827Y156200D02*
X97400D01*
X74696Y161700D02*
X97400D01*
X74196Y162200D02*
X97400D01*
X75196Y161200D02*
X97400D01*
X73196Y163200D02*
X97400D01*
X73696Y162700D02*
X97400D01*
X76696Y159700D02*
X97400D01*
X77196Y159200D02*
X97400D01*
X75696Y160700D02*
X97400D01*
X76196Y160200D02*
X97400D01*
X91804Y155700D02*
X97400D01*
X92539Y155200D02*
X97400D01*
X82321Y155997D02*
X90504D01*
X93043Y154700D02*
X97400D01*
X92626Y155117D02*
X95120Y152622D01*
X93543Y154200D02*
X97400D01*
X82135Y126620D02*
X84752D01*
X82135D02*
X84752D01*
X80304D02*
X82135D01*
X80054Y155700D02*
X81020D01*
X79836Y126620D02*
X80304D01*
X79836D02*
X80304D01*
X79836Y126200D02*
X84752D01*
X79827Y125700D02*
X84752D01*
X79836Y125967D02*
Y126620D01*
X59800Y125700D02*
X71845D01*
X69439Y147573D02*
Y151401D01*
X69789Y142105D02*
Y145643D01*
X68900Y142105D02*
Y151940D01*
X69400Y142105D02*
Y151440D01*
X67900Y142105D02*
Y152940D01*
X67400Y142105D02*
Y153440D01*
X68400Y142105D02*
Y152440D01*
X66400Y142105D02*
Y154440D01*
X66900Y142105D02*
Y153940D01*
X59800Y142200D02*
X69789D01*
X59800Y142700D02*
X69789D01*
X63358Y142105D02*
X69789D01*
X63400D02*
Y157440D01*
X63900Y142105D02*
Y156940D01*
X65400Y142105D02*
Y155440D01*
X65900Y142105D02*
Y154940D01*
X64400Y142105D02*
Y156440D01*
X64900Y142105D02*
Y155940D01*
X71367Y127200D02*
X71836D01*
X71367Y126700D02*
X71836D01*
X71400Y126620D02*
Y127583D01*
X71836Y126620D02*
Y127525D01*
X71367Y126620D02*
X71836D01*
X71367D02*
Y127590D01*
X71836Y125967D02*
Y126620D01*
X63358Y127735D02*
Y133956D01*
Y135885D01*
Y127735D02*
X70885D01*
X63358Y135885D02*
Y142105D01*
Y133956D02*
Y135885D01*
X59800Y126700D02*
X71367D01*
X59800Y126200D02*
X71836D01*
X59800Y127200D02*
X71367D01*
X84752Y125370D02*
Y126620D01*
X83900Y119990D02*
Y126620D01*
X84752Y125370D02*
X85902D01*
X82900Y119990D02*
Y126620D01*
X83400Y119990D02*
Y126620D01*
X85900Y119330D02*
Y125370D01*
X85400Y119716D02*
Y125370D01*
X85902Y119328D02*
Y125370D01*
X84400Y119989D02*
Y126620D01*
X84900Y119919D02*
Y125370D01*
X81900Y119990D02*
Y126620D01*
X79762Y125200D02*
X85902D01*
X79630Y124700D02*
X85902D01*
X81400Y119990D02*
Y126620D01*
X80900Y119990D02*
Y126620D01*
X82400Y119990D02*
Y126620D01*
X79900Y119990D02*
Y126620D01*
X80400Y119990D02*
Y126620D01*
X79425Y124200D02*
X85902D01*
X79132Y123700D02*
X85902D01*
X78725Y123200D02*
X85902D01*
X79400Y119990D02*
Y124151D01*
X78144Y122700D02*
X85902D01*
X78650Y119990D02*
X84350D01*
X85428Y119700D02*
X85902D01*
X78900Y119990D02*
Y123396D01*
X78400Y119975D02*
Y122897D01*
X77182Y122200D02*
X85902D01*
X59800Y121700D02*
X85902D01*
X59800Y121200D02*
X85902D01*
X77900Y119855D02*
Y122540D01*
X59800Y120700D02*
X85902D01*
X77400Y119589D02*
Y122285D01*
X76900Y119089D02*
Y122111D01*
X73432Y119200D02*
X76985D01*
X67400Y119375D02*
Y127735D01*
X66900Y119375D02*
Y127735D01*
X67900Y119375D02*
Y127735D01*
X65900Y119375D02*
Y127735D01*
X66400Y119375D02*
Y127735D01*
X69900Y119375D02*
Y127735D01*
X69400Y119375D02*
Y127735D01*
X70400Y119375D02*
Y127735D01*
X68400Y119375D02*
Y127735D01*
X68900Y119375D02*
Y127735D01*
X64900Y119375D02*
Y127735D01*
X64400Y118375D02*
Y127735D01*
X65400Y119375D02*
Y127735D01*
X62400Y118375D02*
Y158440D01*
X62900Y118375D02*
Y157940D01*
X60900Y118375D02*
Y159940D01*
X61900Y118375D02*
Y158940D01*
X59900Y118375D02*
Y160940D01*
X60400Y118375D02*
Y160440D01*
X74400Y119025D02*
Y122233D01*
X73900Y119025D02*
Y122466D01*
X73432Y119025D02*
X76799D01*
X73400Y119375D02*
Y122794D01*
X73432Y119025D02*
Y119375D01*
X76400Y119025D02*
Y122007D01*
X75900Y119025D02*
Y121967D01*
X74900Y119025D02*
Y122078D01*
X75400Y119025D02*
Y121991D01*
X72900Y119375D02*
Y123250D01*
X72400Y119375D02*
Y123918D01*
X59800Y122200D02*
X74489D01*
X71400Y119375D02*
Y126620D01*
X71900Y119375D02*
Y125253D01*
X70900Y119375D02*
Y127730D01*
X64692Y119375D02*
X73432D01*
X64692Y118375D02*
Y119375D01*
X59800Y119200D02*
X64692D01*
X50301Y154700D02*
X66140D01*
X49801Y155200D02*
X65640D01*
X50801Y154200D02*
X66640D01*
X48801Y156200D02*
X64640D01*
X49301Y155700D02*
X65140D01*
X52801Y152200D02*
X68640D01*
X52301Y152700D02*
X68140D01*
X53301Y151700D02*
X69140D01*
X51301Y153700D02*
X67140D01*
X51801Y153200D02*
X67640D01*
X45801Y159200D02*
X61640D01*
X45301Y159700D02*
X61140D01*
X46301Y158700D02*
X62140D01*
X44301Y160700D02*
X60140D01*
X44801Y160200D02*
X60640D01*
X47801Y157200D02*
X63640D01*
X48301Y156700D02*
X64140D01*
X46801Y158200D02*
X62640D01*
X47301Y157700D02*
X63140D01*
X59549Y145200D02*
X69789D01*
X59256Y145700D02*
X69767D01*
X59721Y144700D02*
X69789D01*
X58301Y146700D02*
X69508D01*
X58801Y146200D02*
X69613D01*
X59800Y143700D02*
X69789D01*
X59795Y144200D02*
X69789D01*
X59800Y143200D02*
X69789D01*
X59800Y141700D02*
X63358D01*
X55301Y149700D02*
X69439D01*
X54801Y150200D02*
X69439D01*
X55801Y149200D02*
X69439D01*
X53801Y151200D02*
X69439D01*
X54301Y150700D02*
X69439D01*
X57301Y147700D02*
X69439D01*
X57801Y147200D02*
X69451D01*
X56301Y148700D02*
X69439D01*
X56801Y148200D02*
X69439D01*
X58900Y146101D02*
Y161940D01*
X43301Y161700D02*
X59140D01*
X43801Y161200D02*
X59640D01*
X57900Y147101D02*
Y162940D01*
X58400Y146601D02*
Y162440D01*
X59400Y145483D02*
Y161440D01*
X46900Y141757D02*
Y148202D01*
X47400Y141805D02*
Y147702D01*
X45900Y141503D02*
Y149202D01*
X46400Y141658D02*
Y148702D01*
X42801Y162200D02*
X58640D01*
X42301Y162700D02*
X58140D01*
X30305Y149700D02*
X45401D01*
X29768Y150700D02*
X44401D01*
X30052Y150200D02*
X44901D01*
X30900Y148200D02*
X46902D01*
X31047Y147700D02*
X47401D01*
X30530Y149200D02*
X45902D01*
X30728Y148700D02*
X46402D01*
X31461Y144700D02*
X50402D01*
X31454Y144200D02*
X50902D01*
X47900Y141803D02*
Y147202D01*
X31446Y145200D02*
X49902D01*
X49400Y141485D02*
Y145702D01*
X48670Y141700D02*
X52800D01*
X48400Y141750D02*
Y146702D01*
X48900Y141645D02*
Y146202D01*
X31410Y145700D02*
X49402D01*
X31352Y146200D02*
X48902D01*
X31427Y143700D02*
X51402D01*
X31172Y147200D02*
X47901D01*
X31273Y146700D02*
X48401D01*
X31308Y142700D02*
X52402D01*
X31216Y142200D02*
X52800D01*
X31378Y143200D02*
X51902D01*
X31101Y141700D02*
X46582D01*
X59800Y135200D02*
X63358D01*
X59800Y135700D02*
X63358D01*
X59800Y134700D02*
X63358D01*
X59800Y136700D02*
X63358D01*
X59800Y136200D02*
X63358D01*
X59800Y132700D02*
X63358D01*
X59800Y133200D02*
X63358D01*
X59800Y132200D02*
X63358D01*
X59800Y134200D02*
X63358D01*
X59800Y133700D02*
X63358D01*
X59800Y139700D02*
X63358D01*
X59800Y140200D02*
X63358D01*
X59800Y139200D02*
X63358D01*
X59800Y141200D02*
X63358D01*
X59800Y140700D02*
X63358D01*
X59800Y137700D02*
X63358D01*
X59800Y137200D02*
X63358D01*
X59800Y138700D02*
X63358D01*
X59800Y138200D02*
X63358D01*
X59800Y123700D02*
X72540D01*
X59800Y124200D02*
X72247D01*
X59800Y123200D02*
X72947D01*
X59800Y125200D02*
X71910D01*
X59800Y124700D02*
X72042D01*
X59800Y120200D02*
X85902D01*
X59800Y119700D02*
X77572D01*
X59800Y122700D02*
X73527D01*
X59800Y118700D02*
X64692D01*
X59800Y130200D02*
X63358D01*
X59800Y130700D02*
X63358D01*
X59800Y129700D02*
X63358D01*
X59800Y131700D02*
X63358D01*
X59800Y131200D02*
X63358D01*
X59800Y128200D02*
X63358D01*
X59800Y127700D02*
X70979D01*
X59800Y129200D02*
X63358D01*
X59800Y128700D02*
X63358D01*
X51301Y140200D02*
X52800D01*
X50767Y140700D02*
X52800D01*
X51706Y139700D02*
X52800D01*
X50900Y140589D02*
Y144202D01*
X51400Y140090D02*
Y143702D01*
X52800Y132310D02*
Y142301D01*
X52018Y139200D02*
X52800D01*
X52255Y138700D02*
X52800D01*
X51900Y139405D02*
Y143201D01*
X52400Y138296D02*
Y142701D01*
X49900Y141263D02*
Y145202D01*
X45400Y141288D02*
Y149701D01*
X50020Y141200D02*
X52800D01*
X44900Y141002D02*
Y150201D01*
X30963Y141200D02*
X45232D01*
X50400Y140970D02*
Y144702D01*
X30801Y140700D02*
X44484D01*
X52159Y134700D02*
X52800D01*
X51890Y134200D02*
X52800D01*
X51541Y133700D02*
X52800D01*
X52429Y138200D02*
X52800D01*
X52359Y135200D02*
X52800D01*
X52400Y132310D02*
Y135325D01*
X51085Y133200D02*
X52800D01*
X51900Y132310D02*
Y134216D01*
X51400Y132310D02*
Y133531D01*
X50900Y132310D02*
Y133031D01*
X50473Y132700D02*
X52800D01*
X50400Y132310D02*
Y132650D01*
X21582Y132700D02*
X44779D01*
X49805Y132310D02*
X52800D01*
X44900D02*
Y132619D01*
X42126Y132310D02*
X45446D01*
X37400Y186927D02*
Y195571D01*
X36900Y187210D02*
Y195571D01*
X37900Y186544D02*
Y195571D01*
X35900Y187551D02*
Y195571D01*
X36400Y187414D02*
Y195571D01*
X39900Y184548D02*
Y195571D01*
X39400Y185055D02*
Y195571D01*
X40400Y183880D02*
Y195571D01*
X38400Y186055D02*
Y195571D01*
X38900Y185555D02*
Y195571D01*
X34900Y187642D02*
Y195571D01*
X34400Y187602D02*
Y195571D01*
X35400Y187626D02*
Y195571D01*
X28745D02*
X30029Y194286D01*
X30900Y193042D02*
Y195571D01*
X33400Y187338D02*
Y195571D01*
X33900Y187502D02*
Y195571D01*
X32400Y186781D02*
Y195571D01*
X32900Y187103D02*
Y195571D01*
X31900Y186346D02*
Y195571D01*
X31400Y185739D02*
Y195571D01*
X29900Y194415D02*
Y195571D01*
X30400Y193864D02*
Y195571D01*
X30900Y184759D02*
Y189362D01*
X38089Y186366D02*
X39759Y184696D01*
X30400Y184180D02*
Y188539D01*
X30381Y184200D02*
X30740D01*
X28682Y187200D02*
X33088D01*
X19275Y186700D02*
X32294D01*
X28743Y185200D02*
X31087D01*
X29796Y184700D02*
X30879D01*
X29900Y184626D02*
Y187993D01*
X29400Y194915D02*
Y195571D01*
X21305D02*
X21847D01*
X21400Y194876D02*
Y195571D01*
X20935Y195200D02*
X21586D01*
X21077Y190700D02*
X21491D01*
X20900Y190877D02*
Y195165D01*
X21400Y190377D02*
Y190868D01*
X20435Y194700D02*
X21314D01*
X19935Y194200D02*
X21119D01*
X19435Y193700D02*
X20992D01*
X19400Y192377D02*
Y193665D01*
X19577Y192200D02*
X20964D01*
X20077Y191700D02*
X21073D01*
X20577Y191200D02*
X21245D01*
X20400Y191377D02*
Y194665D01*
X19900Y191877D02*
Y194165D01*
X28900Y185150D02*
Y187302D01*
X28400Y185283D02*
Y187089D01*
X27900Y185343D02*
Y186945D01*
X27400Y185335D02*
Y186863D01*
X26900Y185258D02*
Y186840D01*
X29400Y184937D02*
Y187596D01*
X26400Y185107D02*
Y186873D01*
X25400Y184532D02*
Y187122D01*
X25900Y184872D02*
Y186966D01*
X22190Y189787D02*
X23860Y188117D01*
X21275Y188700D02*
X23277D01*
X20775Y188200D02*
X23777D01*
X21900Y189325D02*
Y189877D01*
X21775Y189200D02*
X22777D01*
X24900Y184044D02*
Y187348D01*
X19775Y187200D02*
X25208D01*
X20275Y187700D02*
X24343D01*
X24400Y183277D02*
Y187659D01*
X43400Y177186D02*
Y195571D01*
X42900Y177186D02*
Y195571D01*
X40900Y182695D02*
Y195571D01*
X42400Y177186D02*
Y195571D01*
X41900Y177186D02*
Y195571D01*
X43900Y177186D02*
Y195571D01*
X41400Y177186D02*
Y195571D01*
X40900Y177186D02*
Y180527D01*
X31087Y180200D02*
X31916D01*
X31920Y180197D02*
X33590Y178527D01*
X31900Y178229D02*
Y180217D01*
X32400Y177729D02*
Y179717D01*
X40400Y177186D02*
Y179342D01*
X39900Y177186D02*
Y178674D01*
X39400Y177186D02*
Y178205D01*
X38900Y177186D02*
Y177859D01*
X38400Y177186D02*
Y177605D01*
X34900Y177143D02*
Y177626D01*
X34400Y177057D02*
Y177889D01*
X33400Y177057D02*
Y178717D01*
X33900Y177057D02*
Y178245D01*
X31429Y178700D02*
X33417D01*
X30929Y179200D02*
X32917D01*
X31929Y178200D02*
X33955D01*
X30822Y179700D02*
X32416D01*
X30662Y179467D02*
X31794Y178335D01*
X32429Y177700D02*
X34743D01*
X33072Y177057D02*
X34403Y177057D01*
X32900Y177229D02*
Y179217D01*
X31800Y178329D02*
X33072Y177057D01*
X23900Y179777D02*
Y188078D01*
X31400Y178729D02*
Y180824D01*
X23507Y179384D02*
X24331Y180208D01*
X30900Y179229D02*
Y179829D01*
X23400Y179277D02*
Y188577D01*
X23507Y179384D02*
X24331Y180208D01*
X22900Y178777D02*
Y189077D01*
X22400Y178277D02*
Y189577D01*
X22477Y178354D02*
X23507Y179384D01*
X21900Y177777D02*
Y189325D01*
X21400Y177277D02*
Y188825D01*
X20900Y176777D02*
Y188325D01*
X20400Y176277D02*
Y187825D01*
X19900Y175777D02*
Y187325D01*
X19400Y175277D02*
Y186825D01*
X22477Y178354D02*
X23507Y179384D01*
X22477Y178354D02*
X23507Y179384D01*
X27961Y165632D02*
X28715Y166386D01*
X21697Y177575D02*
X22477Y178354D01*
X21697Y177575D02*
X22477Y178354D01*
X27961Y165632D02*
X28715Y166386D01*
X30814Y164287D01*
X20900Y162462D02*
Y166869D01*
X21400Y156306D02*
Y166369D01*
X20667Y176544D02*
X21697Y177575D01*
X20667Y176544D02*
X21697Y177575D01*
X20667Y176544D02*
X21697Y177575D01*
X19488Y168281D02*
X24342Y163427D01*
X20400Y163763D02*
Y167369D01*
X19400Y164967D02*
Y168171D01*
X19900Y164455D02*
Y167869D01*
X18756Y193021D02*
X22176Y189601D01*
X18756Y193021D02*
X21305Y195571D01*
X18775Y186200D02*
X31762D01*
X18935Y193200D02*
X20925D01*
X19077Y192700D02*
X20916D01*
X18275Y185700D02*
X31374D01*
X17775Y185200D02*
X26678D01*
X17275Y184700D02*
X25625D01*
X16993Y184417D02*
X22176Y189601D01*
X18900Y174777D02*
Y186325D01*
X10435Y184700D02*
X16710D01*
X17275D01*
X10874Y184200D02*
X25040D01*
X11374Y183700D02*
X24642D01*
X13572Y187838D02*
X16993Y184417D01*
X11874Y183200D02*
X24364D01*
X12874Y182200D02*
X24068D01*
X12374Y182700D02*
X24177D01*
X13275Y180700D02*
X24159D01*
X13374Y181700D02*
X24029D01*
X13775Y181200D02*
X24059D01*
X12775Y180200D02*
X24323D01*
X12275Y179700D02*
X23823D01*
X11775Y179200D02*
X23323D01*
X18858Y174735D02*
X20667Y176544D01*
X18858Y174735D02*
X20667Y176544D01*
X11275Y178700D02*
X22823D01*
X10775Y178200D02*
X22323D01*
X10275Y177700D02*
X21823D01*
X9775Y177200D02*
X21323D01*
X9275Y176700D02*
X20823D01*
X8775Y176200D02*
X20323D01*
X8806Y175700D02*
X19823D01*
X9306Y175200D02*
X19323D01*
X9806Y174700D02*
X18823D01*
X12435Y186700D02*
X14710D01*
X11935Y186200D02*
X15210D01*
X11435Y185700D02*
X15710D01*
X12935Y187200D02*
X14210D01*
X11400Y183674D02*
Y185665D01*
X13400Y181674D02*
Y187665D01*
X12900Y182174D02*
Y187165D01*
X13400Y180825D02*
Y181674D01*
X12400Y182674D02*
Y186665D01*
X11900Y183174D02*
Y186165D01*
X10935Y185200D02*
X16210D01*
X10404Y184669D02*
X13572Y187838D01*
X10404Y184669D02*
X13824Y181249D01*
X10900Y184174D02*
Y185165D01*
X8641Y176066D02*
X13824Y181249D01*
X4475Y178740D02*
X5221Y179486D01*
X7400Y176828D02*
Y177306D01*
X6900Y177052D02*
Y177806D01*
X6424Y177200D02*
X7506D01*
X5900Y177297D02*
Y178806D01*
X6400Y177206D02*
Y178306D01*
X9900Y174606D02*
Y177325D01*
X9400Y175106D02*
Y176825D01*
X7627Y176700D02*
X8006D01*
X8900Y175606D02*
Y176325D01*
X4475Y178200D02*
X6506D01*
X4475Y178700D02*
X6006D01*
X4475Y177700D02*
X7006D01*
X5400Y177329D02*
Y179306D01*
X4935Y179200D02*
X5506D01*
X5221Y179486D02*
X8641Y176066D01*
X4900Y177304D02*
Y179165D01*
X4475Y177237D02*
Y178740D01*
X18400Y174277D02*
Y185825D01*
X16900Y174198D02*
Y184510D01*
X16876Y174200D02*
X18323D01*
X15900Y174150D02*
Y185510D01*
X16400Y174208D02*
Y185010D01*
X17900Y173966D02*
Y185325D01*
X17400Y174119D02*
Y184825D01*
X18034Y173911D02*
X18858Y174735D01*
X14900Y173809D02*
Y186510D01*
X15400Y174020D02*
Y186010D01*
X10296Y174200D02*
X16274D01*
X10681Y173700D02*
X14702D01*
X14400Y173501D02*
Y187010D01*
X10965Y173200D02*
X14040D01*
X13900Y173060D02*
Y187510D01*
X13400Y172394D02*
Y180825D01*
X18927Y167700D02*
X20069D01*
X18141Y167200D02*
X20569D01*
X17614Y166700D02*
X21069D01*
X18900Y165467D02*
Y167677D01*
X18400Y165967D02*
Y167334D01*
X18045Y166322D02*
X19715Y164652D01*
X17900Y166460D02*
Y167097D01*
X10112Y168200D02*
X13726D01*
X9508Y167700D02*
X14222D01*
X11170Y172700D02*
X13600D01*
X10545Y168700D02*
X13382D01*
X13400Y167311D02*
Y168668D01*
X13900Y167469D02*
Y168002D01*
X11384Y171700D02*
X13084D01*
X11308Y172200D02*
X13294D01*
X11401Y171200D02*
X12955D01*
X12900Y170745D02*
Y180325D01*
X11400Y171438D02*
Y178825D01*
X12400Y166769D02*
Y179825D01*
X11361Y170700D02*
X12898D01*
X12900Y167083D02*
Y170317D01*
X11900Y166346D02*
Y179325D01*
X11400Y165758D02*
Y171156D01*
X10900Y173329D02*
Y178325D01*
X10400Y174079D02*
Y177825D01*
X8454Y176052D02*
X10125Y174381D01*
X11262Y170200D02*
X12909D01*
X11100Y169700D02*
X12989D01*
X10900Y164832D02*
Y169265D01*
X10865Y169200D02*
X13143D01*
X8538Y167200D02*
X13136D01*
X10400Y152032D02*
Y168515D01*
X9900Y151365D02*
Y168003D01*
X9400Y150583D02*
Y167628D01*
X8900Y149634D02*
Y167351D01*
X8400Y148391D02*
Y167152D01*
X7900Y146307D02*
Y167020D01*
X7400Y133275D02*
Y166949D01*
X6900Y132984D02*
Y166937D01*
X4475Y166700D02*
X12307D01*
X4475Y167200D02*
X5542D01*
X6400Y132642D02*
Y166982D01*
X5400Y131772D02*
Y167255D01*
X5900Y132242D02*
Y167086D01*
X4475Y130644D02*
Y167769D01*
X4900Y131213D02*
Y167496D01*
X43400Y161601D02*
Y166186D01*
X42900Y162101D02*
Y166186D01*
X43900Y161101D02*
Y166186D01*
X41900Y163101D02*
Y166186D01*
X42400Y162601D02*
Y166186D01*
X43900Y140145D02*
Y151201D01*
X43400Y139483D02*
Y151701D01*
X44400Y140630D02*
Y150701D01*
X42400Y132310D02*
Y152701D01*
X42900Y138443D02*
Y152201D01*
X41400Y163601D02*
Y166186D01*
X27194Y153700D02*
X41401D01*
X27758Y153200D02*
X41901D01*
X40900Y164101D02*
Y166186D01*
X26550Y154200D02*
X40901D01*
X29095Y151700D02*
X43402D01*
X29450Y151200D02*
X43902D01*
X28256Y152700D02*
X42401D01*
X28699Y152200D02*
X42902D01*
X30614Y140200D02*
X43950D01*
X30401Y139700D02*
X43545D01*
X30159Y139200D02*
X43234D01*
X29888Y138700D02*
X42997D01*
X29584Y138200D02*
X42823D01*
X43900Y132310D02*
Y133476D01*
X43400Y132310D02*
Y134138D01*
X44400Y132310D02*
Y132990D01*
X29245Y137700D02*
X42706D01*
X42900Y132310D02*
Y135177D01*
X27968Y136200D02*
X42663D01*
X27434Y135700D02*
X42751D01*
X26825Y135200D02*
X42892D01*
X28866Y137200D02*
X42641D01*
X28443Y136700D02*
X42627D01*
X24254Y133700D02*
X43711D01*
X22834Y133200D02*
X44167D01*
X26121Y134700D02*
X43093D01*
X25287Y134200D02*
X43361D01*
X39900Y165101D02*
Y166186D01*
X39400Y165601D02*
Y166186D01*
X40400Y164601D02*
Y166186D01*
X28529Y166200D02*
X28901D01*
X28029Y165700D02*
X29401D01*
X29900Y150475D02*
Y165201D01*
X29400Y151274D02*
Y165701D01*
X30400Y149497D02*
Y164701D01*
X28900Y151953D02*
Y166201D01*
X28400Y152543D02*
Y166071D01*
X27529Y165200D02*
X29901D01*
X26151Y163822D02*
X27961Y165632D01*
X27029Y164700D02*
X30401D01*
X22400Y156109D02*
Y165369D01*
X24342Y163427D02*
X25444Y164529D01*
X27900Y153063D02*
Y165571D01*
X27400Y153525D02*
Y165071D01*
X22900Y155976D02*
Y164869D01*
X26900Y153937D02*
Y164571D01*
X26529Y164200D02*
X30902D01*
X25774D02*
X26529D01*
X25798Y154700D02*
X40402D01*
X25444Y164529D02*
X26151Y163822D01*
X25400Y154933D02*
Y164485D01*
X30900Y148199D02*
Y164201D01*
X31400Y145798D02*
Y163701D01*
X25900Y154637D02*
Y164074D01*
X26400Y154306D02*
Y164071D01*
X25115Y164200D02*
X25774D01*
X24615Y163700D02*
X31402D01*
X23740Y155700D02*
X39402D01*
X23400Y155820D02*
Y164369D01*
X24069Y163700D02*
X24615D01*
X24900Y155197D02*
Y163985D01*
X24895Y155200D02*
X39902D01*
X23900Y155639D02*
Y163869D01*
X24400Y155432D02*
Y163485D01*
X41900Y121389D02*
Y153201D01*
X41400Y120889D02*
Y153701D01*
X42126Y121615D02*
Y132310D01*
X40400Y119889D02*
Y154701D01*
X40900Y120389D02*
Y154201D01*
X39400Y119200D02*
Y155701D01*
X38900Y119200D02*
Y156202D01*
X39900Y119389D02*
Y155201D01*
X37900Y119200D02*
Y157202D01*
X38400Y119200D02*
Y156702D01*
X23870Y130200D02*
X42126D01*
X23548Y130700D02*
X42126D01*
X24144Y129700D02*
X42126D01*
X22731Y131700D02*
X42126D01*
X23172Y131200D02*
X42126D01*
X24725Y128200D02*
X42126D01*
X24848Y127700D02*
X42126D01*
X24375Y129200D02*
X42126D01*
X24568Y128700D02*
X42126D01*
X25028Y126200D02*
X42126D01*
X25027Y125700D02*
X42126D01*
X24996Y125200D02*
X42126D01*
X24939Y127200D02*
X42126D01*
X24998Y126700D02*
X42126D01*
X39711Y119200D02*
X42126Y121615D01*
X24934Y124700D02*
X42126D01*
X32100Y119700D02*
X40211D01*
X32100Y119200D02*
X39711D01*
X32100D02*
X39711D01*
X24556Y123200D02*
X42126D01*
X24361Y122700D02*
X42126D01*
X24127Y122200D02*
X42126D01*
X24841Y124200D02*
X42126D01*
X24716Y123700D02*
X42126D01*
X23851Y121700D02*
X42126D01*
X23526Y121200D02*
X41711D01*
X23146Y120700D02*
X41211D01*
X22701Y120200D02*
X40711D01*
X34400Y119200D02*
Y160702D01*
X33900Y119200D02*
Y161202D01*
X34900Y119200D02*
Y160202D01*
X32900Y119200D02*
Y162201D01*
X33400Y119200D02*
Y161702D01*
X36900Y119200D02*
Y158202D01*
X36400Y119200D02*
Y158702D01*
X37400Y119200D02*
Y157702D01*
X35400Y119200D02*
Y159702D01*
X35900Y119200D02*
Y159202D01*
X30400Y119730D02*
Y139698D01*
X29900Y119730D02*
Y138721D01*
X29400Y119730D02*
Y137922D01*
X28900Y119730D02*
Y137242D01*
X28400Y119730D02*
Y136652D01*
X31900Y119730D02*
Y163201D01*
X32400Y119200D02*
Y162701D01*
X31400Y119730D02*
Y143397D01*
X30900Y119730D02*
Y140996D01*
X27900Y119730D02*
Y136132D01*
X27400Y119730D02*
Y135671D01*
X26900Y119730D02*
Y135258D01*
X26400Y119730D02*
Y134889D01*
X24900Y127435D02*
Y133998D01*
X25900Y119730D02*
Y134558D01*
X32100Y119200D02*
Y119730D01*
X25400D02*
Y134262D01*
X24900Y119730D02*
Y124497D01*
X24400Y129140D02*
Y133763D01*
X23900Y130148D02*
Y133556D01*
X23400Y130907D02*
Y133375D01*
X22900Y131518D02*
Y133219D01*
X22400Y132028D02*
Y133087D01*
X24400Y119730D02*
Y122792D01*
X23900Y119730D02*
Y121783D01*
X23400Y119730D02*
Y121025D01*
X22900Y119730D02*
Y120414D01*
X20843Y162700D02*
X32401D01*
X20676Y163200D02*
X31901D01*
X20947Y162200D02*
X32901D01*
X20109Y164200D02*
X23569D01*
X20436Y163700D02*
X24069D01*
X20991Y161700D02*
X33402D01*
X20977Y161200D02*
X33902D01*
X20906Y160700D02*
X34402D01*
X21900Y156218D02*
Y165869D01*
X20900Y156371D02*
Y160672D01*
X19167Y165200D02*
X22569D01*
X18667Y165700D02*
X22069D01*
X19667Y164700D02*
X23069D01*
X18167Y166200D02*
X21569D01*
X20295Y159200D02*
X35901D01*
X19918Y158700D02*
X36402D01*
X19404Y158200D02*
X36902D01*
X20773Y160200D02*
X34901D01*
X20573Y159700D02*
X35401D01*
X20400Y156414D02*
Y159372D01*
X19900Y156437D02*
Y158679D01*
X21992Y156200D02*
X38901D01*
X19400Y156438D02*
Y158197D01*
X18900Y156418D02*
Y157842D01*
X18649Y157700D02*
X37402D01*
X4475Y157200D02*
X37901D01*
X4475Y156700D02*
X38401D01*
X18400Y156377D02*
Y157580D01*
X17900Y156315D02*
Y157394D01*
X17400Y156231D02*
Y157273D01*
X4475Y156200D02*
X17245D01*
X16900Y156124D02*
Y157213D01*
X16400Y155994D02*
Y157211D01*
X4475Y165200D02*
X11064D01*
X4475Y165700D02*
X11360D01*
X4475Y164200D02*
X10706D01*
X4475Y163700D02*
X10623D01*
X4475Y163200D02*
X10598D01*
X11900Y153579D02*
Y160129D01*
X11876Y160153D02*
X13546Y158483D01*
X12400Y153986D02*
Y159629D01*
X10900Y152612D02*
Y161643D01*
X11400Y153124D02*
Y160717D01*
X4475Y164700D02*
X10851D01*
X4475Y166200D02*
X11758D01*
X4475Y161700D02*
X10878D01*
X4475Y162700D02*
X10631D01*
X4475Y162200D02*
X10723D01*
X4475Y160200D02*
X11829D01*
X4475Y159700D02*
X12329D01*
X4475Y161200D02*
X11103D01*
X4475Y160700D02*
X11412D01*
X15400Y155663D02*
Y157382D01*
X14900Y155460D02*
Y157563D01*
X15900Y155841D02*
Y157266D01*
X4475Y159200D02*
X12829D01*
X4475Y158700D02*
X13329D01*
X13900Y154968D02*
Y158165D01*
X14400Y155228D02*
Y157818D01*
X12900Y154350D02*
Y159129D01*
X13400Y154676D02*
Y158629D01*
X4475Y155700D02*
X15497D01*
X4475Y157700D02*
X14612D01*
X4475Y155200D02*
X14342D01*
X4475Y158200D02*
X13857D01*
X4475Y154700D02*
X13439D01*
X4475Y154200D02*
X12687D01*
X4475Y153700D02*
X12043D01*
X4475Y153200D02*
X11479D01*
X4475Y152700D02*
X10982D01*
X10900Y134254D02*
Y136583D01*
X10400Y134213D02*
Y137164D01*
X9400Y134037D02*
Y138612D01*
X9900Y134141D02*
Y137830D01*
X4475Y151700D02*
X10142D01*
X4475Y152200D02*
X10538D01*
X4475Y151200D02*
X9787D01*
X4475Y150700D02*
X9469D01*
X4475Y138700D02*
X9349D01*
X4475Y137200D02*
X10371D01*
X4475Y136700D02*
X10794D01*
X4475Y138200D02*
X9653D01*
X4475Y137700D02*
X9992D01*
X21900Y132459D02*
Y132977D01*
X22210Y132200D02*
X42126D01*
X12400Y134265D02*
Y135210D01*
X12900Y134265D02*
Y134845D01*
X22208Y119730D02*
X32100D01*
X4475Y135200D02*
X12412D01*
X4475Y135700D02*
X11803D01*
X4475Y134700D02*
X13116D01*
X4475Y136200D02*
X11268D01*
X11400Y134265D02*
Y136071D01*
X11900Y134265D02*
Y135616D01*
X11330Y134265D02*
X13832D01*
X4475Y134200D02*
X10293D01*
X4475Y149700D02*
X8931D01*
X4475Y150200D02*
X9185D01*
X4475Y149200D02*
X8707D01*
X4475Y148700D02*
X8509D01*
X4475Y148200D02*
X8337D01*
X4475Y147200D02*
X8065D01*
X4475Y147700D02*
X8190D01*
X4475Y146700D02*
X7964D01*
X4475Y146200D02*
X7885D01*
X7900Y133523D02*
Y142888D01*
X4475Y145200D02*
X7791D01*
X4475Y145700D02*
X7827D01*
X4475Y143700D02*
X7810D01*
X4475Y144700D02*
X7776D01*
X4475Y144200D02*
X7783D01*
X4475Y142200D02*
X8021D01*
X4475Y141700D02*
X8136D01*
X4475Y143200D02*
X7859D01*
X4475Y142700D02*
X7929D01*
X4475Y139700D02*
X8836D01*
X4475Y140200D02*
X8623D01*
X4475Y139200D02*
X9078D01*
X4475Y141200D02*
X8274D01*
X4475Y140700D02*
X8436D01*
X8400Y133731D02*
Y140804D01*
X8900Y133901D02*
Y139562D01*
X4475Y133700D02*
X8320D01*
X4475Y133200D02*
X7263D01*
X4475Y132200D02*
X5852D01*
X4475Y132700D02*
X6480D01*
X4475Y131700D02*
X5330D01*
X4475Y131200D02*
X4890D01*
X4475Y120700D02*
X4916D01*
X4475Y119200D02*
X6524D01*
X4475Y118700D02*
X7320D01*
X4475Y120200D02*
X5361D01*
X4475Y119700D02*
X5888D01*
X93902Y99700D02*
X96962D01*
X93884Y97200D02*
X96962D01*
X93803Y96700D02*
X96962D01*
X93902Y105700D02*
X96962D01*
X93902Y105200D02*
X96962D01*
X92175Y94200D02*
X96962D01*
X91649Y93700D02*
X96962D01*
X90878Y93200D02*
X96962D01*
X93655Y96200D02*
X96962D01*
X93114Y95200D02*
X96962D01*
X87457Y90200D02*
X96962D01*
X87330Y90700D02*
X96962D01*
X87500Y89700D02*
X96977D01*
X88088Y91700D02*
X96962D01*
X87323Y91200D02*
X96962D01*
X87309Y88200D02*
X96990D01*
X87446Y87700D02*
X96990D01*
X87463Y89200D02*
X96990D01*
X87344Y88700D02*
X96990D01*
X87363Y86200D02*
X97249D01*
X87287Y85700D02*
X97461D01*
X87434Y85200D02*
X97751D01*
X87499Y87200D02*
X97018D01*
X87472Y86700D02*
X97103D01*
X87766Y75700D02*
X110049D01*
X87380Y83700D02*
X99437D01*
X88129Y75200D02*
X109549D01*
X87497Y84700D02*
X98140D01*
X87479Y84200D02*
X98667D01*
X86436Y82200D02*
X104564D01*
X85670Y81700D02*
X105330D01*
X84896Y78200D02*
X112549D01*
X87191Y83200D02*
X103809D01*
X86892Y82700D02*
X104108D01*
X85755Y77700D02*
X112049D01*
X86273Y77200D02*
X111549D01*
X86773Y76700D02*
X111049D01*
X87273Y76200D02*
X110549D01*
X93902Y100200D02*
X96962D01*
X93902Y106700D02*
X96962D01*
X93430Y95700D02*
X96962D01*
X93902Y109200D02*
X96496D01*
X93902Y108700D02*
X96962D01*
X92674Y94700D02*
X96962D01*
X91930Y93956D02*
X92730Y94756D01*
X89614Y92700D02*
X96962D01*
X89418Y92504D02*
X89751Y92837D01*
X89067Y92200D02*
X96962D01*
X87900Y75540D02*
Y91647D01*
X87400Y90467D02*
Y91453D01*
Y87907D02*
Y88893D01*
Y85347D02*
Y86333D01*
Y76073D02*
Y83773D01*
X86900Y76573D02*
Y82711D01*
X86400Y77073D02*
Y82168D01*
X85400Y77954D02*
Y81590D01*
X84900Y78199D02*
Y81458D01*
X84400Y78340D02*
Y81410D01*
X83900Y78393D02*
Y81410D01*
X85960Y77513D02*
X87651Y75823D01*
X85900Y77571D02*
Y81818D01*
X88530Y73200D02*
X107549D01*
X88530Y73700D02*
X108049D01*
X88530Y72700D02*
X107049D01*
X88530Y72200D02*
X106549D01*
X88530Y71700D02*
X106049D01*
X88530Y70700D02*
X105049D01*
X88530Y71200D02*
X105549D01*
X88530Y70200D02*
X104549D01*
X88530Y69700D02*
X104049D01*
X88530Y68200D02*
X102549D01*
X88489Y74200D02*
X108549D01*
X88359Y74700D02*
X109049D01*
X88530Y69200D02*
X103549D01*
X88530Y68700D02*
X103049D01*
X88489Y67700D02*
X102049D01*
X88359Y67200D02*
X101549D01*
X88129Y66700D02*
X101049D01*
X87766Y66200D02*
X100549D01*
X87273Y65700D02*
X100049D01*
X92370Y55700D02*
X97400D01*
X92370Y56200D02*
X97400D01*
X92370Y55200D02*
X97400D01*
X92370Y57200D02*
X97400D01*
X92370Y56700D02*
X97400D01*
X92370Y49700D02*
X97400D01*
X92370Y52200D02*
X97400D01*
X92370Y49200D02*
X97400D01*
X92370Y54700D02*
X97400D01*
X92370Y53200D02*
X97400D01*
X86773Y65200D02*
X99549D01*
X86250Y64700D02*
X99049D01*
X85352Y64200D02*
X98549D01*
X92370Y51700D02*
X97400D01*
X92370Y51200D02*
X97400D01*
X92370Y48700D02*
X97400D01*
X92370Y48200D02*
X97400D01*
X92370Y50700D02*
X97400D01*
X92370Y50200D02*
X97400D01*
X91400Y57283D02*
Y93510D01*
X90900Y57283D02*
Y93211D01*
X90400Y57283D02*
Y93001D01*
X89900Y57283D02*
Y92865D01*
X89400Y57283D02*
Y92486D01*
X93900Y39200D02*
Y97456D01*
X93400Y39200D02*
Y95644D01*
X92900Y39200D02*
Y94936D01*
X92400Y39200D02*
Y94425D01*
X91900Y57283D02*
Y93926D01*
X88530Y68200D02*
Y73700D01*
X88400Y74575D02*
Y91815D01*
X88900Y57283D02*
Y92083D01*
X88400Y57283D02*
Y67325D01*
X87900Y57283D02*
Y66360D01*
X92370Y54200D02*
X97400D01*
X86485Y64912D02*
X87651Y66078D01*
X92370Y53700D02*
X97400D01*
X87400Y57283D02*
Y65827D01*
X86900Y57283D02*
Y65327D01*
X92370Y48621D02*
Y57283D01*
Y52700D02*
X97400D01*
X92370Y46983D02*
Y48621D01*
Y46983D02*
Y48621D01*
X86400Y57283D02*
Y64830D01*
X85900Y57283D02*
Y64456D01*
X85400Y57283D02*
Y64217D01*
X84900Y57283D02*
Y64081D01*
X84400Y57283D02*
Y64033D01*
X83400Y57283D02*
Y64032D01*
X83900Y57283D02*
Y64032D01*
X83400Y78393D02*
Y81410D01*
X82900Y78393D02*
Y81410D01*
X78650D02*
X84350D01*
X81900Y78393D02*
Y81410D01*
X82400Y78393D02*
Y81410D01*
X78400Y78354D02*
Y81420D01*
X77900Y78354D02*
Y81501D01*
X81400Y78354D02*
Y81410D01*
X76900Y78354D02*
Y81941D01*
X77400Y78354D02*
Y81669D01*
X71510Y82200D02*
X76564D01*
X71010Y81700D02*
X77330D01*
X75900Y78354D02*
Y82346D01*
X71655D02*
X76410D01*
X75400Y78354D02*
Y82346D01*
X76400Y78354D02*
Y82346D01*
X74400Y78354D02*
Y82346D01*
X74900Y78354D02*
Y82346D01*
X81930Y78393D02*
X83837D01*
X79400Y78354D02*
Y81410D01*
X80900Y78354D02*
Y81410D01*
X82930Y64032D02*
X84363D01*
X80400Y78354D02*
Y81410D01*
X82930Y63700D02*
X98062D01*
X78900Y78354D02*
Y81410D01*
X79900Y78354D02*
Y81410D01*
X70010Y80700D02*
X113979D01*
X69510Y80200D02*
X113979D01*
X68917Y79700D02*
X113979D01*
X70510Y81200D02*
X113872D01*
X23381Y79200D02*
X113549D01*
X23727Y78700D02*
X113049D01*
X75735Y78354D02*
X81443D01*
X72024D02*
X75735D01*
X72024D02*
X75735D01*
X71400D02*
Y82090D01*
X70900Y78354D02*
Y81590D01*
X70400Y78354D02*
Y81090D01*
X69900Y78354D02*
Y80590D01*
X69400Y78354D02*
Y80090D01*
X73400Y78354D02*
Y82346D01*
X72900Y78354D02*
Y82346D01*
X73900Y78354D02*
Y82346D01*
X71900Y78354D02*
Y82346D01*
X72400Y78354D02*
Y82346D01*
X63900Y118375D02*
Y127735D01*
X59800Y118375D02*
X64692D01*
X69390Y80080D02*
X71655Y82346D01*
X63400Y118375D02*
Y127735D01*
X68900Y78354D02*
Y79689D01*
X68400Y78354D02*
Y79441D01*
X65900Y78354D02*
Y79260D01*
X64900Y78354D02*
X71906D01*
X64900D02*
X71906D01*
X64900D02*
Y79260D01*
X65400Y78354D02*
Y79260D01*
X67900Y78354D02*
Y79303D01*
X67400Y78354D02*
Y79260D01*
X66400Y78354D02*
Y79260D01*
X66900Y78354D02*
Y79260D01*
X64400Y78354D02*
Y79260D01*
X63900Y78354D02*
Y79260D01*
X54914D02*
X67410D01*
X62400Y78367D02*
Y79260D01*
X63400Y78354D02*
Y79260D01*
X62900Y78354D02*
Y79260D01*
X62488Y78354D02*
X64900D01*
X82930Y63511D02*
Y64032D01*
X82900Y57283D02*
Y63511D01*
X82400Y57283D02*
Y63511D01*
X81400Y56133D02*
Y63511D01*
X81900Y57283D02*
Y63511D01*
X80400Y56133D02*
Y63511D01*
X79900Y56133D02*
Y63511D01*
X80900Y56133D02*
Y63511D01*
X78900Y56133D02*
Y63511D01*
X79400Y56133D02*
Y63511D01*
X78711D02*
X82930D01*
X78400Y63200D02*
X78711Y63511D01*
X64900Y63200D02*
X78400D01*
X64900D02*
X78400D01*
Y56133D02*
Y63200D01*
X77400Y56133D02*
Y63200D01*
X77900Y56133D02*
Y63200D01*
X76400Y56133D02*
Y63200D01*
X76900Y56133D02*
Y63200D01*
X78400D02*
X97724D01*
X4475Y61200D02*
X97400D01*
X4475Y60700D02*
X97400D01*
X81870Y57283D02*
X92370D01*
X73247Y57200D02*
X81870D01*
X73247Y56200D02*
X81870D01*
X73247Y56700D02*
X81870D01*
X73247Y56133D02*
X81870D01*
Y57283D01*
X81400Y31100D02*
Y48133D01*
X4475Y62200D02*
X97417D01*
X4475Y62700D02*
X97519D01*
X4475Y61700D02*
X97400D01*
X4475Y60200D02*
X97400D01*
X4475Y59700D02*
X97400D01*
X4475Y58200D02*
X97400D01*
X4475Y57700D02*
X97400D01*
X4475Y59200D02*
X97400D01*
X4475Y58700D02*
X97400D01*
X71900Y57633D02*
Y63200D01*
X71400Y57633D02*
Y63200D01*
X72400Y57633D02*
Y63200D01*
X70400Y57633D02*
Y63200D01*
X70900Y57633D02*
Y63200D01*
X75400Y56133D02*
Y63200D01*
X74900Y56133D02*
Y63200D01*
X75900Y56133D02*
Y63200D01*
X72900Y57633D02*
Y63200D01*
X73400Y56133D02*
Y63200D01*
X64900D02*
Y63511D01*
X61001D02*
X64900D01*
X69900Y57633D02*
Y63200D01*
X64400Y57633D02*
Y63511D01*
X64900Y63200D02*
Y63511D01*
X63400Y57633D02*
Y63511D01*
X63900Y57633D02*
Y63511D01*
X62400Y57633D02*
Y63511D01*
X62900Y57633D02*
Y63511D01*
X68900Y57633D02*
Y63200D01*
X68400Y57633D02*
Y63200D01*
X69400Y57633D02*
Y63200D01*
X67400Y57633D02*
Y63200D01*
X67900Y57633D02*
Y63200D01*
X74400Y56133D02*
Y63200D01*
X75400Y24023D02*
Y48133D01*
X73900Y56133D02*
Y63200D01*
X73247Y56133D02*
Y57633D01*
X66400D02*
Y63200D01*
X65900Y57633D02*
Y63200D01*
X66900Y57633D02*
Y63200D01*
X4475D02*
X64900D01*
X65400Y57633D02*
Y63200D01*
X64900Y57633D02*
Y63200D01*
X62248Y57633D02*
X73247D01*
X4475Y57200D02*
X62248D01*
X4475Y50700D02*
X62248D01*
X92370Y42200D02*
X97400D01*
X92370Y42700D02*
X97400D01*
X92370Y41700D02*
X97400D01*
X92370Y43700D02*
X97400D01*
X92370Y43200D02*
X97400D01*
X92370Y40700D02*
X97400D01*
X92370Y41200D02*
X97400D01*
X92370Y40200D02*
X97400D01*
X92370Y39700D02*
X97400D01*
X92370Y39200D02*
X96592D01*
X92370Y46200D02*
X97400D01*
X92370Y46700D02*
X97400D01*
X92370Y45700D02*
X97400D01*
X92370Y47700D02*
X97400D01*
X92370Y47200D02*
X97400D01*
X92370Y45200D02*
X97400D01*
X92370Y44700D02*
X97400D01*
X92370Y39200D02*
Y46983D01*
Y44200D02*
X97400D01*
X92970Y30700D02*
X94389D01*
X92900Y31100D02*
Y33200D01*
X93900Y30477D02*
Y33200D01*
X92970Y30200D02*
X93418D01*
X93400Y30188D02*
Y33200D01*
X92970Y29882D02*
Y31100D01*
X91490Y32700D02*
X97400D01*
X91490Y33200D02*
X96592D01*
X91490Y32200D02*
X97400D01*
X92370Y39200D02*
X96592D01*
X91490Y33200D02*
X96592D01*
X91120Y31700D02*
X97400D01*
X91120Y31200D02*
X97400D01*
X92400Y31100D02*
Y33200D01*
X91120Y31100D02*
X92970D01*
X82750Y32200D02*
Y38321D01*
X81870Y46983D02*
Y48133D01*
Y38321D02*
X82750D01*
X81870Y46983D02*
Y48133D01*
Y38321D02*
Y46983D01*
X76400Y23918D02*
Y48133D01*
X75900Y23986D02*
Y48133D01*
X76900Y23819D02*
Y48133D01*
X74400Y24007D02*
Y48133D01*
X74900Y24030D02*
Y48133D01*
X73247Y47700D02*
X81870D01*
X73247Y48133D02*
X81870D01*
X73247Y47200D02*
X81870D01*
X73247Y46633D02*
Y48133D01*
Y46700D02*
X81870D01*
X73900Y23953D02*
Y48133D01*
X72747Y42200D02*
X81870D01*
X73400Y23868D02*
Y48133D01*
X72900Y23752D02*
Y46633D01*
X91120Y33200D02*
X91490D01*
X91120D02*
X91490D01*
X91120Y32700D02*
X91490D01*
X91400Y32200D02*
Y33200D01*
X91490Y32200D02*
Y33200D01*
X91900Y31100D02*
Y33200D01*
X91120Y32200D02*
X91490D01*
X91120D02*
Y33200D01*
X91400Y31100D02*
Y32200D01*
X82750D02*
X83120D01*
X82750D02*
X83120D01*
X91120D02*
X91490D01*
X83120Y31100D02*
Y32200D01*
X81270Y31100D02*
X83120D01*
X82900D02*
Y32200D01*
X91120Y31100D02*
Y32200D01*
X81900Y31100D02*
Y38321D01*
X82400Y31100D02*
Y38321D01*
X92970Y17200D02*
X93418D01*
X92970Y16700D02*
X94389D01*
X92970Y16300D02*
Y17517D01*
X93400Y4329D02*
Y17212D01*
X93900Y4329D02*
Y16923D01*
X92900Y4329D02*
Y16300D01*
X92400Y4329D02*
Y16300D01*
X91400Y4329D02*
Y16300D01*
X91900Y4329D02*
Y16300D01*
X83333Y15700D02*
X118467D01*
X83320Y16200D02*
X118480D01*
X83333Y14700D02*
X118467D01*
X83314Y16300D02*
X92970D01*
X83333Y15200D02*
X118467D01*
X83333Y14200D02*
X118467D01*
X83333Y13700D02*
X118467D01*
X90400Y4329D02*
Y16300D01*
X90900Y4329D02*
Y16300D01*
X83333Y11700D02*
X118467D01*
X83333Y12200D02*
X118467D01*
X83333Y11200D02*
X118467D01*
X83333Y13200D02*
X118467D01*
X83333Y12700D02*
X118467D01*
X83309Y9700D02*
X118491D01*
X83256Y9200D02*
X118544D01*
X83171Y8700D02*
X118629D01*
X83333Y10700D02*
X118467D01*
X83332Y10200D02*
X118468D01*
X82720Y7200D02*
X119080D01*
X82497Y6700D02*
X119303D01*
X82232Y6200D02*
X119568D01*
X83055Y8200D02*
X118745D01*
X82905Y7700D02*
X118895D01*
X81131Y4700D02*
X120669D01*
X80767Y4329D02*
X121033Y4329D01*
X81921Y5700D02*
X119879D01*
X81558Y5200D02*
X120243D01*
X80900Y21603D02*
Y48133D01*
X80234Y22200D02*
X81270D01*
X80801Y21700D02*
X81270D01*
X79900Y22455D02*
Y48133D01*
X80400Y22063D02*
Y48133D01*
X84900Y4329D02*
Y16300D01*
X84400Y4329D02*
Y16300D01*
X85400Y4329D02*
Y16300D01*
X81270Y21208D02*
Y31100D01*
X83900Y4329D02*
Y16300D01*
X78400Y23318D02*
Y48133D01*
X77354Y23700D02*
X81270D01*
X78654Y23200D02*
X81270D01*
X77400Y23687D02*
Y48133D01*
X77900Y23520D02*
Y48133D01*
X79400Y22790D02*
Y48133D01*
X79542Y22700D02*
X81270D01*
X78900Y23076D02*
Y48133D01*
X87400Y4329D02*
Y16300D01*
X86900Y4329D02*
Y16300D01*
X87900Y4329D02*
Y16300D01*
X85900Y4329D02*
Y16300D01*
X86400Y4329D02*
Y16300D01*
X89400Y4329D02*
Y16300D01*
X89900Y4329D02*
Y16300D01*
X88400Y4329D02*
Y16300D01*
X88900Y4329D02*
Y16300D01*
X83400Y4329D02*
Y16300D01*
X83333Y10330D02*
Y15732D01*
X82900Y4329D02*
Y7684D01*
X82400Y4329D02*
Y6507D01*
X81900Y4329D02*
Y5668D01*
X81400Y4329D02*
Y5006D01*
X72632Y43200D02*
X81870D01*
X72496Y43700D02*
X81870D01*
X72715Y42700D02*
X81870D01*
X72039Y44700D02*
X81870D01*
X72300Y44200D02*
X81870D01*
X72538Y40700D02*
X81870D01*
X72359Y40200D02*
X81870D01*
X72115Y39700D02*
X81870D01*
X72729Y41700D02*
X81870D01*
X72660Y41200D02*
X81870D01*
X71797Y39200D02*
X81870D01*
X71697Y45200D02*
X81870D01*
X71382Y38700D02*
X81870D01*
X70657Y46200D02*
X81870D01*
X71252Y45700D02*
X81870D01*
X68561Y37200D02*
X82750D01*
X4475Y36700D02*
X82750D01*
X70834Y38200D02*
X82750D01*
X70060Y37700D02*
X82750D01*
X22446Y31200D02*
X83120D01*
X4475Y31700D02*
X83120D01*
X24005Y30700D02*
X81270D01*
X25095Y30200D02*
X81270D01*
X25962Y29700D02*
X81270D01*
X29171Y26700D02*
X81270D01*
X28783Y27200D02*
X81270D01*
X29518Y26200D02*
X81270D01*
X26689Y29200D02*
X81270D01*
X28350Y27700D02*
X81270D01*
X4475Y34700D02*
X82750D01*
X4475Y35200D02*
X82750D01*
X4475Y34200D02*
X82750D01*
X4475Y36200D02*
X82750D01*
X4475Y35700D02*
X82750D01*
X4475Y32700D02*
X82750D01*
X4475Y32200D02*
X82750D01*
X4475Y33700D02*
X82750D01*
X4475Y33200D02*
X82750D01*
X71400Y45548D02*
Y46633D01*
X70900Y46014D02*
Y46633D01*
X69927D02*
X73247D01*
X64400Y45847D02*
Y46633D01*
X64900Y46243D02*
Y46633D01*
X72400Y43965D02*
Y46633D01*
X71900Y44918D02*
Y46633D01*
X63400Y44603D02*
Y46633D01*
X63900Y45327D02*
Y46633D01*
X62248D02*
X65568D01*
X4475Y46200D02*
X64838D01*
X4475Y45700D02*
X64243D01*
X4475Y45200D02*
X63798D01*
X4475Y44700D02*
X63457D01*
X4475Y44200D02*
X63195D01*
X62900Y43359D02*
Y46633D01*
X4475Y43700D02*
X62999D01*
X4475Y43200D02*
X62863D01*
X4475Y42200D02*
X62748D01*
X4475Y41700D02*
X62766D01*
X27316Y28700D02*
X81270D01*
X27864Y28200D02*
X81270D01*
X4475Y41200D02*
X62835D01*
X4475Y39700D02*
X63380D01*
X4475Y40200D02*
X63136D01*
X4475Y39200D02*
X63698D01*
X4475Y42700D02*
X62780D01*
X4475Y40700D02*
X62957D01*
X4475Y37700D02*
X65435D01*
X4475Y37200D02*
X66934D01*
X4475Y38700D02*
X64113D01*
X4475Y38200D02*
X64661D01*
X72400Y23602D02*
Y40302D01*
X71900Y23416D02*
Y39348D01*
X71400Y23193D02*
Y38719D01*
X70900Y22928D02*
Y38252D01*
X70400Y22617D02*
Y37895D01*
X69900Y22252D02*
Y37620D01*
X69400Y21826D02*
Y37414D01*
X68900Y21322D02*
Y37268D01*
X68400Y20718D02*
Y37176D01*
X67900Y19972D02*
Y37136D01*
X30106Y25200D02*
X81270D01*
X29829Y25700D02*
X81270D01*
X30354Y24700D02*
X81270D01*
X30573Y24200D02*
X81270D01*
X30765Y23700D02*
X72714D01*
X30932Y23200D02*
X71414D01*
X31075Y22700D02*
X70526D01*
X31194Y22200D02*
X69834D01*
X31451Y20200D02*
X68040D01*
X68400Y4329D02*
Y5344D01*
X31461Y19700D02*
X67745D01*
X31451Y19200D02*
X67494D01*
X68900Y4329D02*
Y4740D01*
X67400Y4329D02*
Y7075D01*
X67900Y4329D02*
Y6090D01*
X31366Y21200D02*
X68791D01*
X31291Y21700D02*
X69267D01*
X31419Y20700D02*
X68386D01*
X18635Y6700D02*
X67571D01*
X19135Y6200D02*
X67836D01*
X20635Y4700D02*
X68937D01*
X21005Y4329D02*
X69301D01*
X19635Y5700D02*
X68147D01*
X20135Y5200D02*
X68511D01*
X67400Y18987D02*
Y37145D01*
X66900Y17379D02*
Y37206D01*
X66735Y10330D02*
Y15732D01*
X65900Y4329D02*
Y37487D01*
X66400Y4329D02*
Y37318D01*
X64900Y4329D02*
Y38023D01*
X64400Y4329D02*
Y38419D01*
X65400Y4329D02*
Y37719D01*
X63400Y4329D02*
Y39664D01*
X63900Y4329D02*
Y38940D01*
X31419Y18700D02*
X67284D01*
X31366Y18200D02*
X67111D01*
X31291Y17700D02*
X66972D01*
X31194Y17200D02*
X66866D01*
X31075Y16700D02*
X66792D01*
X30932Y16200D02*
X66748D01*
X30765Y15700D02*
X66735D01*
X62400Y4329D02*
Y46633D01*
X62900Y4329D02*
Y40908D01*
X30106Y14200D02*
X66735D01*
X29829Y13700D02*
X66735D01*
X29518Y13200D02*
X66735D01*
X30573Y15200D02*
X66735D01*
X30354Y14700D02*
X66735D01*
X28350Y11700D02*
X66735D01*
X66900Y4329D02*
Y8683D01*
X29171Y12700D02*
X66735D01*
X28783Y12200D02*
X66735D01*
X26689Y10200D02*
X66736D01*
X25962Y9700D02*
X66759D01*
X25095Y9200D02*
X66812D01*
X27864Y11200D02*
X66735D01*
X27316Y10700D02*
X66735D01*
X17635Y7700D02*
X67163D01*
X18135Y7200D02*
X67348D01*
X24005Y8700D02*
X66897D01*
X22446Y8200D02*
X67013D01*
X61400Y118375D02*
Y159440D01*
X59800Y118375D02*
Y144041D01*
X48445Y108630D02*
X52800D01*
X46807D02*
X48445D01*
X46807D02*
X48445D01*
X46400Y96514D02*
Y108630D01*
X45900Y97014D02*
Y108630D01*
X46900Y96014D02*
Y108630D01*
X44900Y98014D02*
Y108630D01*
X45400Y97514D02*
Y108630D01*
X38587Y107200D02*
X52800D01*
X38587Y107700D02*
X52800D01*
X38587Y106700D02*
X52800D01*
X38900Y108630D02*
X46807D01*
X38587Y108200D02*
X52800D01*
X44400Y98514D02*
Y108630D01*
X38587Y106200D02*
X52800D01*
X43400Y99514D02*
Y108630D01*
X43900Y99014D02*
Y108630D01*
X43714Y99200D02*
X52800D01*
X43214Y99700D02*
X52800D01*
X44214Y98700D02*
X52800D01*
X42214Y100700D02*
X52800D01*
X42714Y100200D02*
X52800D01*
X46214Y96700D02*
X52800D01*
X45714Y97200D02*
X52800D01*
X46714Y96200D02*
X52800D01*
X44714Y98200D02*
X52800D01*
X45214Y97700D02*
X52800D01*
X38587Y104700D02*
X52800D01*
X32117Y104200D02*
X52800D01*
X39597Y103200D02*
X52800D01*
X38587Y105700D02*
X52800D01*
X38587Y105200D02*
X52800D01*
X41214Y101700D02*
X52800D01*
X41714Y101200D02*
X52800D01*
X40214Y102700D02*
X52800D01*
X40714Y102200D02*
X52800D01*
X39900Y102989D02*
Y108630D01*
X39400Y103308D02*
Y108630D01*
X40400Y102514D02*
Y108630D01*
X38587Y104408D02*
Y108630D01*
X38900Y103499D02*
Y108630D01*
X42400Y100514D02*
Y108630D01*
X41900Y101014D02*
Y108630D01*
X42900Y100014D02*
Y108630D01*
X40900Y102014D02*
Y108630D01*
X41400Y101514D02*
Y108630D01*
X38587D02*
X38900D01*
X32100D02*
X32587D01*
X38587D02*
X38900D01*
X32100Y108030D02*
Y108630D01*
Y108200D02*
X32587D01*
X32400Y103600D02*
Y108630D01*
X32587Y104408D02*
Y108630D01*
X37400Y103600D02*
Y104408D01*
X36900Y103600D02*
Y104408D01*
X37900Y103600D02*
Y104408D01*
X35400Y103600D02*
Y104408D01*
X35900Y103600D02*
Y104408D01*
X36400Y103600D02*
Y104408D01*
X38400Y103589D02*
Y104408D01*
X32587D02*
X38587D01*
X34900Y103600D02*
Y104408D01*
X32115Y104700D02*
X32587D01*
X34400Y103600D02*
Y104408D01*
X33900Y103600D02*
Y104408D01*
X32106Y96200D02*
X36815D01*
X32900Y103600D02*
Y104408D01*
X33400Y103600D02*
Y104408D01*
X52800Y92810D02*
Y108630D01*
X50714Y92200D02*
X52867D01*
X51214Y91700D02*
X53030D01*
X50900Y92014D02*
Y108630D01*
X51400Y91514D02*
Y108630D01*
X52900Y90014D02*
Y92068D01*
X51900Y91014D02*
Y108630D01*
X52400Y90514D02*
Y108630D01*
X48714Y94200D02*
X52800D01*
X48214Y94700D02*
X52800D01*
X49214Y93700D02*
X52800D01*
X47214Y95700D02*
X52800D01*
X47714Y95200D02*
X52800D01*
X40134Y102780D02*
X56654Y86260D01*
X36415Y96600D02*
X52934Y80080D01*
X49714Y93200D02*
X52800D01*
X50214Y92700D02*
X52802D01*
X55400Y87514D02*
Y89050D01*
X54714Y88200D02*
X56250D01*
X55214Y87700D02*
X56750D01*
X54400Y88514D02*
Y90050D01*
X54900Y88014D02*
Y89550D01*
X56900Y86260D02*
Y87550D01*
X55714Y87200D02*
X57250D01*
X57400Y86260D02*
Y87050D01*
X55900Y87014D02*
Y88550D01*
X56400Y86514D02*
Y88050D01*
X52714Y90200D02*
X54250D01*
X52214Y90700D02*
X53750D01*
X53214Y89700D02*
X54750D01*
X51714Y91200D02*
X53309D01*
X53400Y89514D02*
Y91078D01*
X53620Y90830D02*
X57680Y86770D01*
X54214Y88700D02*
X55750D01*
X53900Y89014D02*
Y90550D01*
X53714Y89200D02*
X55250D01*
X48900Y94014D02*
Y108630D01*
X48400Y94514D02*
Y108630D01*
X49400Y93514D02*
Y108630D01*
X47400Y95514D02*
Y108630D01*
X47900Y95014D02*
Y108630D01*
X50400Y92514D02*
Y108630D01*
X49900Y93014D02*
Y108630D01*
X37400Y4329D02*
Y95615D01*
X36400Y4329D02*
Y96600D01*
X36900Y4329D02*
Y96115D01*
X33900Y4329D02*
Y96600D01*
X33400Y4329D02*
Y96600D01*
X32121Y95700D02*
X37315D01*
X32400Y4329D02*
Y96600D01*
X32900Y4329D02*
Y96600D01*
X35400Y4329D02*
Y96600D01*
X35900Y4329D02*
Y96600D01*
X34400Y4329D02*
Y96600D01*
X34900Y4329D02*
Y96600D01*
X43400Y4329D02*
Y89615D01*
X42900Y4329D02*
Y90115D01*
X43900Y4329D02*
Y89115D01*
X41900Y4329D02*
Y91115D01*
X42400Y4329D02*
Y90615D01*
X45400Y4329D02*
Y87615D01*
X45900Y4329D02*
Y87115D01*
X44400Y4329D02*
Y88615D01*
X44900Y4329D02*
Y88115D01*
X38900Y4329D02*
Y94115D01*
X38400Y4329D02*
Y94615D01*
X39400Y4329D02*
Y93615D01*
X32094Y95200D02*
X37815D01*
X37900Y4329D02*
Y95115D01*
X40900Y4329D02*
Y92115D01*
X41400Y4329D02*
Y91615D01*
X39900Y4329D02*
Y93115D01*
X40400Y4329D02*
Y92615D01*
X31424Y107200D02*
X32587D01*
X31122Y107700D02*
X32587D01*
X31847Y106200D02*
X32587D01*
X31400Y107245D02*
Y108030D01*
X31663Y106700D02*
X32587D01*
X32071Y105200D02*
X32587D01*
X31982Y105700D02*
X32587D01*
X31900Y106025D02*
Y108030D01*
X30882D02*
X32100D01*
X17300D02*
X18518D01*
X4475Y107700D02*
X18278D01*
X17900Y107054D02*
Y108030D01*
X4475Y107200D02*
X17976D01*
X4475Y106700D02*
X17737D01*
X4475Y106200D02*
X17552D01*
X4475Y105700D02*
X17418D01*
X32076Y103700D02*
X52800D01*
X32062Y103600D02*
X38154D01*
X18900Y99810D02*
Y100390D01*
X4475Y102200D02*
X17721D01*
X4475Y101700D02*
X17955D01*
X18400Y99212D02*
Y100988D01*
X32062Y96600D02*
X36415D01*
X17900Y98392D02*
Y101808D01*
X4475Y97200D02*
X17456D01*
X4475Y100200D02*
X19090D01*
X4475Y100700D02*
X18624D01*
X4475Y99700D02*
X18797D01*
X4475Y102700D02*
X17541D01*
X4475Y101200D02*
X18252D01*
X4475Y99200D02*
X18391D01*
X4475Y98700D02*
X18066D01*
X4475Y98200D02*
X17808D01*
X4475Y97700D02*
X17607D01*
X11330Y117667D02*
X16732D01*
X4475Y118200D02*
X8404D01*
X4475Y117700D02*
X10591D01*
X17300Y108030D02*
Y117686D01*
X4475Y116700D02*
X17300D01*
X4475Y116200D02*
X17300D01*
X4475Y117200D02*
X17300D01*
X4475Y114200D02*
X17300D01*
X4475Y114700D02*
X17300D01*
X4475Y113700D02*
X17300D01*
X4475Y115700D02*
X17300D01*
X4475Y115200D02*
X17300D01*
X4475Y112200D02*
X17300D01*
X4475Y111700D02*
X17300D01*
X4475Y113200D02*
X17300D01*
X4475Y112700D02*
X17300D01*
X4475Y109700D02*
X17300D01*
X4475Y110200D02*
X17300D01*
X4475Y109200D02*
X17300D01*
X4475Y111200D02*
X17300D01*
X4475Y110700D02*
X17300D01*
X17400Y105617D02*
Y108030D01*
Y96955D02*
Y103245D01*
X4475Y108700D02*
X17300D01*
X4475Y108200D02*
X17300D01*
X4475Y103700D02*
X17324D01*
X4475Y105200D02*
X17329D01*
X4475Y103200D02*
X17410D01*
X4475Y104700D02*
X17285D01*
X4475Y104200D02*
X17283D01*
X4475Y96700D02*
X17353D01*
X4475Y95200D02*
X17306D01*
X4475Y96200D02*
X17294D01*
X4475Y95700D02*
X17279D01*
X31743Y93700D02*
X39315D01*
X31527Y93200D02*
X39815D01*
X31251Y92700D02*
X40315D01*
X32023Y94700D02*
X38315D01*
X31907Y94200D02*
X38815D01*
X31900Y4329D02*
Y94175D01*
X30906Y92200D02*
X40815D01*
X30473Y91700D02*
X41315D01*
X31400Y87871D02*
Y92955D01*
X30900Y89055D02*
Y92193D01*
X29923Y91200D02*
X41815D01*
X4475Y92200D02*
X18494D01*
X4475Y91700D02*
X18927D01*
X30400Y89791D02*
Y91626D01*
X19400Y90238D02*
Y91263D01*
X18400Y88870D02*
Y92326D01*
X18900Y89663D02*
Y91728D01*
X30472Y89700D02*
X43315D01*
X30037Y90200D02*
X42815D01*
X30815Y89200D02*
X43815D01*
X29900Y90335D02*
Y91182D01*
X29476Y90700D02*
X42315D01*
X31447Y87700D02*
X45315D01*
X31293Y88200D02*
X44815D01*
X31551Y87200D02*
X45815D01*
X31085Y88700D02*
X44315D01*
X4475Y90700D02*
X19924D01*
X4475Y91200D02*
X19477D01*
X4475Y90200D02*
X19363D01*
X4475Y89700D02*
X18928D01*
X4475Y89200D02*
X18585D01*
X16900Y82531D02*
Y117669D01*
X16400Y82533D02*
Y117667D01*
X15400Y82533D02*
Y117667D01*
X14400Y82533D02*
Y117667D01*
X14900Y82533D02*
Y117667D01*
X10400Y82481D02*
Y117719D01*
X9900Y82409D02*
Y117791D01*
X10900Y82522D02*
Y117678D01*
X8900Y82169D02*
Y118031D01*
X9400Y82306D02*
Y117894D01*
X7900Y81791D02*
Y118409D01*
X7400Y81543D02*
Y118657D01*
X8400Y81999D02*
Y118201D01*
X6400Y80910D02*
Y119290D01*
X6900Y81252D02*
Y118948D01*
X5400Y80040D02*
Y120160D01*
X5900Y80510D02*
Y119690D01*
X4475Y78912D02*
Y121288D01*
X4900Y79481D02*
Y120719D01*
X15900Y82533D02*
Y117667D01*
X13900Y82533D02*
Y117667D01*
X17900Y87474D02*
Y93146D01*
X11900Y82533D02*
Y117667D01*
X13400Y82533D02*
Y117667D01*
X12900Y82533D02*
Y117667D01*
X17400Y82506D02*
Y94583D01*
X11400Y82533D02*
Y117667D01*
X12400Y82533D02*
Y117667D01*
X4475Y93200D02*
X17873D01*
X4475Y93700D02*
X17657D01*
X4475Y92700D02*
X18149D01*
X4475Y94700D02*
X17377D01*
X4475Y94200D02*
X17493D01*
X4475Y88700D02*
X18315D01*
X4475Y88200D02*
X18107D01*
X4475Y87700D02*
X17953D01*
X4475Y87200D02*
X17849D01*
X61400Y78393D02*
Y79260D01*
X60900Y78393D02*
Y79260D01*
X61900Y78393D02*
Y79260D01*
X57900Y86260D02*
Y86572D01*
X60400Y78393D02*
Y79260D01*
X59900Y78387D02*
Y79260D01*
X59400Y78312D02*
Y79260D01*
X58400Y77870D02*
Y79260D01*
X58900Y78146D02*
Y79260D01*
X56654Y86260D02*
X58380D01*
X56214Y86700D02*
X57753D01*
X57900Y77443D02*
Y79260D01*
X56900Y76443D02*
Y79260D01*
X57400Y76943D02*
Y79260D01*
X55900Y75358D02*
Y79260D01*
X56400Y75943D02*
Y79260D01*
X60093Y78393D02*
X62001D01*
X56280Y75823D02*
X57971Y77513D01*
X25018Y74700D02*
X55572D01*
X25031Y74200D02*
X55442D01*
X56280Y66078D02*
X57445Y64912D01*
X24273Y77700D02*
X58175D01*
X24022Y78200D02*
X59034D01*
X24483Y77200D02*
X57657D01*
X24656Y76700D02*
X57157D01*
X24795Y76200D02*
X56657D01*
X24901Y75700D02*
X56164D01*
X24975Y75200D02*
X55802D01*
X23330Y69200D02*
X55400D01*
X22917Y68700D02*
X55400D01*
X31587Y85700D02*
X47315D01*
X31507Y85200D02*
X47815D01*
X31380Y84700D02*
X48315D01*
X31609Y86700D02*
X46315D01*
X31620Y86200D02*
X46815D01*
X30660Y83200D02*
X49815D01*
X30276Y82700D02*
X50315D01*
X29787Y82200D02*
X50815D01*
X31200Y84200D02*
X48815D01*
X30963Y83700D02*
X49315D01*
X29142Y81700D02*
X51315D01*
X28203Y81200D02*
X51815D01*
X22400Y80296D02*
Y80854D01*
X23322Y80777D02*
X26078D01*
X24400Y77408D02*
Y80777D01*
X24900Y75703D02*
Y80777D01*
X22900Y79786D02*
Y80793D01*
X23900Y78417D02*
Y80777D01*
X55400Y73700D02*
Y79260D01*
X25014Y73700D02*
X55400D01*
X24966Y73200D02*
X55400D01*
Y68200D02*
Y73700D01*
Y68200D02*
Y73700D01*
X24888Y72700D02*
X55400D01*
X24778Y72200D02*
X55400D01*
X24635Y71700D02*
X55400D01*
X22977Y79700D02*
X53408D01*
X24456Y71200D02*
X55400D01*
X23400Y79175D02*
Y80777D01*
X22501Y80200D02*
X52815D01*
X23683Y69700D02*
X55400D01*
X22430Y68200D02*
X55400D01*
X24241Y70700D02*
X55400D01*
X23985Y70200D02*
X55400D01*
X52400Y4329D02*
Y80615D01*
X51900Y4329D02*
Y81115D01*
X52900Y4329D02*
Y80115D01*
X50900Y4329D02*
Y82115D01*
X51400Y4329D02*
Y81615D01*
X54900Y4329D02*
Y79260D01*
X54400Y4329D02*
Y79308D01*
X55400Y4329D02*
Y68200D01*
X53400Y4329D02*
Y79705D01*
X53900Y4329D02*
Y79450D01*
X47900Y4329D02*
Y85115D01*
X47400Y4329D02*
Y85615D01*
X48400Y4329D02*
Y84615D01*
X46400Y4329D02*
Y86615D01*
X46900Y4329D02*
Y86115D01*
X49900Y4329D02*
Y83115D01*
X50400Y4329D02*
Y82615D01*
X48900Y4329D02*
Y84115D01*
X49400Y4329D02*
Y83615D01*
X61900Y4329D02*
Y63511D01*
X61400Y4329D02*
Y63511D01*
X62248Y46633D02*
Y57633D01*
X61001Y63511D02*
Y64032D01*
X59568D02*
X61001D01*
X60400Y4329D02*
Y64032D01*
X59900Y4329D02*
Y64032D01*
X60900Y4329D02*
Y64032D01*
X58900Y4329D02*
Y64108D01*
X59400Y4329D02*
Y64037D01*
X58400Y4329D02*
Y64269D01*
X57400Y4329D02*
Y64957D01*
X57900Y4329D02*
Y64539D01*
X56400Y4329D02*
Y65957D01*
X56900Y4329D02*
Y65457D01*
X55900Y4329D02*
Y66542D01*
X31400Y4329D02*
Y18499D01*
X28900Y27055D02*
Y81549D01*
X28400Y27645D02*
Y81286D01*
X27900Y28165D02*
Y81085D01*
X27400Y28627D02*
Y80936D01*
X26900Y29039D02*
Y80838D01*
X31400Y20901D02*
Y84769D01*
X30900Y23302D02*
Y83585D01*
X30400Y24599D02*
Y82849D01*
X29900Y25577D02*
Y82305D01*
X29400Y26376D02*
Y81882D01*
X24400Y30534D02*
Y71060D01*
X23900Y30742D02*
Y70051D01*
X23400Y30922D02*
Y69293D01*
X22900Y31079D02*
Y68682D01*
X22400Y31211D02*
Y68172D01*
X26400Y29409D02*
Y80786D01*
X25900Y29739D02*
Y80777D01*
X25400Y30035D02*
Y80777D01*
X24900Y30300D02*
Y72765D01*
X28900Y4329D02*
Y12345D01*
X28400Y4329D02*
Y11755D01*
X27900Y4329D02*
Y11235D01*
X27400Y4329D02*
Y10773D01*
X26900Y4329D02*
Y10361D01*
X30900Y4329D02*
Y16098D01*
X30400Y4329D02*
Y14801D01*
X29900Y4329D02*
Y13823D01*
X29400Y4329D02*
Y13024D01*
X24400Y4329D02*
Y8866D01*
X23900Y4329D02*
Y8659D01*
X23400Y4329D02*
Y8477D01*
X22900Y4329D02*
Y8321D01*
X22400Y4329D02*
Y8189D01*
X26400Y4329D02*
Y9991D01*
X25900Y4329D02*
Y9661D01*
X25400Y4329D02*
Y9365D01*
X24900Y4329D02*
Y9100D01*
X21934Y80700D02*
X52315D01*
X21849Y67700D02*
X55442D01*
X21136Y67200D02*
X55572D01*
X21400Y31408D02*
Y67372D01*
X20212Y66700D02*
X55802D01*
X18812Y66200D02*
X56164D01*
X20900Y31473D02*
Y67058D01*
X20400Y31517D02*
Y66790D01*
X4475Y65700D02*
X56657D01*
X4475Y65200D02*
X57157D01*
X4475Y63700D02*
X61001D01*
X4475Y56700D02*
X62248D01*
X4475Y64700D02*
X57681D01*
X4475Y64200D02*
X58579D01*
X4475Y49700D02*
X62248D01*
X4475Y50200D02*
X62248D01*
X4475Y49200D02*
X62248D01*
X4475Y51700D02*
X62248D01*
X4475Y51200D02*
X62248D01*
X4475Y47200D02*
X62248D01*
X4475Y47700D02*
X62248D01*
X4475Y46700D02*
X62248D01*
X4475Y48700D02*
X62248D01*
X4475Y48200D02*
X62248D01*
X4475Y54700D02*
X62248D01*
X4475Y55200D02*
X62248D01*
X4475Y54200D02*
X62248D01*
X4475Y56200D02*
X62248D01*
X4475Y55700D02*
X62248D01*
X4475Y52700D02*
X62248D01*
X4475Y52200D02*
X62248D01*
X4475Y53700D02*
X62248D01*
X4475Y53200D02*
X62248D01*
X17900Y82450D02*
Y85166D01*
X4475Y86700D02*
X17792D01*
X4475Y84700D02*
X18021D01*
X4475Y86200D02*
X17780D01*
X11330Y82533D02*
X16732D01*
X19400Y82092D02*
Y82402D01*
X18900Y82245D02*
Y82977D01*
X19059Y82200D02*
X19613D01*
X18400Y82364D02*
Y83770D01*
X4475Y83700D02*
X18437D01*
X4475Y84200D02*
X18200D01*
X4475Y83200D02*
X18740D01*
X4475Y85700D02*
X17813D01*
X4475Y85200D02*
X17893D01*
X4475Y82700D02*
X19124D01*
X4475Y82200D02*
X9003D01*
X4475Y81700D02*
X7706D01*
X19400Y31541D02*
Y66375D01*
X11330Y65935D02*
X16732D01*
X4475Y81200D02*
X6819D01*
X19900Y31539D02*
Y66563D01*
X18900Y31521D02*
Y66223D01*
X18400Y31480D02*
Y66104D01*
X17900Y31417D02*
Y66018D01*
X4475Y80200D02*
X5561D01*
X4475Y80700D02*
X6128D01*
X4475Y68200D02*
X5632D01*
X4475Y79700D02*
X5085D01*
X4475Y68700D02*
X5145D01*
X4475Y66700D02*
X7850D01*
X4475Y66200D02*
X9250D01*
X4475Y67700D02*
X6213D01*
X4475Y67200D02*
X6926D01*
X21900Y31321D02*
Y67740D01*
X17400Y31333D02*
Y65962D01*
X16900Y31226D02*
Y65937D01*
X15900Y30944D02*
Y65935D01*
X16400Y31097D02*
Y65935D01*
X15400Y30766D02*
Y65935D01*
X14900Y30562D02*
Y65935D01*
X13900Y30070D02*
Y65935D01*
X14400Y30331D02*
Y65935D01*
X4475Y30700D02*
X15232D01*
X4475Y31200D02*
X16791D01*
X4475Y30200D02*
X14142D01*
X12900Y29452D02*
Y65935D01*
X13400Y29779D02*
Y65935D01*
X12400Y29088D02*
Y65935D01*
X11400Y28227D02*
Y65935D01*
X11900Y28682D02*
Y65935D01*
X19900Y5435D02*
Y7861D01*
X18900Y6435D02*
Y7879D01*
X19400Y5935D02*
Y7859D01*
X21900Y4329D02*
Y8079D01*
X21400Y4329D02*
Y7992D01*
X20900Y4435D02*
Y7927D01*
X20400Y4935D02*
Y7883D01*
X4475Y29200D02*
X12548D01*
X4475Y29700D02*
X13275D01*
X4475Y28700D02*
X11921D01*
X4475Y28200D02*
X11373D01*
X17235Y8100D02*
X21005Y4329D01*
X17900Y7435D02*
Y7983D01*
X18400Y6935D02*
Y7920D01*
X10400Y27134D02*
Y65987D01*
X9900Y26467D02*
Y66059D01*
X10900Y27714D02*
Y65946D01*
X8900Y24736D02*
Y66299D01*
X9400Y25686D02*
Y66163D01*
X7900Y21409D02*
Y66677D01*
X7400Y17935D02*
Y66925D01*
X8400Y23494D02*
Y66469D01*
X6400Y18935D02*
Y67558D01*
X6900Y18435D02*
Y67216D01*
X4475Y27200D02*
X10454D01*
X4475Y27700D02*
X10887D01*
X4475Y26700D02*
X10066D01*
X4475Y26200D02*
X9719D01*
X4475Y25700D02*
X9409D01*
X5400Y19935D02*
Y68428D01*
X5900Y19435D02*
Y67958D01*
X4475Y20860D02*
Y69556D01*
X4900Y20435D02*
Y68987D01*
X4635Y20700D02*
X7818D01*
X4475Y23700D02*
X8472D01*
X5135Y20200D02*
X7786D01*
X5635Y19700D02*
X7776D01*
X6135Y19200D02*
X7786D01*
X7900Y17435D02*
Y17991D01*
X7635Y17700D02*
X7946D01*
X6635Y18700D02*
X7818D01*
X7135Y18200D02*
X7871D01*
X4475Y24700D02*
X8883D01*
X4475Y25200D02*
X9131D01*
X4475Y24200D02*
X8664D01*
X4475Y23200D02*
X8305D01*
X4475Y22700D02*
X8162D01*
X4475Y22200D02*
X8043D01*
X4475Y20860D02*
X8018Y17316D01*
X4475Y21700D02*
X7946D01*
X4475Y21200D02*
X7871D01*
X109500Y115275D02*
X110076D01*
X105286Y126535D02*
Y130626D01*
X104957Y115280D02*
X109500D01*
X103457Y116780D02*
X104957Y115280D01*
X103457Y116780D02*
Y124706D01*
X105286Y126535D01*
X123528Y62332D02*
X124400D01*
X124400Y61200D02*
Y62332D01*
X123528D02*
Y63332D01*
X124400Y62328D02*
X124400Y61200D01*
X123900Y60700D02*
X124400Y61200D01*
X123900Y60700D02*
Y62332D01*
X118425Y63332D02*
Y68000D01*
X122400Y60700D02*
Y63332D01*
X122900Y60700D02*
Y63332D01*
X118425D02*
X123528D01*
X120900Y60700D02*
Y63332D01*
X121400Y60700D02*
Y63332D01*
X120400Y60700D02*
Y63332D01*
X121900Y60700D02*
Y63332D01*
X123400Y60700D02*
Y63332D01*
X117900Y60700D02*
X123900D01*
X118400D02*
Y68000D01*
X118900Y60700D02*
Y63332D01*
X117900Y60700D02*
Y68000D01*
X119900Y60700D02*
Y63332D01*
X119400Y60700D02*
Y63332D01*
X116779Y68000D02*
X118425D01*
X116479Y67700D02*
X118425D01*
X115979Y67200D02*
X118425D01*
X115900Y66200D02*
X118425D01*
X115900Y64700D02*
X118425D01*
X115900Y66700D02*
X118425D01*
X115900Y65700D02*
X118425D01*
X115900Y65200D02*
X118425D01*
X115900Y67121D02*
X116779Y68000D01*
X115900Y63700D02*
X118425D01*
X115900Y64200D02*
X118425D01*
X115900Y62700D02*
X123528D01*
X115900D02*
X117900Y60700D01*
X115900Y63200D02*
X123528D01*
X116900Y61700D02*
X124400D01*
X117400Y61200D02*
X124400D01*
X116400Y62200D02*
X124400D01*
X116900Y61700D02*
Y68000D01*
X117400Y61200D02*
Y68000D01*
X116400Y62200D02*
Y67621D01*
X115900Y62700D02*
Y67121D01*
Y62700D02*
Y67121D01*
X83837Y75393D02*
X85530Y73700D01*
X81930Y71700D02*
X85530D01*
X81930Y70700D02*
X85530D01*
X81930Y71200D02*
X85530D01*
Y68200D02*
Y73700D01*
X85400Y68070D02*
Y73830D01*
X81930Y67700D02*
X85030D01*
X81930Y68200D02*
X85530D01*
X84400Y67070D02*
Y74830D01*
X83900Y67032D02*
Y75330D01*
X84900Y67570D02*
Y74330D01*
X84363Y67032D02*
X85530Y68200D01*
X82900Y67032D02*
Y75393D01*
X82400Y67032D02*
Y75393D01*
X83400Y67032D02*
Y75393D01*
X81930Y73200D02*
X85530D01*
X81930Y73700D02*
X85530D01*
X81930Y72200D02*
X85530D01*
X81930Y72700D02*
X85530D01*
X81930Y75200D02*
X84030D01*
X81930Y75393D02*
X83837D01*
X81930Y74200D02*
X85030D01*
X81930Y74700D02*
X84530D01*
X81930Y69700D02*
X85530D01*
X81930Y70200D02*
X85530D01*
X81930Y68700D02*
X85530D01*
X81930Y69200D02*
X85530D01*
X81930Y67200D02*
X84530D01*
X81930Y67032D02*
Y75393D01*
Y67032D02*
X84363D01*
X60093Y75393D02*
X62001D01*
X59900Y75200D02*
X62001D01*
X59400Y74700D02*
X62001D01*
X58900Y74200D02*
X62001D01*
X59400Y67200D02*
Y74700D01*
X58900Y67700D02*
Y74200D01*
Y67700D02*
X62001D01*
X58400Y68200D02*
Y73700D01*
X62001Y67032D02*
Y75393D01*
X61900Y67032D02*
Y75393D01*
X59568Y67032D02*
X62001D01*
X59400Y67200D02*
X62001D01*
X61400Y67032D02*
Y75393D01*
X60900Y67032D02*
Y75393D01*
X60400Y67032D02*
Y75393D01*
X59900Y67032D02*
Y75200D01*
X58400Y73200D02*
X62001D01*
X58400Y73700D02*
X62001D01*
X58400Y72200D02*
X62001D01*
X58400Y72700D02*
X62001D01*
X58400Y71700D02*
X62001D01*
X58400Y73700D02*
X60093Y75393D01*
X58400Y70700D02*
X62001D01*
X58400Y71200D02*
X62001D01*
X58400Y69700D02*
X62001D01*
X58400Y70200D02*
X62001D01*
X58400Y68700D02*
X62001D01*
X58400Y69200D02*
X62001D01*
X58400Y68200D02*
X59568Y67032D01*
X58400Y68200D02*
Y73700D01*
Y68200D02*
X62001D01*
X90504Y152997D02*
X93000Y150500D01*
X87751Y150200D02*
X93000D01*
X87751Y149700D02*
X93000D01*
X87751Y149200D02*
X93000D01*
X87751Y148200D02*
X93000D01*
X87751Y147700D02*
X93000D01*
X87751Y148700D02*
X93000D01*
Y144647D02*
Y150500D01*
X92900Y144546D02*
Y150600D01*
X87751Y145700D02*
X93000D01*
X92400Y144046D02*
Y151100D01*
X87751Y144700D02*
X93000D01*
X87751Y144200D02*
X92554D01*
X87751Y145200D02*
X93000D01*
X91900Y143546D02*
Y151600D01*
X91400Y143046D02*
Y152100D01*
X90900Y142730D02*
Y152600D01*
X91084Y142730D02*
X93000Y144647D01*
X87751Y143200D02*
X91553D01*
X87751Y142730D02*
X91084D01*
X87751Y143700D02*
X92054D01*
X89900Y142730D02*
Y152997D01*
X90400Y142730D02*
Y152997D01*
X88900Y142730D02*
Y152997D01*
X89400Y142730D02*
Y152997D01*
X87900Y142730D02*
Y152997D01*
X88400Y142730D02*
Y152997D01*
X87751Y142730D02*
Y150650D01*
X82321Y152997D02*
X90504D01*
X87400Y150650D02*
Y152997D01*
X82024Y152700D02*
X90800D01*
X81524Y152200D02*
X91300D01*
X81024Y151700D02*
X91800D01*
X80524Y151200D02*
X92300D01*
X80439Y150700D02*
X92800D01*
X83900Y150650D02*
Y152997D01*
X84400Y150650D02*
Y152997D01*
X80439Y151114D02*
X82321Y152997D01*
X83400Y150650D02*
Y152997D01*
X86400Y150650D02*
Y152997D01*
X86900Y150650D02*
Y152997D01*
X84900Y150650D02*
Y152997D01*
X85900Y150650D02*
Y152997D01*
X87751Y147200D02*
X93000D01*
X80439Y150650D02*
X87751D01*
X85400D02*
Y152997D01*
X87751Y146700D02*
X93000D01*
X87751Y146200D02*
X93000D01*
X82400Y150650D02*
Y152997D01*
X82900Y150650D02*
Y152997D01*
X81400Y150650D02*
Y152076D01*
X81900Y150650D02*
Y152576D01*
X80900Y150650D02*
Y151576D01*
X80439Y150650D02*
Y151114D01*
X97383Y138560D02*
X97422Y138520D01*
X105157D01*
X105286Y138391D01*
Y130626D02*
Y138391D01*
D12*
X101600Y152997D02*
Y172669D01*
X105231Y176300D01*
X100200Y152417D02*
Y172669D01*
X96569Y176300D02*
X100200Y172669D01*
X166980Y101200D02*
X171569D01*
X175200Y104831D01*
X166400Y99800D02*
X171569D01*
X175200Y96169D01*
X28331Y99400D02*
X37574D01*
X24700Y95769D02*
X28331Y99400D01*
Y100800D02*
X38154D01*
X24700Y104431D02*
X28331Y100800D01*
X101600Y27331D02*
Y61312D01*
Y27331D02*
X105231Y23700D01*
X100200Y27331D02*
Y61892D01*
X96569Y23700D02*
X100200Y27331D01*
Y61892D02*
X116779Y78470D01*
X38154Y100800D02*
X55494Y83460D01*
X118224Y77935D02*
Y86360D01*
X101600Y61312D02*
X118224Y77935D01*
X115479Y89105D02*
X118224Y86360D01*
X114899Y87705D02*
X116779Y85825D01*
Y78470D02*
Y85825D01*
X113277Y87705D02*
X114899D01*
X112698Y87125D02*
X113277Y87705D01*
X110076Y87125D02*
X112698D01*
X114571Y89105D02*
X114571Y89105D01*
X115479D01*
X110076Y89684D02*
X112698D01*
X113277Y89105D02*
X114571D01*
X112698Y89684D02*
X113277Y89105D01*
X37574Y99400D02*
X54914Y82060D01*
X78302Y84566D02*
X80924D01*
X77723Y85146D02*
X78302Y84566D01*
X77723Y86546D02*
X78302Y87125D01*
X80924D01*
X54914Y82060D02*
X67410D01*
X55494Y83460D02*
X66830D01*
X70496Y85146D02*
X77723D01*
X67410Y82060D02*
X70496Y85146D01*
X69916Y86546D02*
X77723D01*
X66830Y83460D02*
X69916Y86546D01*
X55600Y92810D02*
X59660Y88750D01*
X77723Y91664D02*
X78302Y92243D01*
X80924D01*
X57000Y93390D02*
Y144041D01*
X67747Y91664D02*
X77723D01*
X66233Y90150D02*
X67747Y91664D01*
X60240Y90150D02*
X66233D01*
X29954Y171087D02*
Y171218D01*
X27543Y173628D02*
Y174317D01*
Y173628D02*
X29954Y171218D01*
X33374Y167667D02*
X57000Y144041D01*
X29954Y171087D02*
X33374Y167667D01*
X33374D01*
X28834Y170097D02*
X28964D01*
X25734Y172508D02*
X26423D01*
X28834Y170097D01*
X32794Y166267D02*
X55600Y143461D01*
Y92810D02*
Y143461D01*
X28964Y170097D02*
X32794Y166267D01*
X32794D01*
X77723Y90264D02*
X78302Y89684D01*
X68327Y90264D02*
X77723D01*
X78302Y89684D02*
X80924D01*
X66813Y88750D02*
X68327Y90264D01*
X59660Y88750D02*
X66813D01*
X57000Y93390D02*
X60240Y90150D01*
X101600Y152997D02*
X109738Y144859D01*
X113277Y110736D02*
X116506D01*
X113277Y112136D02*
X115926D01*
X112698Y110157D02*
X113277Y110736D01*
X110076Y110157D02*
X112698D01*
X110076Y112716D02*
X112698D01*
X113277Y112136D01*
X115926D02*
X120060Y116270D01*
X116506Y110736D02*
X121460Y115690D01*
X120060Y116270D02*
Y139041D01*
X115642Y143459D02*
X120060Y139041D01*
X121460Y115690D02*
Y139621D01*
X116222Y144859D02*
X121460Y139621D01*
X109158Y143459D02*
X115642D01*
X100200Y152417D02*
X109158Y143459D01*
X109738Y144859D02*
X116222D01*
X135428Y108452D02*
Y135925D01*
X134028Y109032D02*
Y136504D01*
X162980Y103220D02*
Y138520D01*
Y103220D02*
X166400Y99800D01*
X140833Y141330D02*
X160170D01*
X162980Y138520D01*
X135428Y135925D02*
X140833Y141330D01*
X164380Y103800D02*
Y139100D01*
Y103800D02*
X166980Y101200D01*
X140253Y142730D02*
X160750D01*
X164380Y139100D01*
X134028Y136504D02*
X140253Y142730D01*
X113277Y104459D02*
X129455D01*
X134028Y109032D01*
X130035Y103059D02*
X135428Y108452D01*
X113277Y103059D02*
X130035D01*
X110076Y105039D02*
X112698D01*
X113277Y104459D01*
X110076Y102480D02*
X112698D01*
X113277Y103059D01*
D17*
X67748Y138031D02*
D03*
Y131810D02*
D03*
D18*
X81500Y84560D02*
D03*
Y87120D02*
D03*
Y89680D02*
D03*
Y92240D02*
D03*
Y94800D02*
D03*
Y97360D02*
D03*
Y99920D02*
D03*
Y102480D02*
D03*
Y105040D02*
D03*
Y107600D02*
D03*
Y110160D02*
D03*
Y112720D02*
D03*
Y115280D02*
D03*
Y117840D02*
D03*
X109500D02*
D03*
Y115280D02*
D03*
Y112720D02*
D03*
Y110160D02*
D03*
Y107600D02*
D03*
Y105040D02*
D03*
Y102480D02*
D03*
Y99920D02*
D03*
Y97360D02*
D03*
Y94800D02*
D03*
Y92240D02*
D03*
Y89680D02*
D03*
Y87120D02*
D03*
Y84560D02*
D03*
D19*
X87120Y52133D02*
D03*
Y43471D02*
D03*
X163380Y70164D02*
D03*
Y78826D02*
D03*
X114900Y148717D02*
D03*
Y157379D02*
D03*
D20*
X43295Y113880D02*
D03*
X51957D02*
D03*
X74939Y146400D02*
D03*
X83601D02*
D03*
X89902Y130620D02*
D03*
X98564D02*
D03*
D21*
X66453Y70932D02*
D03*
X77477D02*
D03*
D22*
X35587Y113880D02*
D03*
Y107778D02*
D03*
X163380Y86660D02*
D03*
Y92762D02*
D03*
D23*
X87120Y36200D02*
D03*
X93222D02*
D03*
X147100Y133392D02*
D03*
X153202D02*
D03*
X147001Y64232D02*
D03*
X153104D02*
D03*
X69062Y96082D02*
D03*
X62960D02*
D03*
X121848Y80217D02*
D03*
X127951D02*
D03*
X121848Y94102D02*
D03*
X127951D02*
D03*
X121848Y107598D02*
D03*
X127951D02*
D03*
X121795Y73275D02*
D03*
X127898D02*
D03*
X114900Y165046D02*
D03*
X121002D02*
D03*
X105286Y130626D02*
D03*
X111388D02*
D03*
X121795Y66332D02*
D03*
X127898D02*
D03*
X69062Y115375D02*
D03*
X62960D02*
D03*
D24*
X69131Y108894D02*
D03*
X62831D02*
D03*
Y102463D02*
D03*
X69131D02*
D03*
X105157Y138520D02*
D03*
X111457D02*
D03*
X82135Y130620D02*
D03*
X75836D02*
D03*
X121780Y87154D02*
D03*
X128079D02*
D03*
X82135Y138560D02*
D03*
X75836D02*
D03*
X91084D02*
D03*
X97383D02*
D03*
D25*
X147100Y117804D02*
D03*
Y80796D02*
D03*
D26*
X22115Y168889D02*
D03*
X23924Y170698D02*
D03*
X29353Y176127D02*
D03*
X27543Y174317D02*
D03*
X25734Y172508D02*
D03*
D27*
X8780Y181110D02*
D03*
X17132Y189462D02*
D03*
D53*
X179900Y180200D02*
X191243D01*
X179900D02*
Y191542D01*
Y168858D02*
Y180200D01*
X168558D02*
X179900D01*
X140428Y149996D02*
Y154497D01*
Y149996D02*
X144928D01*
X185869Y126366D02*
Y134165D01*
X175369Y126366D02*
X185869D01*
Y118567D02*
Y126366D01*
X175200Y114280D02*
X181622D01*
X175200D02*
Y119324D01*
X168779Y114280D02*
X175200D01*
X126766Y186969D02*
X134565D01*
X126766Y176469D02*
Y186969D01*
X118967D02*
X126766D01*
X185869Y74634D02*
Y82433D01*
Y66835D02*
Y74634D01*
X175369D02*
X185869D01*
X174380Y52232D02*
Y56732D01*
Y52232D02*
X178880D01*
X174380Y47732D02*
Y52232D01*
X179773Y19700D02*
Y31043D01*
Y19700D02*
X191115D01*
X179773Y8358D02*
Y19700D01*
X168430D02*
X179773D01*
X126766Y13031D02*
X134565D01*
X126766D02*
Y23531D01*
X118967Y13031D02*
X126766D01*
X114680Y23700D02*
Y30121D01*
Y23700D02*
X119723D01*
X114680Y17278D02*
Y23700D01*
X75034Y186969D02*
X82833D01*
X87120Y176300D02*
Y182721D01*
X82077Y176300D02*
X87120D01*
Y169878D02*
Y176300D01*
X75034Y176469D02*
Y186969D01*
X67235D02*
X75034D01*
X47626Y136810D02*
Y141310D01*
X43126Y136810D02*
X47626D01*
X26110Y192037D02*
X29676Y188471D01*
X26110Y192037D02*
X28841Y194768D01*
X23379Y189306D02*
X26110Y192037D01*
X35839Y182446D02*
X39406Y178880D01*
X35839Y182446D02*
X38570Y185177D01*
X32273Y186012D02*
X35839Y182446D01*
X33108Y179715D02*
X35839Y182446D01*
X12229Y165968D02*
X15795Y162402D01*
X6205Y172132D02*
X8936Y174863D01*
X6205Y172132D02*
X9771Y168566D01*
X15795Y162402D02*
X18526Y165133D01*
X13064Y159671D02*
X15795Y162402D01*
X19362Y158836D01*
X19618Y144598D02*
Y155940D01*
Y144598D02*
X30961D01*
X8276D02*
X19618D01*
Y133255D02*
Y144598D01*
X14031Y125966D02*
X24531D01*
X14031D02*
Y133765D01*
X75034Y13031D02*
Y23531D01*
Y13031D02*
X82833D01*
X63248Y42133D02*
X67747D01*
X72247D01*
X67747Y37633D02*
Y42133D01*
X67235Y13031D02*
X75034D01*
X14031Y118167D02*
Y125966D01*
X18279Y86320D02*
X24700D01*
X31122D01*
X24700Y81277D02*
Y86320D01*
X14031Y74234D02*
X24531D01*
X14031D02*
Y82033D01*
Y66435D02*
Y74234D01*
X19618Y19700D02*
Y31043D01*
Y8358D02*
Y19700D01*
X30961D01*
X8276D02*
X19618D01*
X80924Y118834D02*
Y121676D01*
X69062Y96082D02*
X72015D01*
X73295Y94802D02*
X75836D01*
X72015Y96082D02*
X73295Y94802D01*
X69163Y115275D02*
X76799D01*
X69062Y115375D02*
X69163Y115275D01*
D54*
X153202Y133392D02*
Y135892D01*
Y133392D02*
X156072D01*
X121002Y165046D02*
X123872D01*
X121002D02*
Y167546D01*
Y162546D02*
Y165046D01*
X127951Y107598D02*
Y110098D01*
X111457Y136020D02*
Y138520D01*
X114425D01*
X111388Y130626D02*
Y133126D01*
Y130626D02*
X114258D01*
X111388Y128126D02*
Y130626D01*
X163380Y92762D02*
Y95632D01*
Y92762D02*
X165880D01*
X160880D02*
X163380D01*
X128079Y87154D02*
X131048D01*
X128079D02*
Y89654D01*
Y84654D02*
Y87154D01*
X127951Y80217D02*
Y82717D01*
Y77717D02*
Y80217D01*
X130821D01*
X127898Y70775D02*
Y73275D01*
Y75775D01*
Y73275D02*
X130768D01*
X127898Y66332D02*
Y68832D01*
Y66332D02*
X130768D01*
X127898Y63832D02*
Y66332D01*
X17132Y189462D02*
X19231Y187363D01*
X17132Y189462D02*
X19370Y191700D01*
X14893Y187223D02*
X17132Y189462D01*
X8780Y181110D02*
X11018Y183348D01*
X8780Y181110D02*
X10879Y179011D01*
X6542Y178872D02*
X8780Y181110D01*
X62960Y115375D02*
Y117875D01*
X93222Y36200D02*
X96092D01*
X93222D02*
Y38700D01*
Y33700D02*
Y36200D01*
X33087Y107778D02*
X35587D01*
X38087D01*
X35587Y104908D02*
Y107778D01*
X118925Y66332D02*
X121795D01*
Y63832D02*
Y66332D01*
X83601Y146400D02*
X87251D01*
X83601D02*
Y150150D01*
X34289Y171218D02*
X36222D01*
X80924Y115275D02*
X89902D01*
X84900Y117958D02*
Y121700D01*
X84775Y117834D02*
X84900Y117958D01*
X80924Y117834D02*
X84775D01*
X16926Y174077D02*
X22115Y168889D01*
X27304Y163700D01*
X20400Y167174D02*
X22115Y168889D01*
X153104Y59496D02*
Y64232D01*
Y67404D01*
X75836Y98684D02*
X77159Y97361D01*
X80924D01*
X87120Y94802D02*
X89102Y96784D01*
X80924Y94802D02*
X87120D01*
X163380Y92762D02*
X167471D01*
X93222Y32109D02*
Y36200D01*
Y40291D01*
Y36200D02*
X97313D01*
X31496Y107778D02*
X35587D01*
X39678D01*
X35587Y103687D02*
Y107778D01*
X121101Y160956D02*
Y169137D01*
X121002Y165046D02*
X125093D01*
X159289Y92762D02*
X163380D01*
Y96853D01*
X29472Y176034D02*
X29499D01*
X29446D02*
X29472D01*
X34289Y171218D01*
X29353Y176127D02*
X29446Y176034D01*
X110076Y94802D02*
X115479D01*
X88740Y146400D02*
X91084Y144056D01*
Y138560D02*
Y144056D01*
X111388Y126535D02*
Y130626D01*
X111457Y134430D02*
Y138520D01*
X115547D01*
X111388Y130626D02*
X115479D01*
X110076Y107598D02*
X116222D01*
X110076Y84566D02*
X114801D01*
X117524Y90362D02*
X120902D01*
X115643Y92243D02*
X117524Y90362D01*
X110076Y92243D02*
X115643D01*
X120902Y90362D02*
X121780Y89484D01*
Y87154D02*
Y89484D01*
X127898Y62592D02*
Y66332D01*
Y69535D02*
Y73275D01*
X127951Y76477D02*
Y80217D01*
X127898Y66332D02*
X131638D01*
X127898Y73275D02*
X131638D01*
X127951Y80217D02*
X131691D01*
X128079Y83414D02*
Y87154D01*
X131819D01*
X127951Y90362D02*
Y94102D01*
X131691D01*
X59091Y102463D02*
X62831D01*
X62960Y115375D02*
Y119115D01*
X59220Y115375D02*
X62960D01*
X59091Y108894D02*
X62831D01*
X62960Y92342D02*
Y96082D01*
X59220D02*
X62960D01*
X75836Y94802D02*
X80924D01*
X69131Y102463D02*
X69147Y102480D01*
X80924D01*
X69131Y102463D02*
Y108894D01*
X76799Y115275D02*
X80924D01*
X153202Y64232D02*
X156942D01*
X153202Y133392D02*
X156942D01*
D55*
X114680Y176300D02*
X114900Y176080D01*
Y165046D02*
Y176080D01*
Y157379D02*
Y165046D01*
X87120Y23700D02*
Y36200D01*
Y43471D01*
X121822Y80191D02*
Y83414D01*
X121795Y76719D02*
Y80164D01*
Y73275D02*
Y76719D01*
X163380Y53232D02*
Y70164D01*
Y53232D02*
X164380Y52232D01*
X114900Y148717D02*
X129148D01*
X130428Y149996D01*
X68028Y69132D02*
Y73572D01*
X62332Y69132D02*
X68028D01*
X47626Y126810D02*
X51957Y122479D01*
Y113880D02*
Y122479D01*
X35587Y113880D02*
X43295D01*
X132900Y142700D02*
X140197Y149996D01*
X140428D01*
X82135Y130620D02*
X89902D01*
Y97584D02*
Y115275D01*
X89102Y96784D02*
X89902Y97584D01*
Y115275D02*
Y130620D01*
X75836Y125967D02*
Y130620D01*
X67747Y52133D02*
X87120D01*
X87120Y52133D01*
X24700Y113880D02*
X35587D01*
X82135Y130620D02*
Y137996D01*
X121795Y66332D02*
Y73275D01*
D56*
X116222Y107598D02*
X121848D01*
X115479Y94802D02*
X117524D01*
X118224Y94102D01*
X127951Y107598D02*
Y112136D01*
X121795Y80164D02*
X121822Y80191D01*
X121848Y80217D01*
X118224Y94102D02*
X121848D01*
D57*
X101490Y87705D02*
Y90040D01*
X101462Y90067D02*
Y110598D01*
Y90067D02*
X101490Y90040D01*
X98564Y113496D02*
X101462Y110598D01*
X83601Y146400D02*
X88740D01*
X83601Y148275D02*
Y150875D01*
X98564Y113496D02*
Y130620D01*
D58*
X163380Y85660D02*
X164440Y86720D01*
X163380Y78826D02*
Y85660D01*
X164440Y86720D02*
X175200D01*
D59*
X56932Y171686D02*
X74939Y153680D01*
X35587Y171686D02*
X56932D01*
X74939Y147573D02*
Y153680D01*
D60*
X75836Y110157D02*
X80924D01*
X71282Y138031D02*
X71811Y138560D01*
X67748Y138031D02*
X71282D01*
X71811Y138560D02*
X75836D01*
X70830Y131810D02*
X72021Y130620D01*
X75836D01*
X67748Y131810D02*
X70830D01*
X147100Y117804D02*
Y133392D01*
X147001Y64232D02*
X147100Y64331D01*
Y80796D01*
Y94082D01*
X143821Y97361D02*
X147100Y94082D01*
X110076Y97361D02*
X143821D01*
X110076Y99920D02*
X143550D01*
X147100Y103471D01*
Y117804D01*
D61*
X79557Y70966D02*
D03*
X64374D02*
D03*
D62*
X19618Y144598D02*
D03*
Y19700D02*
D03*
X179773Y19700D02*
D03*
X179900Y180200D02*
D03*
D63*
X175200Y96169D02*
D03*
Y104831D02*
D03*
X24700Y95769D02*
D03*
Y104431D02*
D03*
D64*
X26110Y192037D02*
D03*
X6205Y172132D02*
D03*
X35839Y182446D02*
D03*
X15795Y162402D02*
D03*
D65*
X16575Y170531D02*
D03*
X27710Y181667D02*
D03*
D66*
X140428Y149996D02*
D03*
X174380Y52232D02*
D03*
X67747Y42133D02*
D03*
X47626Y136810D02*
D03*
D67*
X130428Y149996D02*
D03*
X164380Y52232D02*
D03*
D68*
X67747Y52133D02*
D03*
X47626Y126810D02*
D03*
D69*
X126766Y186969D02*
D03*
X75034D02*
D03*
Y13031D02*
D03*
X126766D02*
D03*
D70*
X87120Y176300D02*
D03*
X114680Y23700D02*
D03*
D71*
X96569Y176300D02*
D03*
X105231D02*
D03*
Y23700D02*
D03*
X96569D02*
D03*
D72*
X114680Y176300D02*
D03*
X87120Y23700D02*
D03*
D73*
X185869Y74634D02*
D03*
Y126366D02*
D03*
X14031Y125966D02*
D03*
Y74234D02*
D03*
D74*
X175200Y114280D02*
D03*
X24700Y86320D02*
D03*
D75*
X175200Y86720D02*
D03*
X24700Y113880D02*
D03*
D76*
X101490Y90340D02*
D03*
X97400Y144200D02*
D03*
X61400Y130700D02*
D03*
X68900Y126200D02*
D03*
X108900Y79700D02*
D03*
Y76200D02*
D03*
X107900Y60200D02*
D03*
X116900Y71700D02*
D03*
X121795Y76719D02*
D03*
X118294Y62607D02*
D03*
X101490Y87705D02*
D03*
X118224Y107578D02*
D03*
Y94102D02*
D03*
X121795Y62607D02*
D03*
X16889Y178453D02*
D03*
X19618Y181667D02*
D03*
X109400Y167700D02*
D03*
X104549Y167604D02*
D03*
X109900Y122700D02*
D03*
X116400Y118700D02*
D03*
X128900Y128200D02*
D03*
X127900Y135700D02*
D03*
X127400Y121700D02*
D03*
X87400Y167200D02*
D03*
X94900D02*
D03*
X95400Y155200D02*
D03*
X98400Y148700D02*
D03*
X101900Y144200D02*
D03*
X96700Y92200D02*
D03*
Y99200D02*
D03*
Y106200D02*
D03*
X84400Y125967D02*
D03*
X81400D02*
D03*
X84200Y121700D02*
D03*
X60390Y68000D02*
D03*
Y74000D02*
D03*
Y71000D02*
D03*
X40900Y165700D02*
D03*
X155900Y74200D02*
D03*
Y87200D02*
D03*
Y128200D02*
D03*
Y116200D02*
D03*
Y101200D02*
D03*
X139400Y57200D02*
D03*
Y71200D02*
D03*
Y84200D02*
D03*
Y92700D02*
D03*
X156900Y137900D02*
D03*
X151900D02*
D03*
X144400D02*
D03*
X139400Y134200D02*
D03*
Y126700D02*
D03*
Y115700D02*
D03*
Y107200D02*
D03*
X135900Y103700D02*
D03*
X53900Y89700D02*
D03*
X56900Y86700D02*
D03*
X83540Y71000D02*
D03*
Y74000D02*
D03*
Y68000D02*
D03*
X90900Y148200D02*
D03*
Y151200D02*
D03*
X87900Y148200D02*
D03*
Y151200D02*
D03*
X75836Y98684D02*
D03*
Y125967D02*
D03*
Y110157D02*
D03*
X167471Y92762D02*
D03*
X93222Y32109D02*
D03*
Y40291D02*
D03*
X97313Y36200D02*
D03*
X31496Y107778D02*
D03*
X39678D02*
D03*
X35587Y103687D02*
D03*
X121101Y160956D02*
D03*
Y169137D02*
D03*
X125093Y165046D02*
D03*
X159289Y92762D02*
D03*
X163380Y96853D02*
D03*
X111388Y126535D02*
D03*
X111457Y134430D02*
D03*
X115547Y138520D02*
D03*
X115479Y130626D02*
D03*
X127951Y112136D02*
D03*
X114831Y84566D02*
D03*
X121822Y83414D02*
D03*
X127898Y62592D02*
D03*
Y69535D02*
D03*
X127951Y76477D02*
D03*
X131638Y66332D02*
D03*
Y73275D02*
D03*
X131691Y80217D02*
D03*
X128079Y83414D02*
D03*
X131819Y87154D02*
D03*
X127951Y90362D02*
D03*
X131691Y94102D02*
D03*
X59091Y102463D02*
D03*
X62960Y119115D02*
D03*
X59220Y115375D02*
D03*
X59091Y108894D02*
D03*
X62960Y92342D02*
D03*
X59220Y96082D02*
D03*
X156942Y64232D02*
D03*
Y133392D02*
D03*
D77*
X53900Y164200D02*
D03*
X47900Y162200D02*
D03*
X184400Y166200D02*
D03*
Y156200D02*
D03*
Y146200D02*
D03*
Y136200D02*
D03*
Y116200D02*
D03*
Y106200D02*
D03*
Y96200D02*
D03*
Y86200D02*
D03*
Y56200D02*
D03*
Y46200D02*
D03*
Y36200D02*
D03*
X174400Y166200D02*
D03*
Y156200D02*
D03*
Y146200D02*
D03*
Y136200D02*
D03*
Y126200D02*
D03*
Y66200D02*
D03*
Y46200D02*
D03*
Y36200D02*
D03*
Y6200D02*
D03*
X164400Y186200D02*
D03*
Y176200D02*
D03*
Y166200D02*
D03*
Y156200D02*
D03*
Y146200D02*
D03*
Y36200D02*
D03*
Y26200D02*
D03*
Y16200D02*
D03*
Y6200D02*
D03*
X154400Y186200D02*
D03*
Y176200D02*
D03*
Y166200D02*
D03*
Y156200D02*
D03*
Y106200D02*
D03*
Y96200D02*
D03*
Y46200D02*
D03*
Y36200D02*
D03*
Y26200D02*
D03*
Y16200D02*
D03*
Y6200D02*
D03*
X144400Y186200D02*
D03*
Y176200D02*
D03*
Y166200D02*
D03*
Y156200D02*
D03*
Y46200D02*
D03*
Y36200D02*
D03*
Y26200D02*
D03*
Y16200D02*
D03*
Y6200D02*
D03*
X134400Y176200D02*
D03*
Y166200D02*
D03*
Y156200D02*
D03*
Y76200D02*
D03*
Y46200D02*
D03*
Y36200D02*
D03*
Y26200D02*
D03*
X124400Y156200D02*
D03*
Y46200D02*
D03*
Y36200D02*
D03*
Y26200D02*
D03*
X114400Y186200D02*
D03*
Y126200D02*
D03*
Y46200D02*
D03*
Y36200D02*
D03*
Y16200D02*
D03*
Y6200D02*
D03*
X104400Y186200D02*
D03*
Y6200D02*
D03*
X94400Y186200D02*
D03*
Y76200D02*
D03*
Y66200D02*
D03*
Y46200D02*
D03*
Y6200D02*
D03*
X84400Y186200D02*
D03*
Y6200D02*
D03*
X74400Y46200D02*
D03*
Y36200D02*
D03*
Y26200D02*
D03*
X64400Y186200D02*
D03*
Y176200D02*
D03*
Y146200D02*
D03*
Y126200D02*
D03*
Y36200D02*
D03*
Y26200D02*
D03*
Y16200D02*
D03*
Y6200D02*
D03*
X54400Y186200D02*
D03*
Y156200D02*
D03*
Y56200D02*
D03*
Y46200D02*
D03*
Y36200D02*
D03*
Y26200D02*
D03*
Y16200D02*
D03*
Y6200D02*
D03*
X44400Y186200D02*
D03*
Y146200D02*
D03*
Y76200D02*
D03*
Y66200D02*
D03*
Y56200D02*
D03*
Y46200D02*
D03*
Y36200D02*
D03*
Y26200D02*
D03*
Y16200D02*
D03*
Y6200D02*
D03*
X34400Y156200D02*
D03*
Y146200D02*
D03*
Y136200D02*
D03*
Y126200D02*
D03*
Y86200D02*
D03*
Y76200D02*
D03*
Y66200D02*
D03*
Y56200D02*
D03*
Y46200D02*
D03*
Y36200D02*
D03*
Y26200D02*
D03*
Y16200D02*
D03*
Y6200D02*
D03*
X24400Y186200D02*
D03*
Y156200D02*
D03*
Y66200D02*
D03*
Y56200D02*
D03*
Y46200D02*
D03*
Y36200D02*
D03*
Y6200D02*
D03*
X14400Y176200D02*
D03*
Y156200D02*
D03*
Y116200D02*
D03*
Y106200D02*
D03*
Y96200D02*
D03*
Y86200D02*
D03*
Y56200D02*
D03*
Y46200D02*
D03*
Y36200D02*
D03*
M02*
