M48
;Layer_Color=9474304
;FILE_FORMAT=2:5
INCH,LZ
;TYPE=PLATED
T1F00S00C0.01200
T3F00S00C0.03200
T4F00S00C0.03937
T6F00S00C0.11811
;TYPE=NON_PLATED
T7F00S00C0.02362
%
T01
X00644Y00062
Y00162
Y00262
X00744
X00844Y00062
X00944
X01044
X01144
Y00162
X01244Y00262
X01344
X01444
X01544
X01644
Y00162
Y00062
X01744
X01544
Y00162
X01444
Y00062
X00544
Y00162
Y00262
X00444
Y00162
Y00062
X00344
Y00162
Y00262
X00244Y00062
Y00362
X00344
X00444
X00544
Y00462
Y00562
X00444
Y00662
Y00762
X00344
Y00862
X0035587Y0103687
X0031496Y0107778
X0039678
X00344Y01262
Y01362
Y01462
X00444
X00479Y01622
X00539Y01642
X00544Y01562
X00344
X00244
X00144
Y01762
X0016889Y0178453
X0019618Y0181667
X00409Y01657
X00144Y01162
Y01062
Y00962
Y00862
X00244Y00662
X00344
Y00562
Y00462
X00444
X00244
Y00562
X00144
Y00462
Y00362
X00539Y00897
X00569Y00867
X006296Y0092342
X005922Y0096082
X0059091Y0102463
Y0108894
X005922Y0115375
X006296Y0119115
X00644Y01262
X00689
X0075836Y0125967
X00814
X00844
X00842Y01217
X0075836Y0110157
Y0098684
X00967Y00992
Y00922
X010149Y009034
Y0087705
X01089Y00797
Y00762
X01169Y00717
X0121795Y0076719
X0127951Y0076477
X01344Y00762
X0131638Y0073275
Y0066332
X0127898Y0069535
Y0062592
X0121795Y0062607
X0118294
X01079Y00602
X00944Y00662
Y00762
X008354Y0074
Y0071
Y0068
X006039
Y0071
Y0074
X00744Y00462
Y00362
X00644
X0093222Y0032109
Y0040291
X00944Y00462
X0097313Y00362
X01144
X01244
X01344
X01444
X01544
X01644
X01744
X01844
Y00462
Y00562
X01744Y00662
X0156942Y0064232
X01559Y00742
Y00872
X0159289Y0092762
X0167471
X016338Y0096853
X01544Y00962
X01559Y01012
X01544Y01062
X01559Y01162
Y01282
X0156942Y0133392
X01569Y01379
X01519
X01444
X01394Y01342
Y01267
Y01157
Y01072
X01359Y01037
X0131691Y0094102
X0131819Y0087154
X0131691Y0080217
X0128079Y0083414
X0121822
X0114831Y0084566
X0118224Y0094102
X0127951Y0090362
X01394Y00927
Y00842
Y00712
Y00572
X01444Y00462
X01544
X01744
X01344
X01244
X01144
X0118224Y0107578
X01164Y01187
X01144Y01262
X0111388Y0126535
X01099Y01227
X0111457Y013443
X0115479Y0130626
X0115547Y013852
X01279Y01357
X01289Y01282
X01274Y01217
X0127951Y0112136
X00967Y01062
X00974Y01442
X01019
X00984Y01487
X00909Y01482
Y01512
X00879
Y01482
X00954Y01552
X00949Y01672
X00874
X0104549Y0167604
X01094Y01677
X0121101Y0169137
X0125093Y0165046
X0121101Y0160956
X01244Y01562
X01344
X01444
X01544
X01644
X01744
X01844
Y01662
X01744
X01644
Y01762
X01544
Y01662
X01444
Y01762
X01344
Y01662
X01644Y01462
X01744
X01844
Y01362
X01744
Y01262
X01844Y01162
Y01062
Y00962
Y00862
X00614Y01307
X00644Y01462
Y01762
Y01862
X00844
X00944
X01044
X01144
X01444
X01544
X01644
X00544
X00444
X00244
T03
X0047626Y012681
Y013681
X0130428Y0149996
X0140428
X016438Y0052232
X017438
X0067747Y0052133
Y0042133
T04
X008712Y00237
X0096569
X0105231
X011468
X00247Y008632
Y0095769
Y0104431
Y011388
X008712Y01763
X0096569
X0105231
X011468
X01752Y011428
Y0104831
Y0096169
Y008672
T06
X0179773Y00197
X0019618Y00197
Y0144598
X01799Y01802
T07
X0016575Y0170531
X002771Y0181667
M30
