G04*
G04 #@! TF.GenerationSoftware,Altium Limited,Altium Designer,20.0.11 (256)*
G04*
G04 Layer_Color=128*
%FSLAX25Y25*%
%MOIN*%
G70*
G01*
G75*
%ADD79C,0.00200*%
D79*
X13713Y144598D02*
X25524D01*
X19618Y138692D02*
Y150503D01*
X13713Y19700D02*
X25524D01*
X19618Y13794D02*
Y25605D01*
X173867Y19700D02*
X185678D01*
X179773Y13794D02*
Y25605D01*
X173995Y180200D02*
X185805D01*
X179900Y174294D02*
Y186106D01*
X173231Y96169D02*
X177169D01*
X175200Y94200D02*
Y98137D01*
X173231Y104831D02*
X177169D01*
X175200Y102863D02*
Y106799D01*
X25125Y192037D02*
X27094D01*
X26110Y191052D02*
Y193021D01*
X5221Y172132D02*
X7189D01*
X6205Y171148D02*
Y173116D01*
X15394Y170531D02*
X17756D01*
X16575Y169350D02*
Y171712D01*
X26529Y181667D02*
X28892D01*
X27710Y180486D02*
Y182848D01*
X34855Y182446D02*
X36824D01*
X35839Y181462D02*
Y183431D01*
X14811Y162402D02*
X16780D01*
X15795Y161418D02*
Y163386D01*
X138828Y149996D02*
X142028D01*
X140428Y148397D02*
Y151596D01*
X128828Y149996D02*
X132028D01*
X130428Y148397D02*
Y151596D01*
X172780Y52232D02*
X175980D01*
X174380Y50632D02*
Y53832D01*
X162780Y52232D02*
X165980D01*
X164380Y50632D02*
Y53832D01*
X66148Y42133D02*
X69348D01*
X67747Y40533D02*
Y43733D01*
X66148Y52133D02*
X69348D01*
X67747Y50533D02*
Y53733D01*
X46026Y136810D02*
X49226D01*
X47626Y135210D02*
Y138410D01*
X46026Y126810D02*
X49226D01*
X47626Y125210D02*
Y128410D01*
X122766Y186969D02*
X130766D01*
X126766Y182969D02*
Y190969D01*
X71034Y186969D02*
X79034D01*
X75034Y182969D02*
Y190969D01*
X85151Y176300D02*
X89088D01*
X87120Y174331D02*
Y178269D01*
X94600Y176300D02*
X98537D01*
X96569Y174331D02*
Y178269D01*
X103262Y176300D02*
X107200D01*
X105231Y174331D02*
Y178269D01*
X112712Y176300D02*
X116648D01*
X114680Y174331D02*
Y178269D01*
X181869Y74634D02*
X189869D01*
X185869Y70634D02*
Y78634D01*
X181869Y126366D02*
X189869D01*
X185869Y122366D02*
Y130366D01*
X173231Y114280D02*
X177169D01*
X175200Y112311D02*
Y116249D01*
X173231Y86720D02*
X177169D01*
X175200Y84751D02*
Y88688D01*
X71034Y13031D02*
X79034D01*
X75034Y9031D02*
Y17031D01*
X122766Y13031D02*
X130766D01*
X126766Y9031D02*
Y17031D01*
X112712Y23700D02*
X116648D01*
X114680Y21732D02*
Y25668D01*
X103262Y23700D02*
X107200D01*
X105231Y21732D02*
Y25668D01*
X94600Y23700D02*
X98537D01*
X96569Y21732D02*
Y25668D01*
X85151Y23700D02*
X89088D01*
X87120Y21732D02*
Y25668D01*
X10031Y125966D02*
X18031D01*
X14031Y121966D02*
Y129966D01*
X10031Y74234D02*
X18031D01*
X14031Y70234D02*
Y78234D01*
X22731Y86320D02*
X26669D01*
X24700Y84351D02*
Y88288D01*
X22731Y95769D02*
X26669D01*
X24700Y93800D02*
Y97737D01*
X22731Y104431D02*
X26669D01*
X24700Y102462D02*
Y106400D01*
X22731Y113880D02*
X26669D01*
X24700Y111911D02*
Y115849D01*
X100890Y90340D02*
X102090D01*
X101490Y89740D02*
Y90940D01*
X96800Y144200D02*
X98000D01*
X97400Y143600D02*
Y144800D01*
X60800Y130700D02*
X62000D01*
X61400Y130100D02*
Y131300D01*
X68300Y126200D02*
X69500D01*
X68900Y125600D02*
Y126800D01*
X108300Y79700D02*
X109500D01*
X108900Y79100D02*
Y80300D01*
X108300Y76200D02*
X109500D01*
X108900Y75600D02*
Y76800D01*
X107300Y60200D02*
X108500D01*
X107900Y59600D02*
Y60800D01*
X116300Y71700D02*
X117500D01*
X116900Y71100D02*
Y72300D01*
X121195Y76719D02*
X122395D01*
X121795Y76119D02*
Y77319D01*
X117694Y62607D02*
X118894D01*
X118294Y62007D02*
Y63207D01*
X100890Y87705D02*
X102090D01*
X101490Y87105D02*
Y88305D01*
X117624Y107578D02*
X118824D01*
X118224Y106978D02*
Y108178D01*
X117624Y94102D02*
X118824D01*
X118224Y93502D02*
Y94702D01*
X121195Y62607D02*
X122395D01*
X121795Y62007D02*
Y63207D01*
X53300Y164200D02*
X54500D01*
X53900Y163600D02*
Y164800D01*
X47300Y162200D02*
X48500D01*
X47900Y161600D02*
Y162800D01*
X16289Y178453D02*
X17489D01*
X16889Y177853D02*
Y179053D01*
X19018Y181667D02*
X20219D01*
X19618Y181067D02*
Y182267D01*
X108800Y167700D02*
X110000D01*
X109400Y167100D02*
Y168300D01*
X103949Y167604D02*
X105149D01*
X104549Y167004D02*
Y168204D01*
X109300Y122700D02*
X110500D01*
X109900Y122100D02*
Y123300D01*
X115800Y118700D02*
X117000D01*
X116400Y118100D02*
Y119300D01*
X128300Y128200D02*
X129500D01*
X128900Y127600D02*
Y128800D01*
X127300Y135700D02*
X128500D01*
X127900Y135100D02*
Y136300D01*
X126800Y121700D02*
X128000D01*
X127400Y121100D02*
Y122300D01*
X183800Y166200D02*
X185000D01*
X184400Y165600D02*
Y166800D01*
X183800Y156200D02*
X185000D01*
X184400Y155600D02*
Y156800D01*
X183800Y146200D02*
X185000D01*
X184400Y145600D02*
Y146800D01*
X183800Y136200D02*
X185000D01*
X184400Y135600D02*
Y136800D01*
X183800Y116200D02*
X185000D01*
X184400Y115600D02*
Y116800D01*
X183800Y106200D02*
X185000D01*
X184400Y105600D02*
Y106800D01*
X183800Y96200D02*
X185000D01*
X184400Y95600D02*
Y96800D01*
X183800Y86200D02*
X185000D01*
X184400Y85600D02*
Y86800D01*
X183800Y56200D02*
X185000D01*
X184400Y55600D02*
Y56800D01*
X183800Y46200D02*
X185000D01*
X184400Y45600D02*
Y46800D01*
X183800Y36200D02*
X185000D01*
X184400Y35600D02*
Y36800D01*
X173800Y166200D02*
X175000D01*
X174400Y165600D02*
Y166800D01*
X173800Y156200D02*
X175000D01*
X174400Y155600D02*
Y156800D01*
X173800Y146200D02*
X175000D01*
X174400Y145600D02*
Y146800D01*
X173800Y136200D02*
X175000D01*
X174400Y135600D02*
Y136800D01*
X173800Y126200D02*
X175000D01*
X174400Y125600D02*
Y126800D01*
X173800Y66200D02*
X175000D01*
X174400Y65600D02*
Y66800D01*
X173800Y46200D02*
X175000D01*
X174400Y45600D02*
Y46800D01*
X173800Y36200D02*
X175000D01*
X174400Y35600D02*
Y36800D01*
X173800Y6200D02*
X175000D01*
X174400Y5600D02*
Y6800D01*
X163800Y186200D02*
X165000D01*
X164400Y185600D02*
Y186800D01*
X163800Y176200D02*
X165000D01*
X164400Y175600D02*
Y176800D01*
X163800Y166200D02*
X165000D01*
X164400Y165600D02*
Y166800D01*
X163800Y156200D02*
X165000D01*
X164400Y155600D02*
Y156800D01*
X163800Y146200D02*
X165000D01*
X164400Y145600D02*
Y146800D01*
X163800Y36200D02*
X165000D01*
X164400Y35600D02*
Y36800D01*
X163800Y26200D02*
X165000D01*
X164400Y25600D02*
Y26800D01*
X163800Y16200D02*
X165000D01*
X164400Y15600D02*
Y16800D01*
X163800Y6200D02*
X165000D01*
X164400Y5600D02*
Y6800D01*
X153800Y186200D02*
X155000D01*
X154400Y185600D02*
Y186800D01*
X153800Y176200D02*
X155000D01*
X154400Y175600D02*
Y176800D01*
X153800Y166200D02*
X155000D01*
X154400Y165600D02*
Y166800D01*
X153800Y156200D02*
X155000D01*
X154400Y155600D02*
Y156800D01*
X153800Y106200D02*
X155000D01*
X154400Y105600D02*
Y106800D01*
X153800Y96200D02*
X155000D01*
X154400Y95600D02*
Y96800D01*
X153800Y46200D02*
X155000D01*
X154400Y45600D02*
Y46800D01*
X153800Y36200D02*
X155000D01*
X154400Y35600D02*
Y36800D01*
X153800Y26200D02*
X155000D01*
X154400Y25600D02*
Y26800D01*
X153800Y16200D02*
X155000D01*
X154400Y15600D02*
Y16800D01*
X153800Y6200D02*
X155000D01*
X154400Y5600D02*
Y6800D01*
X143800Y186200D02*
X145000D01*
X144400Y185600D02*
Y186800D01*
X143800Y176200D02*
X145000D01*
X144400Y175600D02*
Y176800D01*
X143800Y166200D02*
X145000D01*
X144400Y165600D02*
Y166800D01*
X143800Y156200D02*
X145000D01*
X144400Y155600D02*
Y156800D01*
X143800Y46200D02*
X145000D01*
X144400Y45600D02*
Y46800D01*
X143800Y36200D02*
X145000D01*
X144400Y35600D02*
Y36800D01*
X143800Y26200D02*
X145000D01*
X144400Y25600D02*
Y26800D01*
X143800Y16200D02*
X145000D01*
X144400Y15600D02*
Y16800D01*
X143800Y6200D02*
X145000D01*
X144400Y5600D02*
Y6800D01*
X133800Y176200D02*
X135000D01*
X134400Y175600D02*
Y176800D01*
X133800Y166200D02*
X135000D01*
X134400Y165600D02*
Y166800D01*
X133800Y156200D02*
X135000D01*
X134400Y155600D02*
Y156800D01*
X133800Y76200D02*
X135000D01*
X134400Y75600D02*
Y76800D01*
X133800Y46200D02*
X135000D01*
X134400Y45600D02*
Y46800D01*
X133800Y36200D02*
X135000D01*
X134400Y35600D02*
Y36800D01*
X133800Y26200D02*
X135000D01*
X134400Y25600D02*
Y26800D01*
X123800Y156200D02*
X125000D01*
X124400Y155600D02*
Y156800D01*
X123800Y46200D02*
X125000D01*
X124400Y45600D02*
Y46800D01*
X123800Y36200D02*
X125000D01*
X124400Y35600D02*
Y36800D01*
X123800Y26200D02*
X125000D01*
X124400Y25600D02*
Y26800D01*
X113800Y186200D02*
X115000D01*
X114400Y185600D02*
Y186800D01*
X113800Y126200D02*
X115000D01*
X114400Y125600D02*
Y126800D01*
X113800Y46200D02*
X115000D01*
X114400Y45600D02*
Y46800D01*
X113800Y36200D02*
X115000D01*
X114400Y35600D02*
Y36800D01*
X113800Y16200D02*
X115000D01*
X114400Y15600D02*
Y16800D01*
X113800Y6200D02*
X115000D01*
X114400Y5600D02*
Y6800D01*
X103800Y186200D02*
X105000D01*
X104400Y185600D02*
Y186800D01*
X103800Y6200D02*
X105000D01*
X104400Y5600D02*
Y6800D01*
X93800Y186200D02*
X95000D01*
X94400Y185600D02*
Y186800D01*
X93800Y76200D02*
X95000D01*
X94400Y75600D02*
Y76800D01*
X93800Y66200D02*
X95000D01*
X94400Y65600D02*
Y66800D01*
X93800Y46200D02*
X95000D01*
X94400Y45600D02*
Y46800D01*
X93800Y6200D02*
X95000D01*
X94400Y5600D02*
Y6800D01*
X83800Y186200D02*
X85000D01*
X84400Y185600D02*
Y186800D01*
X83800Y6200D02*
X85000D01*
X84400Y5600D02*
Y6800D01*
X73800Y46200D02*
X75000D01*
X74400Y45600D02*
Y46800D01*
X73800Y36200D02*
X75000D01*
X74400Y35600D02*
Y36800D01*
X73800Y26200D02*
X75000D01*
X74400Y25600D02*
Y26800D01*
X63800Y186200D02*
X65000D01*
X64400Y185600D02*
Y186800D01*
X63800Y176200D02*
X65000D01*
X64400Y175600D02*
Y176800D01*
X63800Y146200D02*
X65000D01*
X64400Y145600D02*
Y146800D01*
X63800Y126200D02*
X65000D01*
X64400Y125600D02*
Y126800D01*
X63800Y36200D02*
X65000D01*
X64400Y35600D02*
Y36800D01*
X63800Y26200D02*
X65000D01*
X64400Y25600D02*
Y26800D01*
X63800Y16200D02*
X65000D01*
X64400Y15600D02*
Y16800D01*
X63800Y6200D02*
X65000D01*
X64400Y5600D02*
Y6800D01*
X53800Y186200D02*
X55000D01*
X54400Y185600D02*
Y186800D01*
X53800Y156200D02*
X55000D01*
X54400Y155600D02*
Y156800D01*
X53800Y56200D02*
X55000D01*
X54400Y55600D02*
Y56800D01*
X53800Y46200D02*
X55000D01*
X54400Y45600D02*
Y46800D01*
X53800Y36200D02*
X55000D01*
X54400Y35600D02*
Y36800D01*
X53800Y26200D02*
X55000D01*
X54400Y25600D02*
Y26800D01*
X53800Y16200D02*
X55000D01*
X54400Y15600D02*
Y16800D01*
X53800Y6200D02*
X55000D01*
X54400Y5600D02*
Y6800D01*
X43800Y186200D02*
X45000D01*
X44400Y185600D02*
Y186800D01*
X43800Y146200D02*
X45000D01*
X44400Y145600D02*
Y146800D01*
X43800Y76200D02*
X45000D01*
X44400Y75600D02*
Y76800D01*
X43800Y66200D02*
X45000D01*
X44400Y65600D02*
Y66800D01*
X43800Y56200D02*
X45000D01*
X44400Y55600D02*
Y56800D01*
X43800Y46200D02*
X45000D01*
X44400Y45600D02*
Y46800D01*
X43800Y36200D02*
X45000D01*
X44400Y35600D02*
Y36800D01*
X43800Y26200D02*
X45000D01*
X44400Y25600D02*
Y26800D01*
X43800Y16200D02*
X45000D01*
X44400Y15600D02*
Y16800D01*
X43800Y6200D02*
X45000D01*
X44400Y5600D02*
Y6800D01*
X33800Y156200D02*
X35000D01*
X34400Y155600D02*
Y156800D01*
X33800Y146200D02*
X35000D01*
X34400Y145600D02*
Y146800D01*
X33800Y136200D02*
X35000D01*
X34400Y135600D02*
Y136800D01*
X33800Y126200D02*
X35000D01*
X34400Y125600D02*
Y126800D01*
X33800Y86200D02*
X35000D01*
X34400Y85600D02*
Y86800D01*
X33800Y76200D02*
X35000D01*
X34400Y75600D02*
Y76800D01*
X33800Y66200D02*
X35000D01*
X34400Y65600D02*
Y66800D01*
X33800Y56200D02*
X35000D01*
X34400Y55600D02*
Y56800D01*
X33800Y46200D02*
X35000D01*
X34400Y45600D02*
Y46800D01*
X33800Y36200D02*
X35000D01*
X34400Y35600D02*
Y36800D01*
X33800Y26200D02*
X35000D01*
X34400Y25600D02*
Y26800D01*
X33800Y16200D02*
X35000D01*
X34400Y15600D02*
Y16800D01*
X33800Y6200D02*
X35000D01*
X34400Y5600D02*
Y6800D01*
X23800Y186200D02*
X25000D01*
X24400Y185600D02*
Y186800D01*
X23800Y156200D02*
X25000D01*
X24400Y155600D02*
Y156800D01*
X23800Y66200D02*
X25000D01*
X24400Y65600D02*
Y66800D01*
X23800Y56200D02*
X25000D01*
X24400Y55600D02*
Y56800D01*
X23800Y46200D02*
X25000D01*
X24400Y45600D02*
Y46800D01*
X23800Y36200D02*
X25000D01*
X24400Y35600D02*
Y36800D01*
X23800Y6200D02*
X25000D01*
X24400Y5600D02*
Y6800D01*
X13800Y176200D02*
X15000D01*
X14400Y175600D02*
Y176800D01*
X13800Y156200D02*
X15000D01*
X14400Y155600D02*
Y156800D01*
X13800Y116200D02*
X15000D01*
X14400Y115600D02*
Y116800D01*
X13800Y106200D02*
X15000D01*
X14400Y105600D02*
Y106800D01*
X13800Y96200D02*
X15000D01*
X14400Y95600D02*
Y96800D01*
X13800Y86200D02*
X15000D01*
X14400Y85600D02*
Y86800D01*
X13800Y56200D02*
X15000D01*
X14400Y55600D02*
Y56800D01*
X13800Y46200D02*
X15000D01*
X14400Y45600D02*
Y46800D01*
X13800Y36200D02*
X15000D01*
X14400Y35600D02*
Y36800D01*
X86800Y167200D02*
X88000D01*
X87400Y166600D02*
Y167800D01*
X94300Y167200D02*
X95500D01*
X94900Y166600D02*
Y167800D01*
X94800Y155200D02*
X96000D01*
X95400Y154600D02*
Y155800D01*
X97800Y148700D02*
X99000D01*
X98400Y148100D02*
Y149300D01*
X101300Y144200D02*
X102500D01*
X101900Y143600D02*
Y144800D01*
X96100Y92200D02*
X97300D01*
X96700Y91600D02*
Y92800D01*
X96100Y99200D02*
X97300D01*
X96700Y98600D02*
Y99800D01*
X96100Y106200D02*
X97300D01*
X96700Y105600D02*
Y106800D01*
X83800Y125967D02*
X85000D01*
X84400Y125367D02*
Y126567D01*
X80800Y125967D02*
X82000D01*
X81400Y125367D02*
Y126567D01*
X83600Y121700D02*
X84800D01*
X84200Y121100D02*
Y122300D01*
X59790Y68000D02*
X60990D01*
X60390Y67400D02*
Y68600D01*
X59790Y74000D02*
X60990D01*
X60390Y73400D02*
Y74600D01*
X59790Y71000D02*
X60990D01*
X60390Y70400D02*
Y71600D01*
X40300Y165700D02*
X41500D01*
X40900Y165100D02*
Y166300D01*
X155300Y74200D02*
X156500D01*
X155900Y73600D02*
Y74800D01*
X155300Y87200D02*
X156500D01*
X155900Y86600D02*
Y87800D01*
X155300Y128200D02*
X156500D01*
X155900Y127600D02*
Y128800D01*
X155300Y116200D02*
X156500D01*
X155900Y115600D02*
Y116800D01*
X155300Y101200D02*
X156500D01*
X155900Y100600D02*
Y101800D01*
X138800Y57200D02*
X140000D01*
X139400Y56600D02*
Y57800D01*
X138800Y71200D02*
X140000D01*
X139400Y70600D02*
Y71800D01*
X138800Y84200D02*
X140000D01*
X139400Y83600D02*
Y84800D01*
X138800Y92700D02*
X140000D01*
X139400Y92100D02*
Y93300D01*
X156300Y137900D02*
X157500D01*
X156900Y137300D02*
Y138500D01*
X151300Y137900D02*
X152500D01*
X151900Y137300D02*
Y138500D01*
X143800Y137900D02*
X145000D01*
X144400Y137300D02*
Y138500D01*
X138800Y134200D02*
X140000D01*
X139400Y133600D02*
Y134800D01*
X138800Y126700D02*
X140000D01*
X139400Y126100D02*
Y127300D01*
X138800Y115700D02*
X140000D01*
X139400Y115100D02*
Y116300D01*
X138800Y107200D02*
X140000D01*
X139400Y106600D02*
Y107800D01*
X135300Y103700D02*
X136500D01*
X135900Y103100D02*
Y104300D01*
X53300Y89700D02*
X54500D01*
X53900Y89100D02*
Y90300D01*
X56300Y86700D02*
X57500D01*
X56900Y86100D02*
Y87300D01*
X82940Y71000D02*
X84140D01*
X83540Y70400D02*
Y71600D01*
X82940Y74000D02*
X84140D01*
X83540Y73400D02*
Y74600D01*
X82940Y68000D02*
X84140D01*
X83540Y67400D02*
Y68600D01*
X90300Y148200D02*
X91500D01*
X90900Y147600D02*
Y148800D01*
X90300Y151200D02*
X91500D01*
X90900Y150600D02*
Y151800D01*
X87300Y148200D02*
X88500D01*
X87900Y147600D02*
Y148800D01*
X87300Y151200D02*
X88500D01*
X87900Y150600D02*
Y151800D01*
X75236Y98684D02*
X76436D01*
X75836Y98084D02*
Y99284D01*
X75236Y125967D02*
X76436D01*
X75836Y125367D02*
Y126567D01*
X75236Y110157D02*
X76436D01*
X75836Y109557D02*
Y110757D01*
X166871Y92762D02*
X168071D01*
X167471Y92162D02*
Y93362D01*
X92622Y32109D02*
X93822D01*
X93222Y31509D02*
Y32709D01*
X92622Y40291D02*
X93822D01*
X93222Y39691D02*
Y40891D01*
X96713Y36200D02*
X97913D01*
X97313Y35600D02*
Y36800D01*
X30896Y107778D02*
X32096D01*
X31496Y107178D02*
Y108378D01*
X39078Y107778D02*
X40278D01*
X39678Y107178D02*
Y108378D01*
X34987Y103687D02*
X36187D01*
X35587Y103087D02*
Y104287D01*
X120501Y160956D02*
X121701D01*
X121101Y160355D02*
Y161556D01*
X120501Y169137D02*
X121701D01*
X121101Y168537D02*
Y169737D01*
X124493Y165046D02*
X125693D01*
X125093Y164446D02*
Y165646D01*
X158689Y92762D02*
X159889D01*
X159289Y92162D02*
Y93362D01*
X162780Y96853D02*
X163980D01*
X163380Y96253D02*
Y97453D01*
X110788Y126535D02*
X111988D01*
X111388Y125935D02*
Y127135D01*
X110856Y134430D02*
X112057D01*
X111457Y133829D02*
Y135029D01*
X114947Y138520D02*
X116147D01*
X115547Y137920D02*
Y139120D01*
X114879Y130626D02*
X116079D01*
X115479Y130026D02*
Y131226D01*
X127351Y112136D02*
X128551D01*
X127951Y111536D02*
Y112736D01*
X114231Y84566D02*
X115431D01*
X114831Y83966D02*
Y85166D01*
X121222Y83414D02*
X122422D01*
X121822Y82814D02*
Y84014D01*
X127298Y62592D02*
X128498D01*
X127898Y61992D02*
Y63192D01*
X127298Y69535D02*
X128498D01*
X127898Y68935D02*
Y70135D01*
X127351Y76477D02*
X128551D01*
X127951Y75877D02*
Y77077D01*
X131038Y66332D02*
X132238D01*
X131638Y65732D02*
Y66932D01*
X131038Y73275D02*
X132238D01*
X131638Y72675D02*
Y73875D01*
X131091Y80217D02*
X132291D01*
X131691Y79617D02*
Y80817D01*
X127480Y83414D02*
X128680D01*
X128079Y82814D02*
Y84014D01*
X131219Y87154D02*
X132420D01*
X131819Y86554D02*
Y87754D01*
X127351Y90362D02*
X128551D01*
X127951Y89762D02*
Y90962D01*
X131091Y94102D02*
X132291D01*
X131691Y93502D02*
Y94702D01*
X58491Y102463D02*
X59691D01*
X59091Y101863D02*
Y103063D01*
X62360Y119115D02*
X63560D01*
X62960Y118515D02*
Y119715D01*
X58620Y115375D02*
X59820D01*
X59220Y114775D02*
Y115975D01*
X58491Y108894D02*
X59691D01*
X59091Y108294D02*
Y109494D01*
X62360Y92342D02*
X63560D01*
X62960Y91742D02*
Y92942D01*
X58620Y96082D02*
X59820D01*
X59220Y95482D02*
Y96682D01*
X156342Y64232D02*
X157542D01*
X156942Y63632D02*
Y64832D01*
X156342Y133392D02*
X157542D01*
X156942Y132792D02*
Y133992D01*
M02*
