M48
;Layer_Color=9474304
;FILE_FORMAT=2:5
INCH,LZ
;TYPE=PLATED
T2F00S00C0.01968
T5F00S00C0.08000
;TYPE=NON_PLATED
%
G90
G05
T02
G00X0014821Y0163377
M15
G01X001677Y0161428
M16
G00X0005231Y0173106
M15
G01X0007179Y0171158
M16
G00X0034865Y0183421
M15
G01X0036814Y0181472
M16
G00X0025135Y0193011
M15
G01X0027084Y0191062
M16
T05
G00X0075034Y0014531
M15
G01Y0011531
M16
G00X0126766Y0014531
M15
G01Y0011531
M16
G00X0015531Y0074234
M15
G01X0012531
M16
G00X0015531Y0125966
M15
G01X0012531
M16
G00X0184369Y0126366
M15
G01X0187369
M16
G00X0184369Y0074634
M15
G01X0187369
M16
G00X0126766Y0185469
M15
G01Y0188469
M16
G00X0075034Y0185469
M15
G01Y0188469
M16
M17
M30
