G04*
G04 #@! TF.GenerationSoftware,Altium Limited,Altium Designer,20.0.11 (256)*
G04*
G04 Layer_Color=16711935*
%FSLAX25Y25*%
%MOIN*%
G70*
G01*
G75*
%ADD39C,0.20085*%
%ADD40O,0.10243X0.07093*%
G04:AMPARAMS|DCode=41|XSize=51.24mil|YSize=74.87mil|CornerRadius=0mil|HoleSize=0mil|Usage=FLASHONLY|Rotation=45.000|XOffset=0mil|YOffset=0mil|HoleType=Round|Shape=Round|*
%AMOVALD41*
21,1,0.02362,0.05124,0.00000,0.00000,135.0*
1,1,0.05124,0.00835,-0.00835*
1,1,0.05124,-0.00835,0.00835*
%
%ADD41OVALD41*%

%ADD42C,0.02762*%
%ADD43C,0.06400*%
%ADD44R,0.06400X0.06400*%
%ADD45R,0.06400X0.06400*%
%ADD46O,0.12998X0.18400*%
%ADD47O,0.07487X0.10243*%
%ADD48O,0.07093X0.10243*%
%ADD49R,0.07100X0.10200*%
%ADD50O,0.18400X0.12998*%
%ADD51O,0.10243X0.07487*%
%ADD52R,0.10200X0.07100*%
D39*
X19618Y144598D02*
D03*
Y19700D02*
D03*
X179773Y19700D02*
D03*
X179900Y180200D02*
D03*
D40*
X175200Y96169D02*
D03*
Y104831D02*
D03*
X24700Y95769D02*
D03*
Y104431D02*
D03*
D41*
X26110Y192037D02*
D03*
X6205Y172132D02*
D03*
X35839Y182446D02*
D03*
X15795Y162402D02*
D03*
D42*
X16575Y170531D02*
D03*
X27710Y181667D02*
D03*
D43*
X140428Y149996D02*
D03*
X174380Y52232D02*
D03*
X67747Y42133D02*
D03*
X47626Y136810D02*
D03*
D44*
X130428Y149996D02*
D03*
X164380Y52232D02*
D03*
D45*
X67747Y52133D02*
D03*
X47626Y126810D02*
D03*
D46*
X126766Y186969D02*
D03*
X75034D02*
D03*
Y13031D02*
D03*
X126766D02*
D03*
D47*
X87120Y176300D02*
D03*
X114680Y23700D02*
D03*
D48*
X96569Y176300D02*
D03*
X105231D02*
D03*
Y23700D02*
D03*
X96569D02*
D03*
D49*
X114680Y176300D02*
D03*
X87120Y23700D02*
D03*
D50*
X185869Y74634D02*
D03*
Y126366D02*
D03*
X14031Y125966D02*
D03*
Y74234D02*
D03*
D51*
X175200Y114280D02*
D03*
X24700Y86320D02*
D03*
D52*
X175200Y86720D02*
D03*
X24700Y113880D02*
D03*
M02*
